<svg width="22" height="24" viewBox="0 0 22 24" fill="none" xmlns="http://www.w3.org/2000/svg">
<path d="M6.04554 7.51775L11.4697 15.3177H11.5029H11.5692L16.9768 7.51775H9.86071L12.5313 11.6511C12.747 11.9844 12.6474 12.4177 12.3157 12.6344C12.1996 12.7177 12.0669 12.7511 11.9342 12.7511C11.7019 12.7511 11.4697 12.6344 11.337 12.4344L8.16877 7.51775H6.04554ZM18.2541 4.11775C17.2588 4.10108 16.3299 4.71775 16.0147 5.70108C15.965 5.86775 15.8489 6.00108 15.7162 6.08442L15.6996 6.10108H18.3204C18.5858 6.10108 18.8181 6.25108 18.9508 6.48442C19.0669 6.71775 19.0503 7.00108 18.901 7.21775L17.856 8.73442L17.9389 8.75108C19.0171 8.88442 20.0621 8.23442 20.4105 7.18442C20.6095 6.60108 20.5598 5.96775 20.2778 5.41775C19.9958 4.86775 19.5147 4.45108 18.9342 4.25108C18.7185 4.15108 18.4863 4.11775 18.2541 4.11775ZM1.6664 0.817749H5.14981C5.38204 0.817749 5.61426 0.934416 5.74696 1.13442L8.94839 6.08442H15.0029L14.9531 6.05108C14.7043 5.86775 14.5882 5.55108 14.6877 5.25108C15.2185 3.66775 16.7114 2.66775 18.3038 2.70108C18.6688 2.70108 19.0503 2.76775 19.4152 2.88442C20.3607 3.20108 21.1403 3.86775 21.5882 4.76775C22.0361 5.65108 22.1024 6.66775 21.7873 7.61775C21.273 9.18442 19.8133 10.1677 18.2375 10.1677C17.856 10.1677 17.4579 10.1011 17.0598 9.98442L17.01 9.96775L12.2825 16.7511V22.4011H15.8157C16.2138 22.4011 16.529 22.7178 16.529 23.1178C16.529 23.5177 16.2138 23.8344 15.8157 23.8344H11.5858H8.05265C7.65455 23.8344 7.33938 23.5177 7.33938 23.1178C7.33938 22.7178 7.65455 22.4011 8.05265 22.4011H10.8726V16.9511L4.12137 7.20108C3.97208 6.98442 3.95549 6.70108 4.07161 6.46775C4.18772 6.23442 4.43654 6.08442 4.70194 6.08442H7.25644L4.76829 2.23442H1.6664C1.26829 2.23442 0.953125 1.91775 0.953125 1.53442C0.953125 1.13442 1.26829 0.817749 1.6664 0.817749Z" fill="black"/>
</svg>
