<?xml version="1.0" encoding="utf-8"?>
<!-- Generator: Adobe Illustrator 23.0.6, SVG Export Plug-In . SVG Version: 6.00 Build 0)  -->
<svg version="1.1" id="Layer_1" xmlns="http://www.w3.org/2000/svg" xmlns:xlink="http://www.w3.org/1999/xlink" x="0px" y="0px"
	 viewBox="0 0 799.7 35" style="enable-background:new 0 0 799.7 35;" xml:space="preserve">
<style type="text/css">
	.st0{fill-rule:evenodd;clip-rule:evenodd;fill:#6BA5DB;}
</style>
<path class="st0" d="M0,30.2c6.4,0,12.7-0.8,18.7-1.9c6.2-1.1,12.1-2.5,18.7-3.2c7.3-0.7,14.5-0.7,21.9-0.2
	c11.4,0.8,21.7,3.1,32,5.6c7.8,1.9,16,3.1,24.7,3.5c0.2,0,0.4,0,0.6,0.1c-2.5,0.1-5,0.3-7.6,0.4c-7.7,0.3-15.3,0.1-23-0.4
	c-14.1-0.9-28.1-1.3-42.3-0.8c-5.8,0.2-11.5,0.6-17.2,1C17.7,35,6.7,34.8,0,34.1V30.2z"/>
<path class="st0" d="M0,5.8c10.6-1.2,15-2,26.7-1.5C39,4.9,50.6,7,62.2,8.9c8.1,1.3,16.2,2.8,24.4,4c8.4,1.2,17.1,2.2,25.7,3.2
	c1.3,0.2,2.8,0.2,4.2,0.3c-2.1,0-4.1,0.1-6.1,0c-6-0.3-12-0.6-18-1c-7.6-0.6-15-1.3-22.5-1.9C57,12.3,44,12,31,12.6
	C21,13,10.5,14.7,0,15.2V5.8z"/>
<path class="st0" d="M399.8,15.2c-2.7,0.1-5.5,0.3-8.2,0.3c-10.7,0.1-21.1-0.6-31.3-2c-17.7-2.4-34.7-5.8-51.4-9.6
	c-2-0.4-13.9-3-14.5-3.6c3.5,0.6,7,1.1,10.4,1.7c22.5,3.5,36.4,5.9,60.3,5.8c11.5-0.1,23.6-0.8,34.8-2.1L399.8,15.2L399.8,15.2z"/>
<path class="st0" d="M399.8,27.3c-10.1,0.3-19.7-0.6-29.5-1.9c-17.9-2.4-31.3-6.4-52.2-9c-0.5-0.1-1-0.1-1.5-0.3
	c20.9,0.9,41.5,3.8,62.1,4.1c7.9,0.1,13.7-0.3,21.1-1.2V27.3L399.8,27.3z"/>
<path class="st0" d="M0,19c12.6-1.6,20.9-2.3,31.3-3.1c11.4-0.9,22.9-1.2,34.3-0.2c0.4,0,0.6,0.1,0.2,0.1
	c-5.2,0.4-10.5,0.7-15.6,1.4c-4.5,0.6-9,1.6-13.2,2.6c-5.9,1.4-11.6,3.1-17.6,4.6c-6.1,1.5-10.6,2.7-19.4,3L0,19L0,19z"/>
<path class="st0" d="M399.8,34.1c-11.7-1.2-32.2-3.9-47.2-9c17,3.5,27.8,5.1,47.2,5.1V34.1z"/>
<path class="st0" d="M161.2,32.6c5.8-0.8,11.7-1.5,17.4-2.5c9.7-1.7,18.7-4.1,27.5-6.8c17.8-5.5,29.3-10.3,50.1-13
	c12.7-1.7,25.7-1.8,38.7-1.3c13.3,0.5,26.2,1.7,39,3.6c3,0.4,5.9,0.9,8.7,1.3c0,0.1-0.1,0.1-0.1,0.2c-11.5-0.9-22.1-1.5-33.8-1.2
	c-8.3,0.2-16.4,0.9-24.5,1.9c-13.6,1.7-29.9,5.6-43.1,8.3c-16.7,3.5-27.8,6.1-46.2,7.7C190.7,31.2,162.7,32.5,161.2,32.6z"/>
<path class="st0" d="M41.6,21.6c2.4-0.3,4.9-0.7,7.3-1c13.2-1.9,26.6-1.9,40.1-1.2c7,0.3,14,0.9,21,1.5c9.5,0.9,18.8,2,28.2,2.8
	c7.5,0.7,15.1,0.6,22.7,0.5c11.2-0.3,22.1-1.1,33-2.6c2.8-0.4,5.6-0.9,8.4-1.3c0.6-0.1,1.1-0.2,1.8-0.1c-4.6,1-9.1,2.2-13.8,3.1
	c-10.6,2-21.3,4.1-32,5.9c-7.8,1.3-15.9,2.1-24.1,2.5c-14.6,0.6-28.2-1-41-4.5c-8.6-2.3-17.6-4.1-27.3-4.9
	c-7.6-0.6-15.2-0.7-22.8-0.4c-0.4,0-0.9,0-1.3,0L41.6,21.6z"/>
<path class="st0" d="M128.4,17.3c3.8,0,7.6,0,11.4,0c12.7,0,24.7-1.3,36.3-3.9c9.1-2.1,18.4-4,27.7-5.8c4.7-0.9,9.6-1.4,14.5-1.8
	c6-0.6,12.1-1,18.2-1.3C247,3.9,257.7,3.7,268.3,4c3.6,0.1,23.3,0.6,25.2,1.2c-1.9,0-3.9,0-5.9,0c-10.4,0.1-20.7,0.7-30.9,1.8
	c-10.8,1.2-21.2,3-31.6,4.9c-11.2,2.1-22.4,4.4-33.7,6.4c-10.4,1.9-21.3,2.3-32.2,2.2c-9.7-0.1-19-1.2-28.3-2.5
	c-0.9-0.1-1.8-0.2-2.7-0.3C128.4,17.4,128.4,17.3,128.4,17.3z"/>
<path class="st0" d="M399.8,30.2c6.4,0,12.7-0.8,18.7-1.9c6.2-1.1,12.1-2.5,18.7-3.2c7.3-0.7,14.5-0.7,21.9-0.2
	c11.4,0.8,21.7,3.1,32,5.6c7.8,1.9,16,3.1,24.7,3.5c0.2,0,0.4,0,0.6,0.1c-2.5,0.1-5,0.3-7.6,0.4c-7.7,0.3-15.3,0.1-23-0.4
	c-14.1-0.9-28.1-1.3-42.3-0.8c-5.8,0.2-11.5,0.6-17.2,1c-8.8,0.6-19.9,0.4-26.5-0.3L399.8,30.2L399.8,30.2z"/>
<path class="st0" d="M399.8,5.8c10.6-1.2,15-2,26.7-1.5C438.8,4.9,450.4,7,462,8.9c8.1,1.3,16.2,2.8,24.4,4
	c8.4,1.2,17.1,2.2,25.7,3.2c1.3,0.2,2.8,0.2,4.2,0.3c-2.1,0-4.1,0.1-6.1,0c-6-0.3-12-0.6-18-1c-7.6-0.6-15-1.3-22.5-1.9
	c-12.9-1.2-25.9-1.5-39-0.9c-10,0.4-20.5,2.1-31,2.6V5.8H399.8z"/>
<path class="st0" d="M799.7,15.2c-2.7,0.1-5.5,0.3-8.2,0.3c-10.7,0.1-21.1-0.6-31.3-2c-17.7-2.4-34.7-5.8-51.4-9.6
	c-2-0.4-13.9-3-14.5-3.6c3.5,0.6,7,1.1,10.4,1.7c22.5,3.5,36.4,6,60.3,5.9c11.5-0.1,23.6-0.8,34.8-2.1L799.7,15.2L799.7,15.2z"/>
<path class="st0" d="M799.7,27.3c-10.1,0.3-19.7-0.6-29.5-1.9c-17.9-2.4-31.3-6.4-52.2-9c-0.5-0.1-1-0.1-1.5-0.3
	c20.9,0.9,41.5,3.8,62.1,4.1c7.9,0.1,13.7-0.3,21.1-1.2L799.7,27.3L799.7,27.3z"/>
<path class="st0" d="M399.8,19c12.6-1.6,20.9-2.3,31.3-3.1c11.4-0.9,22.9-1.2,34.3-0.2c0.4,0,0.6,0.1,0.2,0.1
	c-5.2,0.4-10.5,0.7-15.6,1.4c-4.5,0.6-9,1.6-13.2,2.6c-5.9,1.4-11.6,3.1-17.6,4.6c-6.1,1.5-10.6,2.7-19.4,3L399.8,19L399.8,19z"/>
<path class="st0" d="M799.7,34.1c-11.7-1.2-32.2-3.9-47.2-9c17,3.5,27.8,5.1,47.2,5.1V34.1z"/>
<path class="st0" d="M561,32.6c5.8-0.8,11.7-1.5,17.4-2.5c9.7-1.7,18.7-4.1,27.5-6.8c17.8-5.5,29.3-10.3,50.1-13
	c12.7-1.7,25.7-1.8,38.7-1.3c13.3,0.5,26.2,1.7,39,3.6c3,0.4,5.9,0.9,8.7,1.3c0,0.1-0.1,0.1-0.1,0.2c-11.5-0.9-22.1-1.5-33.8-1.2
	c-8.3,0.2-16.4,0.9-24.5,1.9c-13.6,1.7-29.9,5.6-43.1,8.3c-16.7,3.5-27.9,6.1-46.2,7.7C590.5,31.2,562.5,32.5,561,32.6z"/>
<path class="st0" d="M441.4,21.6c2.4-0.3,4.9-0.7,7.3-1c13.2-1.9,26.6-1.9,40.1-1.2c7,0.3,14,0.9,21,1.5c9.5,0.9,18.8,2,28.2,2.8
	c7.5,0.7,15.1,0.6,22.7,0.5c11.2-0.3,22.1-1.1,33-2.6c2.8-0.4,5.6-0.9,8.4-1.3c0.6-0.1,1.1-0.2,1.8-0.1c-4.6,1-9.1,2.2-13.8,3.1
	c-10.6,2-21.3,4.1-32,5.9c-7.8,1.3-15.9,2.1-24.1,2.5c-14.6,0.6-28.2-1-41-4.5c-8.6-2.3-17.6-4.1-27.3-4.9
	c-7.6-0.6-15.2-0.7-22.8-0.4c-0.4,0-0.9,0-1.3,0L441.4,21.6z"/>
<path class="st0" d="M528.2,17.3c3.8,0,7.6,0,11.4,0c12.7,0,24.7-1.3,36.3-3.9c9.1-2.1,18.4-4,27.7-5.8c4.7-0.9,9.6-1.4,14.5-1.8
	c6-0.6,12.1-1,18.2-1.3c10.5-0.6,21.2-0.8,31.8-0.5c3.6,0.1,23.3,0.6,25.2,1.2c-1.9,0-3.9,0-5.9,0C677,5.3,666.7,5.9,656.5,7
	c-10.8,1.2-21.2,3-31.6,4.9c-11.2,2.1-22.4,4.4-33.7,6.4c-10.4,1.9-21.3,2.3-32.2,2.2c-9.7-0.1-19-1.2-28.3-2.5
	c-0.9-0.1-1.8-0.2-2.7-0.3C528.2,17.4,528.2,17.3,528.2,17.3z"/>
</svg>
