<?xml version="1.0" encoding="utf-8"?>
<!-- Generator: Adobe Illustrator 23.0.6, SVG Export Plug-In . SVG Version: 6.00 Build 0)  -->
<svg version="1.1" id="Layer_1" xmlns="http://www.w3.org/2000/svg" xmlns:xlink="http://www.w3.org/1999/xlink" x="0px" y="0px"
	 viewBox="0 0 389.9 32" style="enable-background:new 0 0 389.9 32;" xml:space="preserve">
<style type="text/css">
	.st0{fill-rule:evenodd;clip-rule:evenodd;fill:#6BA5DB;}
</style>
<path class="st0" d="M389.9,27.1c-6.3,0-12.4-0.7-18.3-1.7c-6.1-1-11.8-2.3-18.2-2.9c-7.1-0.6-14.2-0.6-21.3-0.2
	c-11.1,0.7-21.2,2.8-31.2,5.1c-7.6,1.7-15.6,2.8-24.1,3.1c-0.2,0-0.4,0-0.6,0.1c2.5,0.1,4.9,0.3,7.4,0.4c7.5,0.3,15,0.1,22.4-0.4
	c13.7-0.8,27.4-1.1,41.2-0.7c5.6,0.2,11.2,0.6,16.8,0.9c8.6,0.5,19.4,0.4,25.9-0.3L389.9,27.1L389.9,27.1z"/>
<path class="st0" d="M389.9,5c-10.3-1.1-14.7-1.8-26-1.3c-12.1,0.5-23.3,2.4-34.7,4.1c-7.9,1.2-15.8,2.6-23.8,3.6
	c-8.2,1.1-16.7,2-25.1,2.9c-1.3,0.2-2.7,0.2-4.1,0.3c2,0,4,0.1,6,0c5.8-0.3,11.7-0.5,17.5-0.9c7.4-0.5,14.7-1.1,22-1.7
	c12.6-1,25.3-1.4,38-0.8c9.8,0.4,20,1.9,30.2,2.4V5z"/>
<path class="st0" d="M0,13.5c2.7,0.1,5.3,0.2,8,0.3c10.4,0.1,20.6-0.5,30.6-1.8c17.3-2.2,33.8-5.3,50.1-8.7c2-0.4,13.6-2.8,14.2-3.3
	c-3.4,0.5-6.8,1-10.2,1.5c-22,3.2-35.5,5.4-58.8,5.3C22.7,6.7,10.9,6.1,0,4.9L0,13.5L0,13.5z"/>
<path class="st0" d="M-0.1,24.4c9.8,0.2,19.2-0.5,28.7-1.7c17.5-2.2,30.6-5.8,50.9-8.2c0.5-0.1,1-0.1,1.4-0.3
	C60.6,15,40.6,17.7,20.4,18C12.7,18.1,7.2,17.7,0,16.9L-0.1,24.4L-0.1,24.4z"/>
<path class="st0" d="M389.9,16.9c-12.3-1.5-20.4-2.1-30.5-2.8c-11.1-0.8-22.3-1.1-33.4-0.2c-0.4,0-0.6,0.1-0.2,0.1
	c5.1,0.4,10.3,0.7,15.2,1.3c4.4,0.5,8.7,1.5,12.9,2.4c5.8,1.3,11.3,2.8,17.1,4.2c6,1.4,10.3,2.5,18.9,2.7V16.9L389.9,16.9z"/>
<path class="st0" d="M0,30.6c11.4-1.1,31.4-3.5,46-8.2c-16.6,3.2-27.1,4.7-46,4.7V30.6z"/>
<path class="st0" d="M232.7,29.3c-5.6-0.7-11.4-1.4-17-2.3c-9.5-1.5-18.3-3.7-26.8-6.1c-17.3-5-28.6-9.3-48.8-11.8
	c-12.4-1.5-25.1-1.7-37.8-1.2c-12.9,0.4-25.6,1.6-38,3.2c-2.9,0.4-5.7,0.8-8.5,1.2c0,0.1,0.1,0.1,0.1,0.2c11.2-0.8,21.5-1.3,32.9-1
	c8.1,0.2,16,0.8,23.9,1.8c13.3,1.5,29.2,5.1,42,7.6c16.3,3.2,27.2,5.5,45.1,7C203.9,28,231.2,29.2,232.7,29.3z"/>
<path class="st0" d="M349.3,19.2c-2.4-0.3-4.8-0.6-7.2-0.9c-12.9-1.8-25.9-1.7-39.1-1.1c-6.9,0.3-13.6,0.8-20.4,1.3
	c-9.2,0.8-18.3,1.8-27.5,2.5c-7.3,0.6-14.7,0.6-22.1,0.4c-10.9-0.2-21.6-1-32.1-2.4c-2.7-0.4-5.5-0.8-8.2-1.2
	c-0.6-0.1-1.1-0.2-1.7-0.1c4.5,0.9,8.9,2,13.4,2.8c10.3,1.9,20.7,3.7,31.2,5.4c7.6,1.2,15.5,1.9,23.5,2.2c14.2,0.6,27.5-0.9,40-4.1
	c8.4-2.1,17.1-3.7,26.6-4.4c7.4-0.5,14.8-0.6,22.2-0.4c0.4,0,0.9,0,1.3,0L349.3,19.2z"/>
<path class="st0" d="M264.7,15.3c-3.7,0-7.4,0-11.1,0c-12.4,0-24.1-1.1-35.4-3.5c-8.9-1.9-17.9-3.6-27-5.2
	c-4.5-0.8-9.4-1.2-14.2-1.7c-5.9-0.5-11.8-0.9-17.8-1.2c-10.3-0.5-20.7-0.7-31-0.5c-3.5,0.1-22.8,0.5-24.6,1c1.9,0,3.8,0,5.7,0
	c10.2,0.1,20.2,0.6,30.1,1.6c10.5,1,20.7,2.7,30.8,4.5c10.9,1.9,21.8,3.9,32.9,5.8c10.1,1.7,20.7,2.1,31.4,2
	c9.5-0.1,18.6-1.1,27.6-2.3c0.9-0.1,1.7-0.2,2.7-0.3C264.7,15.5,264.7,15.4,264.7,15.3z"/>
</svg>
