<?xml version="1.0" encoding="utf-8"?>
<!-- Generator: Adobe Illustrator 23.0.6, SVG Export Plug-In . SVG Version: 6.00 Build 0)  -->
<svg version="1.1" id="Layer_1" xmlns="http://www.w3.org/2000/svg" xmlns:xlink="http://www.w3.org/1999/xlink" x="0px" y="0px"
	 viewBox="0 0 1440.2 42" style="enable-background:new 0 0 1440.2 42;" xml:space="preserve">
<style type="text/css">
	.st0{fill-rule:evenodd;clip-rule:evenodd;fill:#6BA5DB;}
</style>
<path class="st0" d="M0,36.4c7.7,0,15.2-0.9,22.5-2.2c7.5-1.3,14.6-3,22.4-3.8c8.7-0.8,17.4-0.8,26.2-0.2c13.7,1,26.1,3.8,38.4,6.7
	c9.3,2.2,19.2,3.8,29.6,4.2c0.3,0,0.4,0,0.7,0.2c-3,0.2-6,0.4-9.1,0.5c-9.3,0.4-18.4,0.1-27.6-0.5c-16.9-1.1-33.8-1.5-50.8-0.9
	c-6.9,0.2-13.8,0.8-20.6,1.2C21.3,42.1,8,41.9,0,41V36.4z"/>
<path class="st0" d="M-0.1,7.1c12.7-1.5,18.1-2.4,32-1.7C46.8,6,60.6,8.5,74.6,10.7c9.8,1.6,19.5,3.4,29.4,4.8
	c10.1,1.5,20.5,2.6,30.9,3.9c1.6,0.2,3.4,0.2,5.1,0.4c-2.5,0-4.9,0.1-7.4,0c-7.2-0.4-14.4-0.7-21.6-1.3c-9.1-0.7-18.1-1.5-27-2.3
	c-15.5-1.4-31.1-1.8-46.8-1.1c-12,0.5-24.6,2.5-37.2,3.2V7.1H-0.1z"/>
<path class="st0" d="M480.1,18.4c-3.3,0.1-6.6,0.3-9.9,0.4c-12.8,0.1-25.3-0.7-37.6-2.4c-21.3-2.9-41.6-7-61.7-11.5
	c-2.4-0.5-16.7-3.7-17.4-4.3c4.2,0.7,8.4,1.3,12.5,2c27,4.2,43.7,7.1,72.4,7c13.8-0.1,28.4-0.9,41.8-2.5L480.1,18.4L480.1,18.4z"/>
<path class="st0" d="M480.1,32.8c-12.1,0.3-23.7-0.7-35.4-2.3c-21.5-2.9-37.6-7.7-62.7-10.8c-0.6-0.1-1.2-0.2-1.8-0.4
	c25.1,1,49.8,4.5,74.6,4.9c9.5,0.1,16.5-0.4,25.3-1.4V32.8L480.1,32.8z"/>
<path class="st0" d="M0,22.8c15.1-1.9,25-2.7,37.4-3.8c13.7-1,27.5-1.3,41.2-0.1c0.4,0,0.7,0.1,0.3,0.1c-6.2,0.5-12.6,0.9-18.7,1.7
	c-5.4,0.7-10.8,1.9-15.8,3.1c-7.1,1.7-14,3.8-21.1,5.5c-7.4,1.8-12.7,3.3-23.3,3.6L0,22.8L0,22.8z"/>
<path class="st0" d="M480.1,41c-14.1-1.4-38.7-4.6-56.7-10.8c20.5,4.2,33.4,6.2,56.7,6.2V41z"/>
<path class="st0" d="M193.5,39.3c6.9-1,14.1-1.8,20.9-3c11.7-2,22.5-4.9,33-8.1c21.3-6.6,35.2-12.3,60.1-15.6
	c15.3-2,30.9-2.2,46.5-1.6c15.9,0.6,31.5,2.1,46.8,4.3c3.6,0.5,7,1,10.5,1.6c0,0.1-0.1,0.1-0.1,0.2c-13.8-1.1-26.5-1.7-40.6-1.4
	c-10,0.3-19.7,1.1-29.4,2.3c-16.4,2-35.9,6.7-51.8,10c-20,4.2-33.4,7.3-55.5,9.3C229,37.6,195.4,39.1,193.5,39.3z"/>
<path class="st0" d="M50,26c2.9-0.4,5.9-0.8,8.8-1.3c15.8-2.3,31.9-2.2,48.1-1.5c8.4,0.4,16.8,1,25.2,1.7c11.4,1,22.6,2.4,33.9,3.3
	c9,0.8,18.1,0.8,27.2,0.6c13.4-0.3,26.6-1.3,39.6-3.1c3.4-0.5,6.8-1.1,10.1-1.6c0.7-0.1,1.3-0.2,2.1-0.1c-5.5,1.3-10.9,2.6-16.5,3.8
	c-12.7,2.5-25.5,4.9-38.4,7.1c-9.3,1.6-19.1,2.5-29,2.9c-17.5,0.8-33.9-1.3-49.3-5.4c-10.3-2.8-21.1-5-32.7-5.8
	c-9.1-0.7-18.2-0.8-27.4-0.5c-0.5,0-1.1,0-1.6,0L50,26z"/>
<path class="st0" d="M154.1,20.8c4.5,0,9.2,0,13.7,0c15.2,0,29.7-1.5,43.6-4.7c10.9-2.5,22.1-4.8,33.3-6.9
	c5.6-1.1,11.6-1.7,17.4-2.2c7.2-0.7,14.5-1.2,21.9-1.6c12.6-0.7,25.4-0.9,38.2-0.6c4.3,0.1,28,0.7,30.2,1.4c-2.3,0-4.6,0-7,0
	c-12.5,0.1-24.8,0.8-37.1,2.1c-13,1.4-25.4,3.6-37.9,5.9c-13.4,2.5-26.9,5.2-40.5,7.6c-12.5,2.2-25.5,2.8-38.7,2.6
	c-11.7-0.2-22.9-1.5-34-3c-1.1-0.1-2.1-0.3-3.3-0.4C154.1,21,154.1,20.9,154.1,20.8z"/>
<path class="st0" d="M480.1,36.4c7.7,0,15.2-0.9,22.5-2.2c7.5-1.3,14.6-3,22.4-3.8c8.7-0.8,17.4-0.8,26.2-0.2
	c13.7,1,26.1,3.8,38.4,6.7c9.3,2.2,19.2,3.8,29.6,4.2c0.3,0,0.4,0,0.7,0.2c-3,0.2-6,0.4-9.1,0.5c-9.3,0.4-18.4,0.1-27.6-0.5
	c-16.9-1.1-33.8-1.5-50.8-0.9c-6.9,0.2-13.8,0.8-20.6,1.2c-10.6,0.7-23.8,0.5-31.8-0.4L480.1,36.4L480.1,36.4z"/>
<path class="st0" d="M480.1,7.1c12.7-1.5,18.1-2.4,32-1.7c14.9,0.6,28.7,3.2,42.7,5.4c9.8,1.6,19.5,3.4,29.4,4.8
	c10.1,1.5,20.5,2.6,30.9,3.9c1.6,0.2,3.4,0.2,5.1,0.4c-2.5,0-4.9,0.1-7.4,0c-7.2-0.4-14.4-0.7-21.6-1.3c-9.1-0.7-18.1-1.5-27-2.3
	c-15.5-1.4-31.1-1.8-46.8-1.1c-12,0.5-24.6,2.5-37.2,3.2V7.1H480.1z"/>
<path class="st0" d="M960.2,18.4c-3.3,0.1-6.6,0.3-9.9,0.4c-12.8,0.1-25.3-0.7-37.6-2.4c-21.3-2.9-41.6-7-61.7-11.5
	c-2.4-0.5-16.7-3.7-17.4-4.3c4.2,0.7,8.4,1.3,12.5,2c27,4.2,43.7,7.1,72.4,7c13.8-0.1,28.4-0.9,41.8-2.5L960.2,18.4L960.2,18.4z"/>
<path class="st0" d="M960.2,32.8c-12.1,0.3-23.7-0.7-35.4-2.3c-21.5-2.9-37.6-7.7-62.7-10.8c-0.6-0.1-1.2-0.2-1.8-0.4
	c25.1,1,49.8,4.5,74.6,4.9c9.5,0.1,16.5-0.4,25.4-1.4L960.2,32.8L960.2,32.8z"/>
<path class="st0" d="M480.1,22.8c15.1-1.9,25.1-2.7,37.5-3.8c13.7-1.1,27.5-1.4,41.2-0.2c0.4,0,0.7,0.1,0.3,0.1
	c-6.2,0.5-12.6,0.9-18.7,1.7c-5.4,0.7-10.8,1.9-15.8,3.1c-7.1,1.7-14,3.8-21.1,5.5c-7.4,1.8-12.7,3.3-23.3,3.6L480.1,22.8
	L480.1,22.8z"/>
<path class="st0" d="M960.2,41c-14.1-1.4-38.7-4.6-56.7-10.8c20.5,4.2,33.4,6.2,56.7,6.2V41z"/>
<path class="st0" d="M673.6,39.3c6.9-1,14.1-1.8,20.9-3c11.7-2,22.5-4.9,33-8.1c21.3-6.6,35.2-12.3,60.1-15.6
	c15.3-2,30.9-2.2,46.5-1.6c15.9,0.6,31.5,2.1,46.8,4.3c3.6,0.5,7,1,10.5,1.6c0,0.1-0.1,0.1-0.1,0.2c-13.8-1.1-26.5-1.7-40.6-1.4
	c-10,0.3-19.7,1.1-29.4,2.3c-16.4,2-35.9,6.7-51.8,10c-20,4.2-33.4,7.3-55.5,9.3C709.1,37.6,675.5,39.1,673.6,39.3z"/>
<path class="st0" d="M530.1,26c2.9-0.4,5.9-0.8,8.8-1.3c15.8-2.3,31.9-2.2,48.1-1.5c8.4,0.4,16.8,1,25.2,1.7
	c11.4,1,22.6,2.4,33.9,3.3c9,0.8,18.1,0.8,27.2,0.6c13.4-0.3,26.6-1.3,39.6-3.1c3.4-0.5,6.8-1.1,10.1-1.6c0.7-0.1,1.3-0.2,2.1-0.1
	c-5.5,1.3-10.9,2.6-16.5,3.8c-12.7,2.5-25.5,4.9-38.4,7.1c-9.3,1.6-19.1,2.5-29,2.9c-17.5,0.8-33.9-1.3-49.3-5.4
	c-10.3-2.8-21.1-5-32.7-5.8c-9.1-0.7-18.2-0.8-27.4-0.5C531.3,26.1,530.7,26.1,530.1,26L530.1,26z"/>
<path class="st0" d="M634.2,20.8c4.5,0,9.2,0,13.7,0c15.2,0,29.7-1.5,43.6-4.7c10.9-2.5,22.1-4.8,33.3-6.9
	c5.6-1.1,11.6-1.7,17.4-2.2c7.2-0.7,14.5-1.2,21.9-1.6c12.6-0.7,25.4-0.9,38.2-0.6c4.3,0.1,28,0.7,30.2,1.4c-2.3,0-4.6,0-7,0
	C813,6.3,800.7,7,788.4,8.3c-13,1.4-25.4,3.6-37.9,5.9c-13.4,2.5-26.9,5.2-40.5,7.6c-12.5,2.2-25.5,2.8-38.7,2.6
	c-11.7-0.2-22.9-1.5-34-3c-1.1-0.1-2.1-0.3-3.3-0.4C634.2,21,634.2,20.9,634.2,20.8z"/>
<path class="st0" d="M960.1,36.4c7.7,0,15.2-0.9,22.5-2.2c7.5-1.3,14.6-3,22.4-3.8c8.7-0.8,17.4-0.8,26.2-0.2
	c13.7,1,26.1,3.8,38.4,6.7c9.3,2.2,19.2,3.8,29.6,4.2c0.3,0,0.4,0,0.7,0.2c-3,0.2-6,0.4-9.1,0.5c-9.3,0.4-18.4,0.1-27.6-0.5
	c-16.9-1.1-33.8-1.5-50.8-0.9c-6.9,0.2-13.8,0.8-20.6,1.2c-10.6,0.7-23.8,0.5-31.8-0.4L960.1,36.4L960.1,36.4z"/>
<path class="st0" d="M960.1,7.1c12.7-1.5,18.1-2.4,32-1.7c14.9,0.6,28.7,3.2,42.7,5.4c9.8,1.6,19.5,3.4,29.3,4.8
	c10.1,1.5,20.6,2.6,30.9,3.9c1.6,0.2,3.4,0.2,5.1,0.4c-2.5,0-4.9,0.1-7.4,0c-7.2-0.4-14.4-0.7-21.6-1.3c-9.1-0.7-18.1-1.5-27-2.3
	c-15.5-1.4-31.1-1.8-46.8-1.1c-12,0.5-24.6,2.5-37.2,3.2V7.1z"/>
<path class="st0" d="M1440.2,18.4c-3.3,0.1-6.6,0.3-9.9,0.4c-12.8,0.1-25.3-0.7-37.6-2.4c-21.3-2.9-41.6-7-61.7-11.5
	c-2.4-0.5-16.7-3.7-17.4-4.3c4.2,0.7,8.4,1.3,12.5,2c27,4.2,43.7,7.1,72.4,7c13.8-0.1,28.4-0.9,41.8-2.5L1440.2,18.4L1440.2,18.4z"
	/>
<path class="st0" d="M1440.2,32.8c-12.1,0.3-23.7-0.7-35.4-2.3c-21.5-2.9-37.6-7.7-62.7-10.8c-0.6-0.1-1.2-0.2-1.8-0.4
	c25.1,1,49.8,4.5,74.6,4.9c9.5,0.1,16.4-0.4,25.3-1.4V32.8L1440.2,32.8z"/>
<path class="st0" d="M960.1,22.8c15.1-1.9,25.1-2.7,37.5-3.8c13.7-1.1,27.5-1.4,41.2-0.2c0.4,0,0.7,0.1,0.3,0.1
	c-6.2,0.5-12.6,0.9-18.7,1.7c-5.4,0.7-10.8,1.9-15.8,3.1c-7.1,1.7-14,3.8-21.1,5.5c-7.4,1.8-12.7,3.3-23.3,3.6L960.1,22.8
	L960.1,22.8z"/>
<path class="st0" d="M1440.2,41c-14.1-1.4-38.7-4.6-56.7-10.8c20.5,4.2,33.4,6.2,56.7,6.2V41z"/>
<path class="st0" d="M1153.6,39.3c6.9-1,14.1-1.8,20.9-3c11.7-2,22.5-4.9,33-8.1c21.3-6.6,35.2-12.3,60.1-15.6
	c15.3-2,30.9-2.2,46.5-1.6c15.9,0.6,31.5,2.1,46.8,4.3c3.6,0.5,7,1,10.5,1.6c0,0.1-0.1,0.1-0.1,0.2c-13.8-1.1-26.5-1.7-40.6-1.4
	c-10,0.3-19.8,1.1-29.4,2.3c-16.4,2-35.9,6.7-51.8,10c-20,4.2-33.4,7.3-55.5,9.3C1189.1,37.6,1155.5,39.1,1153.6,39.3z"/>
<path class="st0" d="M1010.1,26c2.9-0.4,5.9-0.8,8.8-1.3c15.8-2.3,31.9-2.2,48.1-1.5c8.5,0.4,16.8,1,25.2,1.7
	c11.4,1,22.6,2.4,33.9,3.3c9,0.8,18.1,0.8,27.2,0.6c13.4-0.3,26.6-1.3,39.6-3.1c3.4-0.5,6.8-1.1,10.1-1.6c0.7-0.1,1.3-0.2,2.1-0.1
	c-5.5,1.3-10.9,2.6-16.5,3.8c-12.7,2.5-25.5,4.9-38.4,7.1c-9.3,1.6-19.1,2.5-29,2.9c-17.5,0.8-33.9-1.3-49.3-5.4
	c-10.3-2.8-21.1-5-32.7-5.8c-9.1-0.7-18.2-0.8-27.4-0.5C1011.3,26.1,1010.7,26.1,1010.1,26L1010.1,26z"/>
<path class="st0" d="M1114.2,20.8c4.5,0,9.2,0,13.7,0c15.2,0,29.7-1.5,43.6-4.7c10.9-2.5,22.1-4.8,33.3-6.9
	c5.6-1.1,11.6-1.7,17.4-2.2c7.2-0.7,14.5-1.2,21.9-1.6c12.6-0.7,25.4-0.9,38.2-0.6c4.3,0.1,28,0.7,30.3,1.4c-2.3,0-4.6,0-7,0
	c-12.5,0.1-24.8,0.8-37.1,2.1c-13,1.4-25.4,3.6-37.9,5.9c-13.4,2.5-26.9,5.2-40.5,7.6c-12.4,2.2-25.5,2.8-38.7,2.6
	c-11.7-0.2-22.9-1.5-34-3c-1.1-0.1-2.1-0.3-3.3-0.4C1114.2,21,1114.2,20.9,1114.2,20.8z"/>
</svg>
