<svg width="1442" height="101" viewBox="0 0 1442 101" fill="none" xmlns="http://www.w3.org/2000/svg">
<path fill-rule="evenodd" clip-rule="evenodd" d="M361.5 51.159V37.661C353.613 37.0309 346.314 35.4722 339.133 33.7808C331.54 31.9899 323.947 30.0663 315.883 29.0051C302.521 27.2473 289.1 27.579 275.739 28.7397C267.498 29.4694 259.375 30.4975 251.193 31.3597C244.13 32.1225 237.125 32.819 230.062 33.5486C230.886 33.6481 231.769 33.6481 232.593 33.6481C241.893 33.4823 251.193 33.7808 260.435 34.5767C274.208 35.7375 286.981 38.4238 299.284 42.1051C313.764 46.4496 328.832 50.0314 345.431 50.9932C350.729 51.2585 356.026 51.4906 361.5 51.159Z" fill="#003B66"/>
<path fill-rule="evenodd" clip-rule="evenodd" d="M349.904 64.193C338.721 64.193 327.89 63.0654 317.118 61.6725C309.348 60.6776 301.638 59.4836 293.809 58.6877C279.447 57.1953 264.849 56.8636 250.31 57.4274C238.95 57.8586 228.001 59.2846 217.701 62.1036C206.105 65.2874 193.979 67.7085 181.559 69.5325C178.263 70.03 174.908 70.4943 171.612 70.9917C172.377 71.1244 173.083 71.1244 173.79 71.0581C180.677 70.4943 187.504 69.8641 194.391 69.3667C203.927 68.6702 213.404 67.8411 222.998 67.4431C235.183 66.9457 247.249 68.0069 259.198 69.3335C273.737 70.9586 288.335 71.2571 302.991 69.6983C315.411 68.3386 327.831 66.9457 340.251 65.5196C343.429 65.1216 346.608 64.6241 349.904 64.193Z" fill="#003B66"/>
<path fill-rule="evenodd" clip-rule="evenodd" d="M277.033 16.9328C276.444 16.966 275.856 16.966 275.267 17.0323C266.32 18.1268 257.314 19.1549 248.367 20.3156C238.596 21.5759 228.943 23.2673 219.113 24.1959C199.276 26.0863 180.087 24.3949 161.781 19.6855C148.832 16.3359 136 12.8204 123.05 9.47082C108.217 5.62373 92.913 2.73841 76.3728 2.30727C68.4265 2.10829 60.4801 2.27411 52.2983 2.90424C52.7104 2.97057 52.8281 3.00373 52.9458 3.00373C54.2996 3.00373 55.5946 3.00373 56.9484 2.97057C67.1904 2.77158 77.0203 3.83284 86.4382 6.08803C95.8561 8.34323 104.685 11.2617 113.22 14.4123C123.874 18.3589 134.469 22.3055 145.889 25.5888C168.492 32.0891 191.919 33.8468 216.523 30.1987C226 28.7726 234.652 26.2521 243.423 23.9306C254.253 21.0784 265.143 18.2926 277.033 16.9328Z" fill="#003B66"/>
<path fill-rule="evenodd" clip-rule="evenodd" d="M7.79883 70.9251C8.79948 70.9915 9.85899 71.0578 10.8596 71.1241C25.8105 72.3512 40.3494 74.5732 54.4762 77.3922C73.1943 81.1066 91.6769 85.2191 110.277 89.1656C123.58 91.9846 137.295 93.7755 151.598 93.9413C167.668 94.1403 183.443 92.9796 198.864 90.5586C203.279 89.8621 207.576 89.0661 211.99 88.3365C211.637 88.1375 211.343 88.1044 211.049 88.1375C204.044 88.635 197.04 89.1325 190.035 89.6299C178.204 90.4259 166.431 90.2601 154.659 89.033C140.473 87.5737 126.876 84.9869 113.456 82.0684C90.2054 76.9611 66.7195 72.4839 41.6444 71.2568C30.284 70.6598 19.0414 70.1292 7.79883 70.9251Z" fill="#003B66"/>
<path fill-rule="evenodd" clip-rule="evenodd" d="M12.3311 9.10625C12.3899 9.17258 12.3899 9.27207 12.4488 9.3384C14.5089 9.17258 16.628 8.97359 18.6881 8.80777C27.7529 8.04498 36.8176 7.7465 46 8.40979C59.7148 9.37157 72.2524 12.2237 84.0836 16.104C94.2667 19.4204 104.391 22.8364 114.751 25.987C138.766 33.3164 164.665 35.4058 189.446 34.3113C184.855 33.9797 178.086 33.6812 171.493 32.9516C156.307 31.2602 142.651 27.4463 129.643 22.8364C117.223 18.4255 104.803 14.0478 92.1477 9.80271C81.5526 6.22093 69.9568 4.52954 57.5958 4.36372C46.5298 4.19789 35.8169 5.1265 25.2218 6.81789C20.866 7.51435 16.628 8.34346 12.3311 9.10625Z" fill="#003B66"/>
<path fill-rule="evenodd" clip-rule="evenodd" d="M34.2861 58.4223C35.0513 58.3228 35.8165 58.2233 36.5229 58.1238C52.8865 55.7359 68.9557 55.9681 84.9073 59.4835C98.2689 62.4352 111.866 65.0552 125.463 67.7415C141.061 70.8258 156.895 71.4559 173.082 69.0681C184.796 67.3435 196.038 64.8894 207.163 62.203C209.341 61.6724 211.578 61.1749 213.756 60.6443C210.283 60.9759 206.869 61.4734 203.455 61.8382C195.214 62.6673 186.974 63.6954 178.615 64.1266C168.079 64.6572 157.602 63.9276 147.301 62.6342C138.118 61.4734 128.995 60.1137 119.93 58.6876C107.805 56.764 95.4436 55.5369 83.0826 54.3099C73.9001 53.4144 64.8354 53.1159 55.7118 54.1772C48.1775 55.0063 41.0552 56.4324 34.2861 58.4223Z" fill="#003B66"/>
<path fill-rule="evenodd" clip-rule="evenodd" d="M58.4204 40.6457L58.6559 41.0106C69.8396 39.6508 80.9645 39.883 91.7362 41.906C98.0933 43.0999 104.215 44.6587 110.278 46.2174C122.58 49.4012 135.059 52.1207 148.773 52.585C157.367 52.8835 165.902 52.8835 174.378 51.7227C181.913 50.6946 189.153 49.2022 196.216 47.4445C203.75 45.5541 211.285 43.6306 219.172 41.6407C218.466 41.6738 218.171 41.6738 217.877 41.707C210.873 42.5693 203.809 43.4316 196.805 44.2607C179.911 46.2837 162.959 46.4495 146.066 44.327C136.53 43.1331 127.171 41.508 117.694 40.1483C103.391 38.0921 88.9697 36.8981 74.3131 38.4569C69.0155 38.9875 63.718 39.883 58.4204 40.6457Z" fill="#003B66"/>
<path fill-rule="evenodd" clip-rule="evenodd" d="M262.906 41.6406C262.965 41.5743 262.965 41.5079 263.024 41.4416C261.375 40.9773 259.727 40.4135 258.02 40.0155C253.252 38.8879 248.485 37.6608 243.54 36.7654C230.414 34.4439 216.935 34.6097 203.455 35.2067C195.803 35.5383 188.151 36.0358 180.499 36.3011C163.959 36.8981 148.125 34.875 132.645 31.9565C118.694 29.3034 105.862 25.2241 93.1483 21.0786C92.6774 20.9127 92.1477 20.7801 91.6768 20.6143C91.7945 20.8464 91.9711 20.9791 92.2065 21.0786C99.9763 24.2955 107.746 27.5788 115.575 30.7626C120.578 32.7857 125.64 34.8087 130.996 36.4669C138.295 38.7553 146.418 39.9492 154.482 41.1763C169.728 43.4978 185.09 43.8295 200.63 42.0386C210.224 40.9441 219.819 39.9492 229.472 39.1201C237.772 38.4236 246.13 38.6226 254.253 40.0155C257.255 40.513 260.08 41.0768 262.906 41.6406Z" fill="#003B66"/>
<path fill-rule="evenodd" clip-rule="evenodd" d="M323.77 18.7238C323.829 18.6907 323.887 18.6575 323.946 18.6575C318.237 17.2978 312.586 15.8385 306.759 14.6114C295.281 12.1573 283.449 10.5654 271.147 10.2669C262.612 10.0679 254.313 11.0628 246.131 12.3562C234.064 14.2135 222.115 16.2697 210.049 18.0274C196.687 19.9509 183.149 20.2162 169.611 18.757C166.02 18.3922 162.547 17.8616 158.721 17.3641C159.31 17.5299 159.722 17.6626 160.075 17.7621C180.382 23.4664 201.69 24.6603 223.822 22.5046C235.83 21.3438 247.544 19.5861 259.081 17.5299C273.855 14.9099 288.806 14.114 303.992 15.9048C310.585 16.6676 317.177 17.7621 323.77 18.7238Z" fill="#003B66"/>
<path fill-rule="evenodd" clip-rule="evenodd" d="M353.376 35.0079C353.376 34.9416 353.435 34.8421 353.435 34.7758C348.962 33.5487 344.488 32.3879 340.074 31.1277C328.596 27.8775 317.176 24.4948 305.639 21.311C296.692 18.8568 287.157 17.9613 277.268 18.492C269.91 18.8899 263.024 20.316 256.313 21.9079C240.656 25.6555 225.764 30.4975 209.4 33.3497C210.46 33.3165 211.461 33.2502 212.461 33.217C224.351 32.6201 236.124 31.7246 247.719 30.1991C261.493 28.375 275.09 26.2193 289.335 25.954C298.812 25.755 308.229 25.8877 317.294 27.6454C326.065 29.3368 334.717 31.2935 343.429 33.0844C346.784 33.7808 350.08 34.3778 353.376 35.0079Z" fill="#003B66"/>
<path fill-rule="evenodd" clip-rule="evenodd" d="M174.555 54.3761C174.555 54.2766 174.496 54.2102 174.496 54.1107C170.258 54.2434 165.961 54.4424 161.723 54.4424C155.189 54.4424 148.656 54.5087 142.181 54.2102C131.88 53.7128 122.168 51.8224 112.691 49.534C104.98 47.6768 97.3282 45.7533 89.4995 44.0287C77.3151 41.3424 64.9542 41.3424 52.652 43.8961C46.8836 45.09 41.1151 46.3171 35.3467 47.5442C34.9346 47.6437 34.5815 47.7763 34.1694 47.8758C38.0543 47.71 41.9392 47.4447 45.7652 47.4115C55.7129 47.3452 65.6017 48.0085 75.1373 49.5672C90.0882 52.0214 105.157 54.1439 120.637 55.4705C134.058 56.6312 147.478 57.3609 161.017 55.968C165.49 55.4705 170.023 54.9067 174.555 54.3761Z" fill="#003B66"/>
<path fill-rule="evenodd" clip-rule="evenodd" d="M354.377 52.817C354.377 52.7506 354.377 52.6843 354.377 52.618C351.669 52.4853 348.962 52.419 346.254 52.22C331.126 51.0924 316.646 48.7045 302.932 44.8243C287.981 40.6124 272.677 36.9311 255.901 35.8035C251.133 35.4719 246.365 35.1402 241.715 34.8086C246.777 35.7704 252.134 36.5 256.961 37.8266C263.2 39.518 269.145 41.5742 275.09 43.5972C294.809 50.3628 315.94 54.1767 339.249 53.4471C344.311 53.2813 349.315 53.0159 354.377 52.817Z" fill="#003B66"/>
<path fill-rule="evenodd" clip-rule="evenodd" d="M61.7166 58.6211C66.8376 59.2181 72.0174 59.7155 77.0795 60.4451C89.3816 62.2029 101.036 65.055 112.926 67.5424C120.932 69.2006 128.937 70.8257 137.119 72.1522C144.064 73.2798 151.304 73.2798 158.544 73.0808C174.672 72.6497 190.683 71.5884 206.693 70.3614C222.704 69.1343 238.361 70.0629 253.842 72.6165C274.208 75.9662 294.692 79.2495 315.117 82.5327C315.646 82.6322 316.117 82.6986 316.588 82.9639C314.234 82.7981 311.938 82.6654 309.584 82.4996C291.807 81.2393 274.031 81.0403 256.196 81.7368C244.6 82.2011 233.181 83.3287 221.821 84.6221C208.283 86.1808 194.627 87.2421 180.853 87.5738C169.846 87.8391 159.486 86.1477 149.244 84.0252C135.765 81.2393 123.463 77.1933 111.278 73.0145C99.8002 69.0679 88.3221 65.055 75.9611 61.9707C71.311 60.81 66.4255 59.8813 61.6577 58.8201C61.7166 58.7538 61.7166 58.6874 61.7166 58.6211Z" fill="#003B66"/>
<path fill-rule="evenodd" clip-rule="evenodd" d="M0.5 23.4V12.0577C6.09187 11.4939 11.6249 10.8637 17.2168 10.3C29.8132 9.07286 42.2919 9.27185 54.6529 11.0296C66.8961 12.7541 77.5501 16.2364 87.5566 20.4483C94.9732 23.5658 102.037 26.9486 109.394 30.066C121.932 35.4055 135.411 39.8496 150.539 42.5359C150.774 42.5691 151.01 42.6686 151.245 42.7681C141.474 41.541 131.88 39.9491 122.579 37.8597C109.689 34.9744 97.6809 31.0941 85.4376 27.446C77.9622 25.224 70.3101 23.201 61.8929 22.3055C54.3586 21.5427 46.8242 21.5759 39.2899 22.0734C28.8714 22.8362 12.5078 24.7265 0.5 23.4Z" fill="#003B66"/>
<path fill-rule="evenodd" clip-rule="evenodd" d="M292.514 2.30751C278.387 1.67739 264.849 3.00397 251.841 5.52448C244.777 6.88422 238.185 8.97359 231.474 10.7976C219.29 14.1141 206.635 16.6014 193.214 17.8285C182.148 18.8235 171.435 18.0275 160.84 16.1371C147.949 13.8156 135.53 10.7645 123.11 7.7465C120.225 7.05005 117.341 6.41992 114.457 5.62397C118.283 5.98878 122.109 6.41992 125.994 6.75157C153.129 9.20574 173.437 12.688 200.807 8.01182C231.827 2.77182 257.491 -2.50135 290.513 1.97587C290.925 2.0422 291.337 2.10853 291.749 2.17486C291.925 2.17486 292.161 2.24119 292.514 2.30751Z" fill="#003B66"/>
<path fill-rule="evenodd" clip-rule="evenodd" d="M285.391 55.9016C279.682 55.9016 273.384 56.0674 267.144 55.8684C251.31 55.3378 235.771 56.0674 220.349 58.0573C209.342 59.4834 198.217 60.611 187.151 61.7386C178.498 62.6008 169.787 62.3355 161.134 61.8712C151.187 61.3406 141.415 60.3457 131.939 58.4221C131.35 58.2895 130.703 58.1568 130.173 57.8915C133.528 58.0905 136.942 58.2231 140.297 58.5216C152.423 59.5165 164.195 58.6211 175.673 56.4322C186.209 54.4092 196.628 52.1208 206.988 49.7993C214.934 48.0084 223.057 47.113 231.592 47.4778C238.714 47.7763 245.424 48.9702 252.135 50.2636C261.317 52.0213 270.617 53.6796 279.858 55.3046C281.86 55.6031 283.92 55.7358 285.391 55.9016Z" fill="#003B66"/>
<path fill-rule="evenodd" clip-rule="evenodd" d="M0.5 64.9884C10.3299 63.6949 20.9839 62.0699 30.9316 61.0418C40.9381 59.9805 51.1212 59.5494 61.1277 61.1744C72.0171 62.9653 82.3768 65.4195 91.9124 68.9349C101.036 72.2846 110.277 75.5347 119.519 78.7517C127.583 81.5706 136.235 83.66 145.006 85.5836C145.418 85.6831 145.889 85.7826 146.183 86.081C142.004 85.3846 137.766 84.8539 133.763 83.9917C123.109 81.7696 112.573 79.415 101.978 77.0934C88.3807 74.1086 74.5482 71.5549 60.1859 70.162C49.2376 69.1008 38.1127 68.736 26.929 68.7691C19.1592 68.8023 8.32862 69.0013 0.5 69.1671V64.9884H0.5Z" fill="#003B66"/>
<path fill-rule="evenodd" clip-rule="evenodd" d="M361.499 87.0097C338.249 85.1525 324.357 82.2671 304.697 79.0502C287.804 76.2975 271.028 73.4454 254.135 70.6595C253.37 70.5269 252.664 70.3611 252.016 70.1289C257.078 70.6927 262.14 71.2897 267.261 71.8203C276.444 72.7821 285.744 72.9479 295.103 72.6494C310.76 72.1519 326.359 71.3892 342.016 71.9861C348.491 72.2183 354.907 72.4836 361.499 72.7157V87.0097Z" fill="#003B66"/>
<path fill-rule="evenodd" clip-rule="evenodd" d="M218.878 15.3412C222.998 14.3131 227.119 13.3181 231.239 12.29C241.304 9.80269 251.311 7.28218 262.024 5.72344C279.682 3.13661 296.988 3.83306 314.057 7.21585C320.297 8.44294 326.595 9.73636 332.952 10.7313C342.193 12.1574 351.67 12.8538 361.441 12.0579V23.4002C355.967 22.6705 350.552 22.0736 345.313 21.2776C335.601 19.8184 326.477 17.4969 317.354 15.1422C306.288 12.29 294.81 10.068 282.684 9.17256C269.852 8.24395 257.197 8.84091 244.836 10.8971C236.713 12.2237 228.708 13.7493 220.644 15.1753C220.055 15.2748 219.525 15.3743 218.937 15.4738L218.878 15.3412Z" fill="#003B66"/>
<path fill-rule="evenodd" clip-rule="evenodd" d="M0.5 37.661C14.7446 38.5896 24.8099 37.8268 38.407 35.3727C49.1199 33.4159 60.0682 32.3215 71.3696 32.4542C81.6705 32.5537 91.3827 34.0461 100.859 36.2681C101.036 36.3013 101.154 36.4008 101.095 36.3676C97.3277 36.1686 93.4428 35.8038 89.4402 35.7706C76.6083 35.6711 64.7182 37.8268 53.2402 40.9111C44.9995 43.1 36.8177 45.3884 28.5182 47.4446C19.9244 49.5008 12.1546 50.3299 0.5 51.159V37.661Z" fill="#003B66"/>
<path fill-rule="evenodd" clip-rule="evenodd" d="M112.219 36.9644C108.923 36.2348 105.686 35.472 102.39 34.7424C96.9743 33.5816 91.5001 32.4872 86.1437 31.2933C76.196 29.1376 66.1895 29.0049 55.8887 30.431C40.7024 32.5535 15.5095 36.9976 0.558594 34.5102V26.0864C14.5088 27.5788 22.0432 25.4895 32.6383 24.594C51.3563 23.0353 69.2503 24.5609 86.2614 29.1376C94.9729 31.4923 103.449 34.1123 112.043 36.6328C112.161 36.6659 112.278 36.7654 112.396 36.8318C112.278 36.8981 112.278 36.9313 112.219 36.9644Z" fill="#003B66"/>
<path fill-rule="evenodd" clip-rule="evenodd" d="M85.1433 86.8439C80.9053 86.4128 76.6672 85.9153 72.3703 85.5173C58.8321 84.2903 45.235 83.9918 31.579 85.252C22.0434 86.1475 10.3888 87.8389 0.5 87.0098V72.7158C24.8099 73.9429 40.4083 76.8946 63.1878 81.8361C70.1924 83.3616 77.1381 84.9204 84.0838 86.4459C84.437 86.5454 84.849 86.6449 85.2022 86.7113C85.2022 86.7444 85.1433 86.7776 85.1433 86.8439Z" fill="#003B66"/>
<path fill-rule="evenodd" clip-rule="evenodd" d="M329.597 55.0387C311.232 55.9341 292.926 56.0668 275.091 53.2146C269.381 52.3192 263.966 50.7604 258.492 49.467C253.606 48.3394 248.721 47.0792 243.776 46.0511C234.77 44.1607 225.588 44.0944 216.405 45.7858C210.402 46.9133 204.398 48.1073 198.453 49.268C197.923 49.3675 197.334 49.5002 196.628 49.467C197.04 49.3344 197.393 49.1685 197.805 49.069C204.574 47.1455 211.226 45.1888 218.054 43.3316C230.65 39.9156 243.717 40.0151 256.726 42.403C262.847 43.5306 268.793 45.023 274.502 46.6812C288.806 50.7604 303.756 53.6126 319.708 54.6739C322.945 54.906 326.3 54.906 329.597 55.0387Z" fill="#003B66"/>
<path fill-rule="evenodd" clip-rule="evenodd" d="M0.5 54.0442C31.579 51.5569 42.2919 46.0184 77.0792 51.8222C77.2558 51.8553 77.3736 51.8885 77.9033 52.0212C71.9583 52.0212 66.3075 51.7558 60.7745 52.0875C36.7 53.3809 19.9244 61.9705 0.5 62.3353V54.0442Z" fill="#003B66"/>
<path fill-rule="evenodd" clip-rule="evenodd" d="M361.499 54.0439V62.3682C355.613 62.4014 348.55 62.6004 342.722 62.4014C326.535 61.8376 311.055 59.2508 295.456 56.9293C295.398 56.9293 295.398 56.8629 295.28 56.7634C306.464 57.4931 317.588 57.4267 328.654 56.6308C339.544 55.868 350.257 54.9062 361.499 54.0439Z" fill="#003B66"/>
<path fill-rule="evenodd" clip-rule="evenodd" d="M227 86.3793C262.376 82.4659 297.752 81.3052 333.01 86.2135C320.767 85.716 310.289 86.7773 297.987 87.1089C287.392 87.4074 276.797 88.1039 266.143 87.8054C253.311 87.4406 248.308 86.0809 228.589 86.3793C228.06 86.3793 227.53 86.3793 227 86.3793Z" fill="#003B66"/>
<path fill-rule="evenodd" clip-rule="evenodd" d="M295.398 17.1321C302.049 17.8617 308.818 18.3923 315.411 19.3541C325.358 20.8133 335.07 22.6374 344.959 24.1298C350.374 24.9589 355.849 25.4564 361.44 26.1197V34.5435C350.257 32.3215 340.133 28.9387 329.773 25.6885C319.649 22.4716 309.348 19.4868 298.046 17.8617C297.105 17.729 296.222 17.5964 295.28 17.4637C295.339 17.3311 295.398 17.2316 295.398 17.1321Z" fill="#003B66"/>
<path fill-rule="evenodd" clip-rule="evenodd" d="M310.231 4.69531C317.648 5.4581 326.301 6.58569 335.012 7.18265C343.783 7.77962 352.494 7.18265 361.5 6.35354V9.83582C354.025 10.9634 345.195 10.9303 337.897 9.76949C331.481 8.74139 325.241 7.34848 318.884 6.18772C315.588 5.55759 312.292 5.06012 310.231 4.69531Z" fill="#003B66"/>
<path fill-rule="evenodd" clip-rule="evenodd" d="M361.499 64.9883V69.2001C347.961 69.4322 334.541 69.6644 321.945 69.8634C334.482 68.3047 347.843 66.6465 361.499 64.9883Z" fill="#003B66"/>
<path fill-rule="evenodd" clip-rule="evenodd" d="M0.5 9.86861V6.35325C12.6253 5.05986 24.7505 4.06495 37.1701 3.86597C24.4562 4.92721 12.8607 7.94511 0.5 9.86861Z" fill="#003B66"/>
<path fill-rule="evenodd" clip-rule="evenodd" d="M0.5 100.806V88.8669C15.0977 90.3593 29.4012 86.4127 45.7059 86.2469C59.2441 86.1142 78.7274 86.678 90.6175 88.6347C107.923 91.4869 125.11 94.1069 144.77 95.1682C174.319 96.7601 198.276 92.2828 223.057 89.298C238.596 87.4077 257.373 89.6628 273.678 89.6297C298.047 89.5965 321.532 85.5836 344.665 87.4077C350.434 87.872 353.259 88.0046 361.441 88.8669V100.806H0.5Z" fill="#003B66"/>
<path fill-rule="evenodd" clip-rule="evenodd" d="M721.625 51.1585V37.6605C713.738 37.0304 706.439 35.4717 699.258 33.7803C691.665 31.9894 684.072 30.0658 676.008 29.0046C662.646 27.2469 649.225 27.5785 635.864 28.7393C627.623 29.4689 619.5 30.497 611.318 31.3593C604.255 32.122 597.25 32.8185 590.187 33.5481C591.011 33.6476 591.894 33.6476 592.718 33.6476C602.018 33.4818 611.318 33.7803 620.56 34.5762C634.333 35.737 647.106 38.4233 659.409 42.1046C673.889 46.4491 688.957 50.0309 705.556 50.9927C710.854 51.258 716.151 51.4901 721.625 51.1585Z" fill="#003B66"/>
<path fill-rule="evenodd" clip-rule="evenodd" d="M710.029 64.1925C698.846 64.1925 688.015 63.0649 677.243 61.672C669.473 60.6771 661.763 59.4832 653.934 58.6872C639.572 57.1948 624.974 56.8631 610.435 57.4269C599.075 57.8581 588.126 59.2842 577.826 62.1031C566.23 65.2869 554.104 67.708 541.684 69.532C538.388 70.0295 535.033 70.4938 531.737 70.9913C532.502 71.1239 533.208 71.1239 533.915 71.0576C540.802 70.4938 547.629 69.8637 554.516 69.3662C564.052 68.6697 573.529 67.8406 583.123 67.4426C595.308 66.9452 607.374 68.0064 619.323 69.333C633.862 70.9581 648.46 71.2566 663.116 69.6978C675.536 68.3381 687.956 66.9452 700.376 65.5191C703.554 65.1211 706.733 64.6237 710.029 64.1925Z" fill="#003B66"/>
<path fill-rule="evenodd" clip-rule="evenodd" d="M637.158 16.9328C636.569 16.966 635.981 16.966 635.392 17.0323C626.445 18.1268 617.439 19.1549 608.492 20.3156C598.721 21.5759 589.068 23.2673 579.238 24.1959C559.401 26.0863 540.212 24.3949 521.906 19.6855C508.957 16.3359 496.125 12.8204 483.175 9.47082C468.342 5.62373 453.038 2.73841 436.498 2.30727C428.551 2.10829 420.605 2.27411 412.423 2.90424C412.835 2.97057 412.953 3.00373 413.071 3.00373C414.425 3.00373 415.72 3.00373 417.073 2.97057C427.315 2.77158 437.145 3.83284 446.563 6.08803C455.981 8.34323 464.81 11.2617 473.345 14.4123C483.999 18.3589 494.594 22.3055 506.014 25.5888C528.617 32.0891 552.044 33.8468 576.648 30.1987C586.125 28.7726 594.777 26.2521 603.548 23.9306C614.378 21.0784 625.268 18.2926 637.158 16.9328Z" fill="#003B66"/>
<path fill-rule="evenodd" clip-rule="evenodd" d="M367.924 70.9251C368.924 70.9915 369.984 71.0578 370.985 71.1241C385.936 72.3512 400.474 74.5732 414.601 77.3922C433.319 81.1066 451.802 85.2191 470.402 89.1656C483.705 91.9846 497.42 93.7755 511.723 93.9413C527.793 94.1403 543.568 92.9796 558.989 90.5586C563.404 89.8621 567.701 89.0661 572.115 88.3365C571.762 88.1375 571.468 88.1044 571.174 88.1375C564.169 88.635 557.165 89.1325 550.16 89.6299C538.329 90.4259 526.556 90.2601 514.784 89.033C500.598 87.5737 487.001 84.9869 473.581 82.0684C450.33 76.9611 426.845 72.4839 401.769 71.2568C390.409 70.6598 379.166 70.1292 367.924 70.9251Z" fill="#003B66"/>
<path fill-rule="evenodd" clip-rule="evenodd" d="M372.456 9.10601C372.515 9.17233 372.515 9.27183 372.574 9.33816C374.634 9.17233 376.753 8.97335 378.813 8.80752C387.878 8.04474 396.943 7.74626 406.125 8.40955C419.84 9.37132 432.377 12.2235 444.209 16.1037C454.392 19.4202 464.516 22.8361 474.876 25.9868C498.891 33.3161 524.79 35.4055 549.571 34.3111C544.98 33.9794 538.211 33.681 531.618 32.9513C516.432 31.2599 502.776 27.446 489.768 22.8361C477.348 18.4252 464.928 14.0475 452.273 9.80246C441.678 6.22069 430.082 4.5293 417.721 4.36347C406.655 4.19765 395.942 5.12626 385.347 6.81765C380.991 7.51411 376.753 8.34322 372.456 9.10601Z" fill="#003B66"/>
<path fill-rule="evenodd" clip-rule="evenodd" d="M394.411 58.4223C395.176 58.3228 395.942 58.2233 396.648 58.1238C413.011 55.7359 429.081 55.9681 445.032 59.4835C458.394 62.4352 471.991 65.0552 485.588 67.7415C501.186 70.8258 517.02 71.4559 533.207 69.0681C544.921 67.3435 556.163 64.8894 567.288 62.203C569.466 61.6724 571.703 61.1749 573.881 60.6443C570.408 60.9759 566.994 61.4734 563.58 61.8382C555.339 62.6673 547.099 63.6954 538.74 64.1266C528.204 64.6572 517.727 63.9276 507.426 62.6342C498.243 61.4734 489.12 60.1137 480.055 58.6876C467.93 56.764 455.569 55.5369 443.208 54.3099C434.025 53.4144 424.96 53.1159 415.837 54.1772C408.303 55.0063 401.18 56.4324 394.411 58.4223Z" fill="#003B66"/>
<path fill-rule="evenodd" clip-rule="evenodd" d="M418.545 40.6457L418.781 41.0106C429.965 39.6508 441.089 39.883 451.861 41.906C458.218 43.0999 464.34 44.6587 470.403 46.2174C482.705 49.4012 495.184 52.1207 508.898 52.585C517.492 52.8835 526.027 52.8835 534.503 51.7227C542.038 50.6946 549.278 49.2022 556.341 47.4445C563.875 45.5541 571.41 43.6306 579.297 41.6407C578.591 41.6738 578.296 41.6738 578.002 41.707C570.998 42.5693 563.934 43.4316 556.93 44.2607C540.036 46.2837 523.084 46.4495 506.191 44.327C496.655 43.1331 487.296 41.508 477.819 40.1483C463.516 38.0921 449.095 36.8981 434.438 38.4569C429.141 38.9875 423.843 39.883 418.545 40.6457Z" fill="#003B66"/>
<path fill-rule="evenodd" clip-rule="evenodd" d="M623.031 41.6406C623.09 41.5743 623.09 41.5079 623.149 41.4416C621.5 40.9773 619.852 40.4135 618.145 40.0155C613.377 38.8879 608.61 37.6608 603.665 36.7654C590.539 34.4439 577.06 34.6097 563.58 35.2067C555.928 35.5383 548.276 36.0358 540.624 36.3011C524.084 36.8981 508.25 34.875 492.77 31.9565C478.819 29.3034 465.987 25.2241 453.273 21.0786C452.802 20.9127 452.273 20.7801 451.802 20.6143C451.919 20.8464 452.096 20.9791 452.332 21.0786C460.101 24.2955 467.871 27.5788 475.7 30.7626C480.703 32.7857 485.765 34.8087 491.121 36.4669C498.42 38.7553 506.543 39.9492 514.607 41.1763C529.853 43.4978 545.215 43.8295 560.755 42.0386C570.349 40.9441 579.944 39.9492 589.597 39.1201C597.897 38.4236 606.255 38.6226 614.378 40.0155C617.38 40.513 620.205 41.0768 623.031 41.6406Z" fill="#003B66"/>
<path fill-rule="evenodd" clip-rule="evenodd" d="M683.895 18.7238C683.954 18.6907 684.012 18.6575 684.071 18.6575C678.362 17.2978 672.711 15.8385 666.884 14.6114C655.406 12.1573 643.574 10.5654 631.272 10.2669C622.737 10.0679 614.438 11.0628 606.256 12.3562C594.189 14.2135 582.24 16.2697 570.174 18.0274C556.812 19.9509 543.274 20.2162 529.736 18.757C526.145 18.3922 522.672 17.8616 518.846 17.3641C519.435 17.5299 519.847 17.6626 520.2 17.7621C540.507 23.4664 561.815 24.6603 583.947 22.5046C595.955 21.3438 607.669 19.5861 619.206 17.5299C633.98 14.9099 648.931 14.114 664.117 15.9048C670.71 16.6676 677.302 17.7621 683.895 18.7238Z" fill="#003B66"/>
<path fill-rule="evenodd" clip-rule="evenodd" d="M713.501 35.0079C713.501 34.9416 713.56 34.8421 713.56 34.7758C709.087 33.5487 704.613 32.3879 700.199 31.1277C688.721 27.8775 677.301 24.4948 665.764 21.311C656.817 18.8568 647.282 17.9613 637.393 18.492C630.035 18.8899 623.149 20.316 616.438 21.9079C600.781 25.6555 585.889 30.4975 569.525 33.3497C570.585 33.3165 571.586 33.2502 572.586 33.217C584.476 32.6201 596.249 31.7246 607.844 30.1991C621.618 28.375 635.215 26.2193 649.46 25.954C658.937 25.755 668.354 25.8877 677.419 27.6454C686.19 29.3368 694.842 31.2935 703.554 33.0844C706.909 33.7808 710.205 34.3778 713.501 35.0079Z" fill="#003B66"/>
<path fill-rule="evenodd" clip-rule="evenodd" d="M534.68 54.3756C534.68 54.2761 534.621 54.2098 534.621 54.1103C530.383 54.2429 526.086 54.4419 521.848 54.4419C515.314 54.4419 508.781 54.5082 502.306 54.2098C492.005 53.7123 482.293 51.8219 472.816 49.5335C465.105 47.6763 457.453 45.7528 449.625 44.0282C437.44 41.3419 425.079 41.3419 412.777 43.8956C407.009 45.0895 401.24 46.3166 395.472 47.5437C395.06 47.6432 394.706 47.7758 394.294 47.8753C398.179 47.7095 402.064 47.4442 405.89 47.411C415.838 47.3447 425.727 48.008 435.262 49.5667C450.213 52.0209 465.282 54.1434 480.762 55.47C494.183 56.6308 507.603 57.3604 521.142 55.9675C525.615 55.47 530.148 54.9062 534.68 54.3756Z" fill="#003B66"/>
<path fill-rule="evenodd" clip-rule="evenodd" d="M714.502 52.817C714.502 52.7506 714.502 52.6843 714.502 52.618C711.794 52.4853 709.087 52.419 706.379 52.22C691.251 51.0924 676.771 48.7045 663.057 44.8243C648.106 40.6124 632.802 36.9311 616.026 35.8035C611.258 35.4719 606.49 35.1402 601.84 34.8086C606.902 35.7704 612.259 36.5 617.086 37.8266C623.325 39.518 629.27 41.5742 635.215 43.5972C654.934 50.3628 676.065 54.1767 699.374 53.4471C704.436 53.2813 709.44 53.0159 714.502 52.817Z" fill="#003B66"/>
<path fill-rule="evenodd" clip-rule="evenodd" d="M421.842 58.6211C426.963 59.2181 432.142 59.7155 437.205 60.4451C449.507 62.2029 461.161 65.055 473.051 67.5424C481.057 69.2006 489.062 70.8257 497.244 72.1522C504.189 73.2798 511.429 73.2798 518.669 73.0808C534.797 72.6497 550.808 71.5884 566.818 70.3614C582.829 69.1343 598.486 70.0629 613.967 72.6165C634.333 75.9662 654.817 79.2495 675.242 82.5327C675.771 82.6322 676.242 82.6986 676.713 82.9639C674.359 82.7981 672.063 82.6654 669.709 82.4996C651.932 81.2393 634.156 81.0403 616.321 81.7368C604.725 82.2011 593.306 83.3287 581.946 84.6221C568.408 86.1808 554.752 87.2421 540.978 87.5738C529.971 87.8391 519.611 86.1477 509.369 84.0252C495.89 81.2393 483.588 77.1933 471.403 73.0145C459.925 69.0679 448.447 65.055 436.086 61.9707C431.436 60.81 426.551 59.8813 421.783 58.8201C421.842 58.7538 421.842 58.6874 421.842 58.6211Z" fill="#003B66"/>
<path fill-rule="evenodd" clip-rule="evenodd" d="M360.625 23.4V12.0577C366.217 11.4939 371.75 10.8637 377.342 10.3C389.938 9.07286 402.417 9.27185 414.778 11.0296C427.021 12.7541 437.675 16.2364 447.682 20.4483C455.098 23.5658 462.162 26.9486 469.519 30.066C482.057 35.4055 495.536 39.8496 510.664 42.5359C510.899 42.5691 511.135 42.6686 511.37 42.7681C501.599 41.541 492.005 39.9491 482.704 37.8597C469.814 34.9744 457.806 31.0941 445.563 27.446C438.087 25.224 430.435 23.201 422.018 22.3055C414.484 21.5427 406.949 21.5759 399.415 22.0734C388.996 22.8362 372.633 24.7265 360.625 23.4Z" fill="#003B66"/>
<path fill-rule="evenodd" clip-rule="evenodd" d="M652.639 2.30751C638.512 1.67739 624.974 3.00397 611.966 5.52448C604.902 6.88422 598.31 8.97359 591.599 10.7976C579.415 14.1141 566.76 16.6014 553.339 17.8285C542.273 18.8235 531.56 18.0275 520.965 16.1371C508.074 13.8156 495.655 10.7645 483.235 7.7465C480.35 7.05005 477.466 6.41992 474.582 5.62397C478.408 5.98878 482.234 6.41992 486.119 6.75157C513.254 9.20574 533.562 12.688 560.932 8.01182C591.952 2.77182 617.616 -2.50135 650.638 1.97587C651.05 2.0422 651.462 2.10853 651.874 2.17486C652.05 2.17486 652.286 2.24119 652.639 2.30751Z" fill="#003B66"/>
<path fill-rule="evenodd" clip-rule="evenodd" d="M645.516 55.9016C639.807 55.9016 633.509 56.0674 627.269 55.8684C611.435 55.3378 595.896 56.0674 580.474 58.0573C569.467 59.4834 558.342 60.611 547.276 61.7386C538.623 62.6008 529.912 62.3355 521.259 61.8712C511.312 61.3406 501.54 60.3457 492.064 58.4221C491.475 58.2895 490.828 58.1568 490.298 57.8915C493.653 58.0905 497.067 58.2231 500.422 58.5216C512.548 59.5165 524.32 58.6211 535.798 56.4322C546.334 54.4092 556.753 52.1208 567.113 49.7993C575.059 48.0084 583.182 47.113 591.717 47.4778C598.839 47.7763 605.549 48.9702 612.26 50.2636C621.442 52.0213 630.742 53.6796 639.983 55.3046C641.985 55.6031 644.045 55.7358 645.516 55.9016Z" fill="#003B66"/>
<path fill-rule="evenodd" clip-rule="evenodd" d="M360.625 64.9884C370.455 63.6949 381.109 62.0699 391.057 61.0418C401.063 59.9805 411.246 59.5494 421.253 61.1744C432.142 62.9653 442.502 65.4195 452.037 68.9349C461.161 72.2846 470.402 75.5347 479.644 78.7517C487.708 81.5706 496.36 83.66 505.131 85.5836C505.543 85.6831 506.014 85.7826 506.308 86.081C502.129 85.3846 497.891 84.8539 493.888 83.9917C483.234 81.7696 472.698 79.415 462.103 77.0934C448.506 74.1086 434.673 71.5549 420.311 70.162C409.363 69.1008 398.238 68.736 387.054 68.7691C379.284 68.8023 368.454 69.0013 360.625 69.1671V64.9884V64.9884Z" fill="#003B66"/>
<path fill-rule="evenodd" clip-rule="evenodd" d="M721.624 87.0097C698.374 85.1525 684.482 82.2671 664.822 79.0502C647.929 76.2975 631.153 73.4454 614.26 70.6595C613.495 70.5269 612.789 70.3611 612.141 70.1289C617.203 70.6927 622.265 71.2897 627.386 71.8203C636.569 72.7821 645.869 72.9479 655.228 72.6494C670.885 72.1519 686.484 71.3892 702.141 71.9861C708.616 72.2183 715.032 72.4836 721.624 72.7157V87.0097Z" fill="#003B66"/>
<path fill-rule="evenodd" clip-rule="evenodd" d="M579.003 15.3412C583.123 14.3131 587.244 13.3181 591.364 12.29C601.429 9.80269 611.436 7.28218 622.149 5.72344C639.807 3.13661 657.113 3.83306 674.182 7.21585C680.422 8.44294 686.72 9.73636 693.077 10.7313C702.318 12.1574 711.795 12.8538 721.566 12.0579V23.4002C716.092 22.6705 710.677 22.0736 705.438 21.2776C695.726 19.8184 686.602 17.4969 677.479 15.1422C666.413 12.29 654.935 10.068 642.809 9.17256C629.977 8.24395 617.322 8.84091 604.961 10.8971C596.838 12.2237 588.833 13.7493 580.769 15.1753C580.18 15.2748 579.65 15.3743 579.062 15.4738L579.003 15.3412Z" fill="#003B66"/>
<path fill-rule="evenodd" clip-rule="evenodd" d="M360.625 37.661C374.87 38.5896 384.935 37.8268 398.532 35.3727C409.245 33.4159 420.193 32.3215 431.495 32.4542C441.795 32.5537 451.508 34.0461 460.984 36.2681C461.161 36.3013 461.279 36.4008 461.22 36.3676C457.453 36.1686 453.568 35.8038 449.565 35.7706C436.733 35.6711 424.843 37.8268 413.365 40.9111C405.125 43.1 396.943 45.3884 388.643 47.4446C380.049 49.5008 372.28 50.3299 360.625 51.159V37.661Z" fill="#003B66"/>
<path fill-rule="evenodd" clip-rule="evenodd" d="M472.344 36.9644C469.048 36.2348 465.811 35.472 462.515 34.7424C457.099 33.5816 451.625 32.4872 446.269 31.2933C436.321 29.1376 426.315 29.0049 416.014 30.431C400.827 32.5535 375.634 36.9976 360.684 34.5102V26.0864C374.634 27.5788 382.168 25.4895 392.763 24.594C411.481 23.0353 429.375 24.5609 446.386 29.1376C455.098 31.4923 463.574 34.1123 472.168 36.6328C472.286 36.6659 472.403 36.7654 472.521 36.8318C472.403 36.8981 472.403 36.9313 472.344 36.9644Z" fill="#003B66"/>
<path fill-rule="evenodd" clip-rule="evenodd" d="M445.268 86.8439C441.03 86.4128 436.792 85.9153 432.495 85.5173C418.957 84.2903 405.36 83.9918 391.704 85.252C382.168 86.1475 370.514 87.8389 360.625 87.0098V72.7158C384.935 73.9429 400.533 76.8946 423.313 81.8361C430.317 83.3616 437.263 84.9204 444.209 86.4459C444.562 86.5454 444.974 86.6449 445.327 86.7113C445.327 86.7444 445.268 86.7776 445.268 86.8439Z" fill="#003B66"/>
<path fill-rule="evenodd" clip-rule="evenodd" d="M689.722 55.0387C671.357 55.9341 653.051 56.0668 635.216 53.2146C629.506 52.3192 624.091 50.7604 618.617 49.467C613.731 48.3394 608.846 47.0792 603.901 46.0511C594.895 44.1607 585.713 44.0944 576.53 45.7858C570.527 46.9133 564.523 48.1073 558.578 49.268C558.048 49.3675 557.459 49.5002 556.753 49.467C557.165 49.3344 557.518 49.1685 557.93 49.069C564.699 47.1455 571.351 45.1888 578.179 43.3316C590.775 39.9156 603.842 40.0151 616.851 42.403C622.972 43.5306 628.918 45.023 634.627 46.6812C648.931 50.7604 663.881 53.6126 679.833 54.6739C683.07 54.906 686.425 54.906 689.722 55.0387Z" fill="#003B66"/>
<path fill-rule="evenodd" clip-rule="evenodd" d="M360.625 54.0442C391.704 51.5569 402.417 46.0184 437.204 51.8222C437.381 51.8553 437.499 51.8885 438.028 52.0212C432.083 52.0212 426.433 51.7558 420.9 52.0875C396.825 53.3809 380.049 61.9705 360.625 62.3353V54.0442Z" fill="#003B66"/>
<path fill-rule="evenodd" clip-rule="evenodd" d="M721.624 54.0439V62.3682C715.738 62.4014 708.675 62.6004 702.847 62.4014C686.66 61.8376 671.18 59.2508 655.581 56.9293C655.523 56.9293 655.523 56.8629 655.405 56.7634C666.589 57.4931 677.713 57.4267 688.779 56.6308C699.669 55.868 710.382 54.9062 721.624 54.0439Z" fill="#003B66"/>
<path fill-rule="evenodd" clip-rule="evenodd" d="M587.125 86.3793C622.501 82.4659 657.877 81.3052 693.135 86.2135C680.892 85.716 670.414 86.7773 658.112 87.1089C647.517 87.4074 636.922 88.1039 626.268 87.8054C613.436 87.4406 608.433 86.0809 588.714 86.3793C588.185 86.3793 587.655 86.3793 587.125 86.3793Z" fill="#003B66"/>
<path fill-rule="evenodd" clip-rule="evenodd" d="M655.523 17.1321C662.174 17.8617 668.943 18.3923 675.536 19.3541C685.483 20.8133 695.195 22.6374 705.084 24.1298C710.499 24.9589 715.974 25.4564 721.565 26.1197V34.5435C710.382 32.3215 700.258 28.9387 689.898 25.6885C679.774 22.4716 669.473 19.4868 658.171 17.8617C657.23 17.729 656.347 17.5964 655.405 17.4637C655.464 17.3311 655.523 17.2316 655.523 17.1321Z" fill="#003B66"/>
<path fill-rule="evenodd" clip-rule="evenodd" d="M670.356 4.69531C677.773 5.4581 686.426 6.58569 695.137 7.18265C703.908 7.77962 712.619 7.18265 721.625 6.35354V9.83582C714.15 10.9634 705.32 10.9303 698.022 9.76949C691.606 8.74139 685.366 7.34848 679.009 6.18772C675.713 5.55759 672.417 5.06012 670.356 4.69531Z" fill="#003B66"/>
<path fill-rule="evenodd" clip-rule="evenodd" d="M721.624 64.9883V69.2001C708.086 69.4322 694.666 69.6644 682.07 69.8634C694.607 68.3047 707.968 66.6465 721.624 64.9883Z" fill="#003B66"/>
<path fill-rule="evenodd" clip-rule="evenodd" d="M360.625 9.86886V6.3535C372.75 5.06011 384.876 4.06519 397.295 3.86621C384.581 4.92745 372.986 7.94536 360.625 9.86886Z" fill="#003B66"/>
<path fill-rule="evenodd" clip-rule="evenodd" d="M360.625 100.806V88.8669C375.223 90.3593 389.526 86.4127 405.831 86.2469C419.369 86.1142 438.852 86.678 450.742 88.6347C468.048 91.4869 485.235 94.1069 504.895 95.1682C534.444 96.7601 558.401 92.2828 583.182 89.298C598.721 87.4077 617.498 89.6628 633.803 89.6297C658.172 89.5965 681.657 85.5836 704.79 87.4077C710.559 87.872 713.384 88.0046 721.566 88.8669V100.806H360.625Z" fill="#003B66"/>
<path fill-rule="evenodd" clip-rule="evenodd" d="M1081.75 51.159V37.661C1073.86 37.0309 1066.56 35.4722 1059.38 33.7808C1051.79 31.9899 1044.2 30.0663 1036.13 29.0051C1022.77 27.2473 1009.35 27.579 995.989 28.7397C987.748 29.4694 979.625 30.4975 971.443 31.3597C964.38 32.1225 957.375 32.819 950.312 33.5486C951.136 33.6481 952.019 33.6481 952.843 33.6481C962.143 33.4823 971.443 33.7808 980.685 34.5767C994.458 35.7375 1007.23 38.4238 1019.53 42.1051C1034.01 46.4496 1049.08 50.0314 1065.68 50.9932C1070.98 51.2585 1076.28 51.4906 1081.75 51.159Z" fill="#003B66"/>
<path fill-rule="evenodd" clip-rule="evenodd" d="M1070.15 64.193C1058.97 64.193 1048.14 63.0654 1037.37 61.6725C1029.6 60.6776 1021.89 59.4836 1014.06 58.6877C999.697 57.1953 985.099 56.8636 970.56 57.4274C959.2 57.8586 948.251 59.2846 937.951 62.1036C926.355 65.2874 914.229 67.7085 901.809 69.5325C898.513 70.03 895.158 70.4943 891.862 70.9917C892.627 71.1244 893.333 71.1244 894.04 71.0581C900.927 70.4943 907.754 69.8641 914.641 69.3667C924.177 68.6702 933.654 67.8411 943.248 67.4431C955.433 66.9457 967.499 68.0069 979.448 69.3335C993.987 70.9586 1008.58 71.2571 1023.24 69.6983C1035.66 68.3386 1048.08 66.9457 1060.5 65.5196C1063.68 65.1216 1066.86 64.6241 1070.15 64.193Z" fill="#003B66"/>
<path fill-rule="evenodd" clip-rule="evenodd" d="M997.283 16.9328C996.694 16.966 996.106 16.966 995.517 17.0323C986.57 18.1268 977.564 19.1549 968.617 20.3156C958.846 21.5759 949.193 23.2673 939.363 24.1959C919.526 26.0863 900.337 24.3949 882.031 19.6855C869.082 16.3359 856.25 12.8204 843.3 9.47082C828.467 5.62373 813.163 2.73841 796.623 2.30727C788.676 2.10829 780.73 2.27411 772.548 2.90424C772.96 2.97057 773.078 3.00373 773.196 3.00373C774.55 3.00373 775.845 3.00373 777.198 2.97057C787.44 2.77158 797.27 3.83284 806.688 6.08803C816.106 8.34323 824.935 11.2617 833.47 14.4123C844.124 18.3589 854.719 22.3055 866.139 25.5888C888.742 32.0891 912.169 33.8468 936.773 30.1987C946.25 28.7726 954.902 26.2521 963.673 23.9306C974.503 21.0784 985.393 18.2926 997.283 16.9328Z" fill="#003B66"/>
<path fill-rule="evenodd" clip-rule="evenodd" d="M728.049 70.9251C729.049 70.9915 730.109 71.0578 731.11 71.1241C746.061 72.3512 760.599 74.5732 774.726 77.3922C793.444 81.1066 811.927 85.2191 830.527 89.1656C843.83 91.9846 857.545 93.7755 871.848 93.9413C887.918 94.1403 903.693 92.9796 919.114 90.5586C923.529 89.8621 927.826 89.0661 932.24 88.3365C931.887 88.1375 931.593 88.1044 931.299 88.1375C924.294 88.635 917.29 89.1325 910.285 89.6299C898.454 90.4259 886.681 90.2601 874.909 89.033C860.723 87.5737 847.126 84.9869 833.706 82.0684C810.455 76.9611 786.97 72.4839 761.894 71.2568C750.534 70.6598 739.291 70.1292 728.049 70.9251Z" fill="#003B66"/>
<path fill-rule="evenodd" clip-rule="evenodd" d="M732.581 9.10625C732.64 9.17258 732.64 9.27207 732.699 9.3384C734.759 9.17258 736.878 8.97359 738.938 8.80777C748.003 8.04498 757.068 7.7465 766.25 8.40979C779.965 9.37157 792.502 12.2237 804.334 16.104C814.517 19.4204 824.641 22.8364 835.001 25.987C859.016 33.3164 884.915 35.4058 909.696 34.3113C905.105 33.9797 898.336 33.6812 891.743 32.9516C876.557 31.2602 862.901 27.4463 849.893 22.8364C837.473 18.4255 825.053 14.0478 812.398 9.80271C801.803 6.22093 790.207 4.52954 777.846 4.36372C766.78 4.19789 756.067 5.1265 745.472 6.81789C741.116 7.51435 736.878 8.34346 732.581 9.10625Z" fill="#003B66"/>
<path fill-rule="evenodd" clip-rule="evenodd" d="M754.536 58.4223C755.301 58.3228 756.067 58.2233 756.773 58.1238C773.136 55.7359 789.206 55.9681 805.157 59.4835C818.519 62.4352 832.116 65.0552 845.713 67.7415C861.311 70.8258 877.145 71.4559 893.332 69.0681C905.046 67.3435 916.288 64.8894 927.413 62.203C929.591 61.6724 931.828 61.1749 934.006 60.6443C930.533 60.9759 927.119 61.4734 923.705 61.8382C915.464 62.6673 907.224 63.6954 898.865 64.1266C888.329 64.6572 877.852 63.9276 867.551 62.6342C858.368 61.4734 849.245 60.1137 840.18 58.6876C828.055 56.764 815.694 55.5369 803.333 54.3099C794.15 53.4144 785.085 53.1159 775.962 54.1772C768.428 55.0063 761.305 56.4324 754.536 58.4223Z" fill="#003B66"/>
<path fill-rule="evenodd" clip-rule="evenodd" d="M778.67 40.6457L778.906 41.0106C790.09 39.6508 801.214 39.883 811.986 41.906C818.343 43.0999 824.465 44.6587 830.528 46.2174C842.83 49.4012 855.309 52.1207 869.023 52.585C877.617 52.8835 886.152 52.8835 894.628 51.7227C902.163 50.6946 909.403 49.2022 916.466 47.4445C924 45.5541 931.535 43.6306 939.422 41.6407C938.716 41.6738 938.421 41.6738 938.127 41.707C931.123 42.5693 924.059 43.4316 917.055 44.2607C900.161 46.2837 883.209 46.4495 866.316 44.327C856.78 43.1331 847.421 41.508 837.944 40.1483C823.641 38.0921 809.22 36.8981 794.563 38.4569C789.266 38.9875 783.968 39.883 778.67 40.6457Z" fill="#003B66"/>
<path fill-rule="evenodd" clip-rule="evenodd" d="M983.156 41.6406C983.215 41.5743 983.215 41.5079 983.274 41.4416C981.625 40.9773 979.977 40.4135 978.27 40.0155C973.502 38.8879 968.735 37.6608 963.79 36.7654C950.664 34.4439 937.185 34.6097 923.705 35.2067C916.053 35.5383 908.401 36.0358 900.749 36.3011C884.209 36.8981 868.375 34.875 852.895 31.9565C838.944 29.3034 826.112 25.2241 813.398 21.0786C812.927 20.9127 812.398 20.7801 811.927 20.6143C812.044 20.8464 812.221 20.9791 812.457 21.0786C820.226 24.2955 827.996 27.5788 835.825 30.7626C840.828 32.7857 845.89 34.8087 851.246 36.4669C858.545 38.7553 866.668 39.9492 874.732 41.1763C889.978 43.4978 905.34 43.8295 920.88 42.0386C930.474 40.9441 940.069 39.9492 949.722 39.1201C958.022 38.4236 966.38 38.6226 974.503 40.0155C977.505 40.513 980.33 41.0768 983.156 41.6406Z" fill="#003B66"/>
<path fill-rule="evenodd" clip-rule="evenodd" d="M1044.02 18.7238C1044.08 18.6907 1044.14 18.6575 1044.2 18.6575C1038.49 17.2978 1032.84 15.8385 1027.01 14.6114C1015.53 12.1573 1003.7 10.5654 991.397 10.2669C982.862 10.0679 974.563 11.0628 966.381 12.3562C954.314 14.2135 942.365 16.2697 930.299 18.0274C916.937 19.9509 903.399 20.2162 889.861 18.757C886.27 18.3922 882.797 17.8616 878.971 17.3641C879.56 17.5299 879.972 17.6626 880.325 17.7621C900.632 23.4664 921.94 24.6603 944.072 22.5046C956.08 21.3438 967.794 19.5861 979.331 17.5299C994.105 14.9099 1009.06 14.114 1024.24 15.9048C1030.83 16.6676 1037.43 17.7621 1044.02 18.7238Z" fill="#003B66"/>
<path fill-rule="evenodd" clip-rule="evenodd" d="M1073.63 35.0079C1073.63 34.9416 1073.69 34.8421 1073.69 34.7758C1069.21 33.5487 1064.74 32.3879 1060.32 31.1277C1048.85 27.8775 1037.43 24.4948 1025.89 21.311C1016.94 18.8568 1007.41 17.9613 997.518 18.492C990.16 18.8899 983.274 20.316 976.563 21.9079C960.906 25.6555 946.014 30.4975 929.65 33.3497C930.71 33.3165 931.711 33.2502 932.711 33.217C944.601 32.6201 956.374 31.7246 967.969 30.1991C981.743 28.375 995.34 26.2193 1009.58 25.954C1019.06 25.755 1028.48 25.8877 1037.54 27.6454C1046.31 29.3368 1054.97 31.2935 1063.68 33.0844C1067.03 33.7808 1070.33 34.3778 1073.63 35.0079Z" fill="#003B66"/>
<path fill-rule="evenodd" clip-rule="evenodd" d="M894.805 54.3761C894.805 54.2766 894.746 54.2102 894.746 54.1107C890.508 54.2434 886.211 54.4424 881.973 54.4424C875.439 54.4424 868.906 54.5087 862.431 54.2102C852.13 53.7128 842.418 51.8224 832.941 49.534C825.23 47.6768 817.578 45.7533 809.75 44.0287C797.565 41.3424 785.204 41.3424 772.902 43.8961C767.134 45.09 761.365 46.3171 755.597 47.5442C755.185 47.6437 754.831 47.7763 754.419 47.8758C758.304 47.71 762.189 47.4447 766.015 47.4115C775.963 47.3452 785.852 48.0085 795.387 49.5672C810.338 52.0214 825.407 54.1439 840.887 55.4705C854.308 56.6312 867.728 57.3609 881.267 55.968C885.74 55.4705 890.273 54.9067 894.805 54.3761Z" fill="#003B66"/>
<path fill-rule="evenodd" clip-rule="evenodd" d="M1074.63 52.817C1074.63 52.7506 1074.63 52.6843 1074.63 52.618C1071.92 52.4853 1069.21 52.419 1066.5 52.22C1051.38 51.0924 1036.9 48.7045 1023.18 44.8243C1008.23 40.6124 992.927 36.9311 976.151 35.8035C971.383 35.4719 966.615 35.1402 961.965 34.8086C967.027 35.7704 972.384 36.5 977.211 37.8266C983.45 39.518 989.395 41.5742 995.34 43.5972C1015.06 50.3628 1036.19 54.1767 1059.5 53.4471C1064.56 53.2813 1069.56 53.0159 1074.63 52.817Z" fill="#003B66"/>
<path fill-rule="evenodd" clip-rule="evenodd" d="M781.967 58.6211C787.088 59.2181 792.267 59.7155 797.33 60.4451C809.632 62.2029 821.286 65.055 833.176 67.5424C841.182 69.2006 849.187 70.8257 857.369 72.1522C864.314 73.2798 871.554 73.2798 878.794 73.0808C894.922 72.6497 910.933 71.5884 926.943 70.3614C942.954 69.1343 958.611 70.0629 974.092 72.6165C994.458 75.9662 1014.94 79.2495 1035.37 82.5327C1035.9 82.6322 1036.37 82.6986 1036.84 82.9639C1034.48 82.7981 1032.19 82.6654 1029.83 82.4996C1012.06 81.2393 994.281 81.0403 976.446 81.7368C964.85 82.2011 953.431 83.3287 942.071 84.6221C928.533 86.1808 914.877 87.2421 901.103 87.5738C890.096 87.8391 879.736 86.1477 869.494 84.0252C856.015 81.2393 843.713 77.1933 831.528 73.0145C820.05 69.0679 808.572 65.055 796.211 61.9707C791.561 60.81 786.676 59.8813 781.908 58.8201C781.967 58.7538 781.967 58.6874 781.967 58.6211Z" fill="#003B66"/>
<path fill-rule="evenodd" clip-rule="evenodd" d="M720.75 23.4V12.0577C726.342 11.4939 731.875 10.8637 737.467 10.3C750.063 9.07286 762.542 9.27185 774.903 11.0296C787.146 12.7541 797.8 16.2364 807.807 20.4483C815.223 23.5658 822.287 26.9486 829.644 30.066C842.182 35.4055 855.661 39.8496 870.789 42.5359C871.024 42.5691 871.26 42.6686 871.495 42.7681C861.724 41.541 852.13 39.9491 842.829 37.8597C829.939 34.9744 817.931 31.0941 805.688 27.446C798.212 25.224 790.56 23.201 782.143 22.3055C774.609 21.5427 767.074 21.5759 759.54 22.0734C749.121 22.8362 732.758 24.7265 720.75 23.4Z" fill="#003B66"/>
<path fill-rule="evenodd" clip-rule="evenodd" d="M1012.76 2.30751C998.637 1.67739 985.099 3.00397 972.091 5.52448C965.027 6.88422 958.435 8.97359 951.724 10.7976C939.54 14.1141 926.885 16.6014 913.464 17.8285C902.398 18.8235 891.685 18.0275 881.09 16.1371C868.199 13.8156 855.78 10.7645 843.36 7.7465C840.475 7.05005 837.591 6.41992 834.707 5.62397C838.533 5.98878 842.359 6.41992 846.244 6.75157C873.379 9.20574 893.687 12.688 921.057 8.01182C952.077 2.77182 977.741 -2.50135 1010.76 1.97587C1011.17 2.0422 1011.59 2.10853 1012 2.17486C1012.18 2.17486 1012.41 2.24119 1012.76 2.30751Z" fill="#003B66"/>
<path fill-rule="evenodd" clip-rule="evenodd" d="M1005.64 55.9016C999.932 55.9016 993.634 56.0674 987.394 55.8684C971.56 55.3378 956.021 56.0674 940.599 58.0573C929.592 59.4834 918.467 60.611 907.401 61.7386C898.748 62.6008 890.037 62.3355 881.384 61.8712C871.437 61.3406 861.665 60.3457 852.189 58.4221C851.6 58.2895 850.953 58.1568 850.423 57.8915C853.778 58.0905 857.192 58.2231 860.547 58.5216C872.673 59.5165 884.445 58.6211 895.923 56.4322C906.459 54.4092 916.878 52.1208 927.238 49.7993C935.184 48.0084 943.307 47.113 951.842 47.4778C958.964 47.7763 965.674 48.9702 972.385 50.2636C981.567 52.0213 990.867 53.6796 1000.11 55.3046C1002.11 55.6031 1004.17 55.7358 1005.64 55.9016Z" fill="#003B66"/>
<path fill-rule="evenodd" clip-rule="evenodd" d="M720.75 64.9884C730.58 63.6949 741.234 62.0699 751.182 61.0418C761.188 59.9805 771.371 59.5494 781.378 61.1744C792.267 62.9653 802.627 65.4195 812.162 68.9349C821.286 72.2846 830.527 75.5347 839.769 78.7517C847.833 81.5706 856.485 83.66 865.256 85.5836C865.668 85.6831 866.139 85.7826 866.433 86.081C862.254 85.3846 858.016 84.8539 854.013 83.9917C843.359 81.7696 832.823 79.415 822.228 77.0934C808.631 74.1086 794.798 71.5549 780.436 70.162C769.488 69.1008 758.363 68.736 747.179 68.7691C739.409 68.8023 728.579 69.0013 720.75 69.1671V64.9884V64.9884Z" fill="#003B66"/>
<path fill-rule="evenodd" clip-rule="evenodd" d="M1081.75 87.0097C1058.5 85.1525 1044.61 82.2671 1024.95 79.0502C1008.05 76.2975 991.278 73.4454 974.385 70.6595C973.62 70.5269 972.914 70.3611 972.266 70.1289C977.328 70.6927 982.39 71.2897 987.511 71.8203C996.694 72.7821 1005.99 72.9479 1015.35 72.6494C1031.01 72.1519 1046.61 71.3892 1062.27 71.9861C1068.74 72.2183 1075.16 72.4836 1081.75 72.7157V87.0097Z" fill="#003B66"/>
<path fill-rule="evenodd" clip-rule="evenodd" d="M939.128 15.3412C943.248 14.3131 947.369 13.3181 951.489 12.29C961.554 9.80269 971.561 7.28218 982.274 5.72344C999.932 3.13661 1017.24 3.83306 1034.31 7.21585C1040.55 8.44294 1046.85 9.73636 1053.2 10.7313C1062.44 12.1574 1071.92 12.8538 1081.69 12.0579V23.4002C1076.22 22.6705 1070.8 22.0736 1065.56 21.2776C1055.85 19.8184 1046.73 17.4969 1037.6 15.1422C1026.54 12.29 1015.06 10.068 1002.93 9.17256C990.102 8.24395 977.447 8.84091 965.086 10.8971C956.963 12.2237 948.958 13.7493 940.894 15.1753C940.305 15.2748 939.775 15.3743 939.187 15.4738L939.128 15.3412Z" fill="#003B66"/>
<path fill-rule="evenodd" clip-rule="evenodd" d="M720.75 37.661C734.995 38.5896 745.06 37.8268 758.657 35.3727C769.37 33.4159 780.318 32.3215 791.62 32.4542C801.92 32.5537 811.633 34.0461 821.109 36.2681C821.286 36.3013 821.404 36.4008 821.345 36.3676C817.578 36.1686 813.693 35.8038 809.69 35.7706C796.858 35.6711 784.968 37.8268 773.49 40.9111C765.25 43.1 757.068 45.3884 748.768 47.4446C740.174 49.5008 732.405 50.3299 720.75 51.159V37.661Z" fill="#003B66"/>
<path fill-rule="evenodd" clip-rule="evenodd" d="M832.469 36.9644C829.173 36.2348 825.936 35.472 822.64 34.7424C817.224 33.5816 811.75 32.4872 806.394 31.2933C796.446 29.1376 786.44 29.0049 776.139 30.431C760.952 32.5535 735.759 36.9976 720.809 34.5102V26.0864C734.759 27.5788 742.293 25.4895 752.888 24.594C771.606 23.0353 789.5 24.5609 806.511 29.1376C815.223 31.4923 823.699 34.1123 832.293 36.6328C832.411 36.6659 832.528 36.7654 832.646 36.8318C832.528 36.8981 832.528 36.9313 832.469 36.9644Z" fill="#003B66"/>
<path fill-rule="evenodd" clip-rule="evenodd" d="M805.393 86.8439C801.155 86.4128 796.917 85.9153 792.62 85.5173C779.082 84.2903 765.485 83.9918 751.829 85.252C742.293 86.1475 730.639 87.8389 720.75 87.0098V72.7158C745.06 73.9429 760.658 76.8946 783.438 81.8361C790.442 83.3616 797.388 84.9204 804.334 86.4459C804.687 86.5454 805.099 86.6449 805.452 86.7113C805.452 86.7444 805.393 86.7776 805.393 86.8439Z" fill="#003B66"/>
<path fill-rule="evenodd" clip-rule="evenodd" d="M1049.85 55.0387C1031.48 55.9341 1013.18 56.0668 995.341 53.2146C989.631 52.3192 984.216 50.7604 978.742 49.467C973.856 48.3394 968.971 47.0792 964.026 46.0511C955.02 44.1607 945.838 44.0944 936.655 45.7858C930.652 46.9133 924.648 48.1073 918.703 49.268C918.173 49.3675 917.584 49.5002 916.878 49.467C917.29 49.3344 917.643 49.1685 918.055 49.069C924.824 47.1455 931.476 45.1888 938.304 43.3316C950.9 39.9156 963.967 40.0151 976.976 42.403C983.097 43.5306 989.043 45.023 994.752 46.6812C1009.06 50.7604 1024.01 53.6126 1039.96 54.6739C1043.2 54.906 1046.55 54.906 1049.85 55.0387Z" fill="#003B66"/>
<path fill-rule="evenodd" clip-rule="evenodd" d="M720.75 54.0442C751.829 51.5569 762.542 46.0184 797.329 51.8222C797.506 51.8553 797.624 51.8885 798.153 52.0212C792.208 52.0212 786.558 51.7558 781.025 52.0875C756.95 53.3809 740.174 61.9705 720.75 62.3353V54.0442Z" fill="#003B66"/>
<path fill-rule="evenodd" clip-rule="evenodd" d="M1081.75 54.0439V62.3682C1075.86 62.4014 1068.8 62.6004 1062.97 62.4014C1046.79 61.8376 1031.3 59.2508 1015.71 56.9293C1015.65 56.9293 1015.65 56.8629 1015.53 56.7634C1026.71 57.4931 1037.84 57.4267 1048.9 56.6308C1059.79 55.868 1070.51 54.9062 1081.75 54.0439Z" fill="#003B66"/>
<path fill-rule="evenodd" clip-rule="evenodd" d="M947.25 86.3793C982.626 82.4659 1018 81.3052 1053.26 86.2135C1041.02 85.716 1030.54 86.7773 1018.24 87.1089C1007.64 87.4074 997.047 88.1039 986.393 87.8054C973.561 87.4406 968.558 86.0809 948.839 86.3793C948.31 86.3793 947.78 86.3793 947.25 86.3793Z" fill="#003B66"/>
<path fill-rule="evenodd" clip-rule="evenodd" d="M1015.65 17.1321C1022.3 17.8617 1029.07 18.3923 1035.66 19.3541C1045.61 20.8133 1055.32 22.6374 1065.21 24.1298C1070.62 24.9589 1076.1 25.4564 1081.69 26.1197V34.5435C1070.51 32.3215 1060.38 28.9387 1050.02 25.6885C1039.9 22.4716 1029.6 19.4868 1018.3 17.8617C1017.35 17.729 1016.47 17.5964 1015.53 17.4637C1015.59 17.3311 1015.65 17.2316 1015.65 17.1321Z" fill="#003B66"/>
<path fill-rule="evenodd" clip-rule="evenodd" d="M1030.48 4.69531C1037.9 5.4581 1046.55 6.58569 1055.26 7.18265C1064.03 7.77962 1072.74 7.18265 1081.75 6.35354V9.83582C1074.27 10.9634 1065.45 10.9303 1058.15 9.76949C1051.73 8.74139 1045.49 7.34848 1039.13 6.18772C1035.84 5.55759 1032.54 5.06012 1030.48 4.69531Z" fill="#003B66"/>
<path fill-rule="evenodd" clip-rule="evenodd" d="M1081.75 64.9883V69.2001C1068.21 69.4322 1054.79 69.6644 1042.19 69.8634C1054.73 68.3047 1068.09 66.6465 1081.75 64.9883Z" fill="#003B66"/>
<path fill-rule="evenodd" clip-rule="evenodd" d="M720.75 9.86861V6.35325C732.875 5.05986 745.001 4.06495 757.42 3.86597C744.706 4.92721 733.111 7.94511 720.75 9.86861Z" fill="#003B66"/>
<path fill-rule="evenodd" clip-rule="evenodd" d="M720.75 100.806V88.8669C735.348 90.3593 749.651 86.4127 765.956 86.2469C779.494 86.1142 798.977 86.678 810.867 88.6347C828.173 91.4869 845.36 94.1069 865.02 95.1682C894.569 96.7601 918.526 92.2828 943.307 89.298C958.846 87.4077 977.623 89.6628 993.928 89.6297C1018.3 89.5965 1041.78 85.5836 1064.92 87.4077C1070.68 87.872 1073.51 88.0046 1081.69 88.8669V100.806H720.75Z" fill="#003B66"/>
<path fill-rule="evenodd" clip-rule="evenodd" d="M1441.88 51.1585V37.6605C1433.99 37.0304 1426.69 35.4717 1419.51 33.7803C1411.91 31.9894 1404.32 30.0658 1396.26 29.0046C1382.9 27.2469 1369.48 27.5785 1356.11 28.7393C1347.87 29.4689 1339.75 30.497 1331.57 31.3593C1324.5 32.122 1317.5 32.8185 1310.44 33.5481C1311.26 33.6476 1312.14 33.6476 1312.97 33.6476C1322.27 33.4818 1331.57 33.7803 1340.81 34.5762C1354.58 35.737 1367.36 38.4233 1379.66 42.1046C1394.14 46.4491 1409.21 50.0309 1425.81 50.9927C1431.1 51.258 1436.4 51.4901 1441.88 51.1585Z" fill="#003B66"/>
<path fill-rule="evenodd" clip-rule="evenodd" d="M1430.28 64.1925C1419.1 64.1925 1408.26 63.0649 1397.49 61.672C1389.72 60.6771 1382.01 59.4832 1374.18 58.6872C1359.82 57.1948 1345.22 56.8631 1330.68 57.4269C1319.32 57.8581 1308.38 59.2842 1298.08 62.1031C1286.48 65.2869 1274.35 67.708 1261.93 69.532C1258.64 70.0295 1255.28 70.4938 1251.99 70.9913C1252.75 71.1239 1253.46 71.1239 1254.16 71.0576C1261.05 70.4938 1267.88 69.8637 1274.77 69.3662C1284.3 68.6697 1293.78 67.8406 1303.37 67.4426C1315.56 66.9452 1327.62 68.0064 1339.57 69.333C1354.11 70.9581 1368.71 71.2566 1383.37 69.6978C1395.79 68.3381 1408.21 66.9452 1420.63 65.5191C1423.8 65.1211 1426.98 64.6237 1430.28 64.1925Z" fill="#003B66"/>
<path fill-rule="evenodd" clip-rule="evenodd" d="M1357.41 16.9328C1356.82 16.966 1356.23 16.966 1355.64 17.0323C1346.69 18.1268 1337.69 19.1549 1328.74 20.3156C1318.97 21.5759 1309.32 23.2673 1299.49 24.1959C1279.65 26.0863 1260.46 24.3949 1242.16 19.6855C1229.21 16.3359 1216.37 12.8204 1203.43 9.47082C1188.59 5.62373 1173.29 2.73841 1156.75 2.30727C1148.8 2.10829 1140.86 2.27411 1132.67 2.90424C1133.09 2.97057 1133.2 3.00373 1133.32 3.00373C1134.67 3.00373 1135.97 3.00373 1137.32 2.97057C1147.57 2.77158 1157.4 3.83284 1166.81 6.08803C1176.23 8.34323 1185.06 11.2617 1193.6 14.4123C1204.25 18.3589 1214.84 22.3055 1226.26 25.5888C1248.87 32.0891 1272.29 33.8468 1296.9 30.1987C1306.37 28.7726 1315.03 26.2521 1323.8 23.9306C1334.63 21.0784 1345.52 18.2926 1357.41 16.9328Z" fill="#003B66"/>
<path fill-rule="evenodd" clip-rule="evenodd" d="M1088.17 70.9251C1089.17 70.9915 1090.23 71.0578 1091.23 71.1241C1106.19 72.3512 1120.72 74.5732 1134.85 77.3922C1153.57 81.1066 1172.05 85.2191 1190.65 89.1656C1203.96 91.9846 1217.67 93.7755 1231.97 93.9413C1248.04 94.1403 1263.82 92.9796 1279.24 90.5586C1283.65 89.8621 1287.95 89.0661 1292.37 88.3365C1292.01 88.1375 1291.72 88.1044 1291.42 88.1375C1284.42 88.635 1277.41 89.1325 1270.41 89.6299C1258.58 90.4259 1246.81 90.2601 1235.03 89.033C1220.85 87.5737 1207.25 84.9869 1193.83 82.0684C1170.58 76.9611 1147.09 72.4839 1122.02 71.2568C1110.66 70.6598 1099.42 70.1292 1088.17 70.9251Z" fill="#003B66"/>
<path fill-rule="evenodd" clip-rule="evenodd" d="M1092.71 9.10601C1092.76 9.17233 1092.76 9.27183 1092.82 9.33816C1094.88 9.17233 1097 8.97335 1099.06 8.80752C1108.13 8.04474 1117.19 7.74626 1126.38 8.40955C1140.09 9.37132 1152.63 12.2235 1164.46 16.1037C1174.64 19.4202 1184.77 22.8361 1195.13 25.9868C1219.14 33.3161 1245.04 35.4055 1269.82 34.3111C1265.23 33.9794 1258.46 33.681 1251.87 32.9513C1236.68 31.2599 1223.03 27.446 1210.02 22.8361C1197.6 18.4252 1185.18 14.0475 1172.52 9.80246C1161.93 6.22069 1150.33 4.5293 1137.97 4.36347C1126.9 4.19765 1116.19 5.12626 1105.6 6.81765C1101.24 7.51411 1097 8.34322 1092.71 9.10601Z" fill="#003B66"/>
<path fill-rule="evenodd" clip-rule="evenodd" d="M1114.66 58.4223C1115.43 58.3228 1116.19 58.2233 1116.9 58.1238C1133.26 55.7359 1149.33 55.9681 1165.28 59.4835C1178.64 62.4352 1192.24 65.0552 1205.84 67.7415C1221.44 70.8258 1237.27 71.4559 1253.46 69.0681C1265.17 67.3435 1276.41 64.8894 1287.54 62.203C1289.72 61.6724 1291.95 61.1749 1294.13 60.6443C1290.66 60.9759 1287.24 61.4734 1283.83 61.8382C1275.59 62.6673 1267.35 63.6954 1258.99 64.1266C1248.45 64.6572 1237.98 63.9276 1227.68 62.6342C1218.49 61.4734 1209.37 60.1137 1200.31 58.6876C1188.18 56.764 1175.82 55.5369 1163.46 54.3099C1154.28 53.4144 1145.21 53.1159 1136.09 54.1772C1128.55 55.0063 1121.43 56.4324 1114.66 58.4223Z" fill="#003B66"/>
<path fill-rule="evenodd" clip-rule="evenodd" d="M1138.79 40.6457L1139.03 41.0106C1150.21 39.6508 1161.34 39.883 1172.11 41.906C1178.47 43.0999 1184.59 44.6587 1190.65 46.2174C1202.95 49.4012 1215.43 52.1207 1229.15 52.585C1237.74 52.8835 1246.28 52.8835 1254.75 51.7227C1262.29 50.6946 1269.53 49.2022 1276.59 47.4445C1284.12 45.5541 1291.66 43.6306 1299.55 41.6407C1298.84 41.6738 1298.55 41.6738 1298.25 41.707C1291.25 42.5693 1284.18 43.4316 1277.18 44.2607C1260.29 46.2837 1243.33 46.4495 1226.44 44.327C1216.9 43.1331 1207.55 41.508 1198.07 40.1483C1183.77 38.0921 1169.34 36.8981 1154.69 38.4569C1149.39 38.9875 1144.09 39.883 1138.79 40.6457Z" fill="#003B66"/>
<path fill-rule="evenodd" clip-rule="evenodd" d="M1343.28 41.6406C1343.34 41.5743 1343.34 41.5079 1343.4 41.4416C1341.75 40.9773 1340.1 40.4135 1338.4 40.0155C1333.63 38.8879 1328.86 37.6608 1323.92 36.7654C1310.79 34.4439 1297.31 34.6097 1283.83 35.2067C1276.18 35.5383 1268.53 36.0358 1260.87 36.3011C1244.33 36.8981 1228.5 34.875 1213.02 31.9565C1199.07 29.3034 1186.24 25.2241 1173.52 21.0786C1173.05 20.9127 1172.52 20.7801 1172.05 20.6143C1172.17 20.8464 1172.35 20.9791 1172.58 21.0786C1180.35 24.2955 1188.12 27.5788 1195.95 30.7626C1200.95 32.7857 1206.02 34.8087 1211.37 36.4669C1218.67 38.7553 1226.79 39.9492 1234.86 41.1763C1250.1 43.4978 1265.47 43.8295 1281 42.0386C1290.6 40.9441 1300.19 39.9492 1309.85 39.1201C1318.15 38.4236 1326.51 38.6226 1334.63 40.0155C1337.63 40.513 1340.46 41.0768 1343.28 41.6406Z" fill="#003B66"/>
<path fill-rule="evenodd" clip-rule="evenodd" d="M1404.14 18.7238C1404.2 18.6907 1404.26 18.6575 1404.32 18.6575C1398.61 17.2978 1392.96 15.8385 1387.13 14.6114C1375.66 12.1573 1363.82 10.5654 1351.52 10.2669C1342.99 10.0679 1334.69 11.0628 1326.51 12.3562C1314.44 14.2135 1302.49 16.2697 1290.42 18.0274C1277.06 19.9509 1263.52 20.2162 1249.99 18.757C1246.39 18.3922 1242.92 17.8616 1239.1 17.3641C1239.68 17.5299 1240.1 17.6626 1240.45 17.7621C1260.76 23.4664 1282.06 24.6603 1304.2 22.5046C1316.2 21.3438 1327.92 19.5861 1339.46 17.5299C1354.23 14.9099 1369.18 14.114 1384.37 15.9048C1390.96 16.6676 1397.55 17.7621 1404.14 18.7238Z" fill="#003B66"/>
<path fill-rule="evenodd" clip-rule="evenodd" d="M1433.75 35.0079C1433.75 34.9416 1433.81 34.8421 1433.81 34.7758C1429.34 33.5487 1424.86 32.3879 1420.45 31.1277C1408.97 27.8775 1397.55 24.4948 1386.01 21.311C1377.07 18.8568 1367.53 17.9613 1357.64 18.492C1350.29 18.8899 1343.4 20.316 1336.69 21.9079C1321.03 25.6555 1306.14 30.4975 1289.78 33.3497C1290.83 33.3165 1291.84 33.2502 1292.84 33.217C1304.73 32.6201 1316.5 31.7246 1328.09 30.1991C1341.87 28.375 1355.47 26.2193 1369.71 25.954C1379.19 25.755 1388.6 25.8877 1397.67 27.6454C1406.44 29.3368 1415.09 31.2935 1423.8 33.0844C1427.16 33.7808 1430.46 34.3778 1433.75 35.0079Z" fill="#003B66"/>
<path fill-rule="evenodd" clip-rule="evenodd" d="M1254.93 54.3756C1254.93 54.2761 1254.87 54.2098 1254.87 54.1103C1250.63 54.2429 1246.34 54.4419 1242.1 54.4419C1235.56 54.4419 1229.03 54.5082 1222.56 54.2098C1212.26 53.7123 1202.54 51.8219 1193.07 49.5335C1185.36 47.6763 1177.7 45.7528 1169.87 44.0282C1157.69 41.3419 1145.33 41.3419 1133.03 43.8956C1127.26 45.0895 1121.49 46.3166 1115.72 47.5437C1115.31 47.6432 1114.96 47.7758 1114.54 47.8753C1118.43 47.7095 1122.31 47.4442 1126.14 47.411C1136.09 47.3447 1145.98 48.008 1155.51 49.5667C1170.46 52.0209 1185.53 54.1434 1201.01 55.47C1214.43 56.6308 1227.85 57.3604 1241.39 55.9675C1245.87 55.47 1250.4 54.9062 1254.93 54.3756Z" fill="#003B66"/>
<path fill-rule="evenodd" clip-rule="evenodd" d="M1434.75 52.817C1434.75 52.7506 1434.75 52.6843 1434.75 52.618C1432.04 52.4853 1429.34 52.419 1426.63 52.22C1411.5 51.0924 1397.02 48.7045 1383.31 44.8243C1368.36 40.6124 1353.05 36.9311 1336.28 35.8035C1331.51 35.4719 1326.74 35.1402 1322.09 34.8086C1327.15 35.7704 1332.51 36.5 1337.34 37.8266C1343.57 39.518 1349.52 41.5742 1355.46 43.5972C1375.18 50.3628 1396.32 54.1767 1419.62 53.4471C1424.69 53.2813 1429.69 53.0159 1434.75 52.817Z" fill="#003B66"/>
<path fill-rule="evenodd" clip-rule="evenodd" d="M1142.09 58.6211C1147.21 59.2181 1152.39 59.7155 1157.45 60.4451C1169.76 62.2029 1181.41 65.055 1193.3 67.5424C1201.31 69.2006 1209.31 70.8257 1217.49 72.1522C1224.44 73.2798 1231.68 73.2798 1238.92 73.0808C1255.05 72.6497 1271.06 71.5884 1287.07 70.3614C1303.08 69.1343 1318.74 70.0629 1334.22 72.6165C1354.58 75.9662 1375.07 79.2495 1395.49 82.5327C1396.02 82.6322 1396.49 82.6986 1396.96 82.9639C1394.61 82.7981 1392.31 82.6654 1389.96 82.4996C1372.18 81.2393 1354.41 81.0403 1336.57 81.7368C1324.98 82.2011 1313.56 83.3287 1302.2 84.6221C1288.66 86.1808 1275 87.2421 1261.23 87.5738C1250.22 87.8391 1239.86 86.1477 1229.62 84.0252C1216.14 81.2393 1203.84 77.1933 1191.65 73.0145C1180.18 69.0679 1168.7 65.055 1156.34 61.9707C1151.69 60.81 1146.8 59.8813 1142.03 58.8201C1142.09 58.7538 1142.09 58.6874 1142.09 58.6211Z" fill="#003B66"/>
<path fill-rule="evenodd" clip-rule="evenodd" d="M1080.88 23.4V12.0577C1086.47 11.4939 1092 10.8637 1097.59 10.3C1110.19 9.07286 1122.67 9.27185 1135.03 11.0296C1147.27 12.7541 1157.93 16.2364 1167.93 20.4483C1175.35 23.5658 1182.41 26.9486 1189.77 30.066C1202.31 35.4055 1215.79 39.8496 1230.91 42.5359C1231.15 42.5691 1231.38 42.6686 1231.62 42.7681C1221.85 41.541 1212.25 39.9491 1202.95 37.8597C1190.06 34.9744 1178.06 31.0941 1165.81 27.446C1158.34 25.224 1150.69 23.201 1142.27 22.3055C1134.73 21.5427 1127.2 21.5759 1119.66 22.0734C1109.25 22.8362 1092.88 24.7265 1080.88 23.4Z" fill="#003B66"/>
<path fill-rule="evenodd" clip-rule="evenodd" d="M1372.89 2.30751C1358.76 1.67739 1345.22 3.00397 1332.22 5.52448C1325.15 6.88422 1318.56 8.97359 1311.85 10.7976C1299.66 14.1141 1287.01 16.6014 1273.59 17.8285C1262.52 18.8235 1251.81 18.0275 1241.22 16.1371C1228.32 13.8156 1215.9 10.7645 1203.48 7.7465C1200.6 7.05005 1197.72 6.41992 1194.83 5.62397C1198.66 5.98878 1202.48 6.41992 1206.37 6.75157C1233.5 9.20574 1253.81 12.688 1281.18 8.01182C1312.2 2.77182 1337.87 -2.50135 1370.89 1.97587C1371.3 2.0422 1371.71 2.10853 1372.12 2.17486C1372.3 2.17486 1372.54 2.24119 1372.89 2.30751Z" fill="#003B66"/>
<path fill-rule="evenodd" clip-rule="evenodd" d="M1365.77 55.9016C1360.06 55.9016 1353.76 56.0674 1347.52 55.8684C1331.69 55.3378 1316.15 56.0674 1300.72 58.0573C1289.72 59.4834 1278.59 60.611 1267.53 61.7386C1258.87 62.6008 1250.16 62.3355 1241.51 61.8712C1231.56 61.3406 1221.79 60.3457 1212.31 58.4221C1211.73 58.2895 1211.08 58.1568 1210.55 57.8915C1213.9 58.0905 1217.32 58.2231 1220.67 58.5216C1232.8 59.5165 1244.57 58.6211 1256.05 56.4322C1266.58 54.4092 1277 52.1208 1287.36 49.7993C1295.31 48.0084 1303.43 47.113 1311.97 47.4778C1319.09 47.7763 1325.8 48.9702 1332.51 50.2636C1341.69 52.0213 1350.99 53.6796 1360.23 55.3046C1362.23 55.6031 1364.29 55.7358 1365.77 55.9016Z" fill="#003B66"/>
<path fill-rule="evenodd" clip-rule="evenodd" d="M1080.88 64.9884C1090.7 63.6949 1101.36 62.0699 1111.31 61.0418C1121.31 59.9805 1131.5 59.5494 1141.5 61.1744C1152.39 62.9653 1162.75 65.4195 1172.29 68.9349C1181.41 72.2846 1190.65 75.5347 1199.89 78.7517C1207.96 81.5706 1216.61 83.66 1225.38 85.5836C1225.79 85.6831 1226.26 85.7826 1226.56 86.081C1222.38 85.3846 1218.14 84.8539 1214.14 83.9917C1203.48 81.7696 1192.95 79.415 1182.35 77.0934C1168.76 74.1086 1154.92 71.5549 1140.56 70.162C1129.61 69.1008 1118.49 68.736 1107.3 68.7691C1099.53 68.8023 1088.7 69.0013 1080.88 69.1671V64.9884V64.9884Z" fill="#003B66"/>
<path fill-rule="evenodd" clip-rule="evenodd" d="M1441.87 87.0097C1418.62 85.1525 1404.73 82.2671 1385.07 79.0502C1368.18 76.2975 1351.4 73.4454 1334.51 70.6595C1333.74 70.5269 1333.04 70.3611 1332.39 70.1289C1337.45 70.6927 1342.52 71.2897 1347.64 71.8203C1356.82 72.7821 1366.12 72.9479 1375.48 72.6494C1391.14 72.1519 1406.73 71.3892 1422.39 71.9861C1428.87 72.2183 1435.28 72.4836 1441.87 72.7157V87.0097Z" fill="#003B66"/>
<path fill-rule="evenodd" clip-rule="evenodd" d="M1299.25 15.3412C1303.37 14.3131 1307.49 13.3181 1311.61 12.29C1321.68 9.80269 1331.69 7.28218 1342.4 5.72344C1360.06 3.13661 1377.36 3.83306 1394.43 7.21585C1400.67 8.44294 1406.97 9.73636 1413.33 10.7313C1422.57 12.1574 1432.05 12.8538 1441.82 12.0579V23.4002C1436.34 22.6705 1430.93 22.0736 1425.69 21.2776C1415.98 19.8184 1406.85 17.4969 1397.73 15.1422C1386.66 12.29 1375.18 10.068 1363.06 9.17256C1350.23 8.24395 1337.57 8.84091 1325.21 10.8971C1317.09 12.2237 1309.08 13.7493 1301.02 15.1753C1300.43 15.2748 1299.9 15.3743 1299.31 15.4738L1299.25 15.3412Z" fill="#003B66"/>
<path fill-rule="evenodd" clip-rule="evenodd" d="M1080.88 37.661C1095.12 38.5896 1105.18 37.8268 1118.78 35.3727C1129.49 33.4159 1140.44 32.3215 1151.74 32.4542C1162.05 32.5537 1171.76 34.0461 1181.23 36.2681C1181.41 36.3013 1181.53 36.4008 1181.47 36.3676C1177.7 36.1686 1173.82 35.8038 1169.82 35.7706C1156.98 35.6711 1145.09 37.8268 1133.62 40.9111C1125.37 43.1 1117.19 45.3884 1108.89 47.4446C1100.3 49.5008 1092.53 50.3299 1080.88 51.159V37.661Z" fill="#003B66"/>
<path fill-rule="evenodd" clip-rule="evenodd" d="M1192.59 36.9644C1189.3 36.2348 1186.06 35.472 1182.76 34.7424C1177.35 33.5816 1171.88 32.4872 1166.52 31.2933C1156.57 29.1376 1146.56 29.0049 1136.26 30.431C1121.08 32.5535 1095.88 36.9976 1080.93 34.5102V26.0864C1094.88 27.5788 1102.42 25.4895 1113.01 24.594C1131.73 23.0353 1149.63 24.5609 1166.64 29.1376C1175.35 31.4923 1183.82 34.1123 1192.42 36.6328C1192.54 36.6659 1192.65 36.7654 1192.77 36.8318C1192.65 36.8981 1192.65 36.9313 1192.59 36.9644Z" fill="#003B66"/>
<path fill-rule="evenodd" clip-rule="evenodd" d="M1165.52 86.8439C1161.28 86.4128 1157.04 85.9153 1152.75 85.5173C1139.21 84.2903 1125.61 83.9918 1111.95 85.252C1102.42 86.1475 1090.76 87.8389 1080.88 87.0098V72.7158C1105.18 73.9429 1120.78 76.8946 1143.56 81.8361C1150.57 83.3616 1157.51 84.9204 1164.46 86.4459C1164.81 86.5454 1165.22 86.6449 1165.58 86.7113C1165.58 86.7444 1165.52 86.7776 1165.52 86.8439Z" fill="#003B66"/>
<path fill-rule="evenodd" clip-rule="evenodd" d="M1409.97 55.0387C1391.61 55.9341 1373.3 56.0668 1355.47 53.2146C1349.76 52.3192 1344.34 50.7604 1338.87 49.467C1333.98 48.3394 1329.1 47.0792 1324.15 46.0511C1315.15 44.1607 1305.96 44.0944 1296.78 45.7858C1290.78 46.9133 1284.77 48.1073 1278.83 49.268C1278.3 49.3675 1277.71 49.5002 1277 49.467C1277.41 49.3344 1277.77 49.1685 1278.18 49.069C1284.95 47.1455 1291.6 45.1888 1298.43 43.3316C1311.03 39.9156 1324.09 40.0151 1337.1 42.403C1343.22 43.5306 1349.17 45.023 1354.88 46.6812C1369.18 50.7604 1384.13 53.6126 1400.08 54.6739C1403.32 54.906 1406.68 54.906 1409.97 55.0387Z" fill="#003B66"/>
<path fill-rule="evenodd" clip-rule="evenodd" d="M1080.88 54.0442C1111.95 51.5569 1122.67 46.0184 1157.45 51.8222C1157.63 51.8553 1157.75 51.8885 1158.28 52.0212C1152.33 52.0212 1146.68 51.7558 1141.15 52.0875C1117.08 53.3809 1100.3 61.9705 1080.88 62.3353V54.0442Z" fill="#003B66"/>
<path fill-rule="evenodd" clip-rule="evenodd" d="M1441.87 54.0439V62.3682C1435.99 62.4014 1428.92 62.6004 1423.1 62.4014C1406.91 61.8376 1391.43 59.2508 1375.83 56.9293C1375.77 56.9293 1375.77 56.8629 1375.65 56.7634C1386.84 57.4931 1397.96 57.4267 1409.03 56.6308C1419.92 55.868 1430.63 54.9062 1441.87 54.0439Z" fill="#003B66"/>
<path fill-rule="evenodd" clip-rule="evenodd" d="M1307.38 86.3793C1342.75 82.4659 1378.13 81.3052 1413.39 86.2135C1401.14 85.716 1390.66 86.7773 1378.36 87.1089C1367.77 87.4074 1357.17 88.1039 1346.52 87.8054C1333.69 87.4406 1328.68 86.0809 1308.96 86.3793C1308.43 86.3793 1307.9 86.3793 1307.38 86.3793Z" fill="#003B66"/>
<path fill-rule="evenodd" clip-rule="evenodd" d="M1375.77 17.1321C1382.42 17.8617 1389.19 18.3923 1395.79 19.3541C1405.73 20.8133 1415.45 22.6374 1425.33 24.1298C1430.75 24.9589 1436.22 25.4564 1441.82 26.1197V34.5435C1430.63 32.3215 1420.51 28.9387 1410.15 25.6885C1400.02 22.4716 1389.72 19.4868 1378.42 17.8617C1377.48 17.729 1376.6 17.5964 1375.65 17.4637C1375.71 17.3311 1375.77 17.2316 1375.77 17.1321Z" fill="#003B66"/>
<path fill-rule="evenodd" clip-rule="evenodd" d="M1390.61 4.69531C1398.02 5.4581 1406.68 6.58569 1415.39 7.18265C1424.16 7.77962 1432.87 7.18265 1441.88 6.35354V9.83582C1434.4 10.9634 1425.57 10.9303 1418.27 9.76949C1411.86 8.74139 1405.62 7.34848 1399.26 6.18772C1395.96 5.55759 1392.67 5.06012 1390.61 4.69531Z" fill="#003B66"/>
<path fill-rule="evenodd" clip-rule="evenodd" d="M1441.87 64.9883V69.2001C1428.34 69.4322 1414.92 69.6644 1402.32 69.8634C1414.86 68.3047 1428.22 66.6465 1441.87 64.9883Z" fill="#003B66"/>
<path fill-rule="evenodd" clip-rule="evenodd" d="M1080.88 9.86886V6.3535C1093 5.06011 1105.13 4.06519 1117.55 3.86621C1104.83 4.92745 1093.24 7.94536 1080.88 9.86886Z" fill="#003B66"/>
<path fill-rule="evenodd" clip-rule="evenodd" d="M1080.88 100.806V88.8669C1095.47 90.3593 1109.78 86.4127 1126.08 86.2469C1139.62 86.1142 1159.1 86.678 1170.99 88.6347C1188.3 91.4869 1205.49 94.1069 1225.15 95.1682C1254.69 96.7601 1278.65 92.2828 1303.43 89.298C1318.97 87.4077 1337.75 89.6628 1354.05 89.6297C1378.42 89.5965 1401.91 85.5836 1425.04 87.4077C1430.81 87.872 1433.63 88.0046 1441.82 88.8669V100.806H1080.88Z" fill="#003B66"/>
</svg>
