<?xml version="1.0" encoding="utf-8"?>
<!-- Generator: Adobe Illustrator 23.0.6, SVG Export Plug-In . SVG Version: 6.00 Build 0)  -->
<svg version="1.1" id="Layer_1" xmlns="http://www.w3.org/2000/svg" xmlns:xlink="http://www.w3.org/1999/xlink" x="0px" y="0px"
	 viewBox="0 0 799.8 63" style="enable-background:new 0 0 799.8 63;" xml:space="preserve">
<style type="text/css">
	.st0{fill-rule:evenodd;clip-rule:evenodd;fill:#6BA5DB;}
</style>
<path class="st0" d="M0,54c12.9,0,25.3-1.4,37.5-3.3c12.4-2,24.3-4.6,37.3-5.7c14.5-1.3,29-1.3,43.7-0.3c22.8,1.5,43.4,5.6,64,10
	c15.6,3.3,32,5.6,49.3,6.2c0.4,0,0.7,0.1,1.2,0.3c-5,0.3-10.1,0.6-15.1,0.7c-15.4,0.5-30.7,0.2-45.9-0.7
	c-28.1-1.7-56.3-2.3-84.6-1.4c-11.6,0.3-23,1.1-34.4,1.8C35.4,62.7,13.3,62.3,0,61V54z"/>
<path class="st0" d="M0,10.1c21.2-2.2,30.1-3.5,53.3-2.6c24.7,0.9,47.8,4.8,71.1,8.1c16.3,2.3,32.4,5.1,48.9,7.2
	c16.9,2.2,34.2,4,51.4,5.8c2.7,0.3,5.6,0.3,8.4,0.5c-4.1,0-8.1,0.1-12.3,0c-12-0.5-24-1.1-36-1.9c-15.1-1-30.1-2.3-45-3.4
	c-25.8-2.1-51.8-2.7-77.9-1.6C41.9,23.1,20.9,26,0,27V10.1z"/>
<path class="st0" d="M799.7,27c-5.5,0.2-11,0.5-16.4,0.5c-21.3,0.2-42.2-1.1-62.7-3.6c-35.4-4.4-69.3-10.4-102.8-17.2
	c-4-0.8-27.9-5.5-29-6.5c7,1,13.9,2,20.9,3c45,6.3,72.7,10.7,120.6,10.5c23-0.1,47.3-1.4,69.6-3.7v17H799.7z"/>
<path class="st0" d="M799.7,48.7c-20.1,0.5-39.4-1-59-3.4C704.9,41,678,33.7,636.3,29.1c-1-0.1-2.1-0.3-3-0.6
	c41.8,1.5,83,6.8,124.3,7.4c15.9,0.2,27.4-0.5,42.2-2.1v15H799.7z"/>
<path class="st0" d="M0,33.7c25.2-2.9,41.8-4.1,62.5-5.6c22.8-1.7,45.8-2.1,68.6-0.3c0.7,0.1,1.2,0.1,0.4,0.2
	c-10.4,0.8-21,1.3-31.1,2.5c-9,1.1-17.9,2.9-26.4,4.7c-11.9,2.5-23.3,5.6-35.1,8.2c-12.3,2.7-21.2,4.9-38.8,5.4V33.7H0z"/>
<path class="st0" d="M799.8,61c-23.4-2.1-64.4-7-94.4-16.2c34.1,6.3,55.6,9.2,94.4,9.2V61z"/>
<path class="st0" d="M322.4,58.4c11.6-1.5,23.4-2.7,34.8-4.6c19.4-3,37.5-7.4,55-12.2c35.6-9.9,58.7-18.5,100.1-23.4
	c25.5-3,51.4-3.3,77.5-2.4c26.5,0.9,52.4,3.1,77.9,6.4c5.9,0.7,11.7,1.5,17.5,2.3c0,0.1-0.1,0.2-0.1,0.3c-23-1.7-44.1-2.6-67.6-2.1
	c-16.6,0.4-32.9,1.7-49,3.5c-27.3,3-59.8,10-86.2,15c-33.3,6.3-55.7,10.9-92.4,13.9C381.5,55.8,325.5,58.2,322.4,58.4z"/>
<path class="st0" d="M83.3,38.4c4.9-0.6,9.8-1.2,14.7-1.9c26.4-3.5,53.2-3.3,80.1-2.2c14.1,0.6,28,1.5,41.9,2.6
	c19,1.5,37.6,3.5,56.4,5c15,1.2,30.2,1.1,45.3,0.9c22.4-0.5,44.3-1.9,65.9-4.7c5.6-0.7,11.3-1.6,16.9-2.4c1.2-0.1,2.2-0.3,3.6-0.2
	c-9.2,1.9-18.2,4-27.6,5.6c-21.2,3.7-42.5,7.3-64,10.7c-15.6,2.4-31.9,3.7-48.3,4.4c-29.2,1.1-56.4-1.9-82.1-8.1
	c-17.2-4.2-35.1-7.4-54.5-8.8c-15.1-1.1-30.4-1.3-45.6-0.8c-0.9,0-1.8,0.1-2.7,0.1L83.3,38.4z"/>
<path class="st0" d="M256.7,30.7c7.6,0,15.3,0,22.8,0c25.3,0,49.5-2.3,72.6-7c18.2-3.7,36.7-7.2,55.4-10.4c9.3-1.6,19.3-2.5,29-3.3
	c12-1,24.1-1.7,36.4-2.3c21-1.1,42.4-1.4,63.6-0.9c7.1,0.1,46.7,1,50.4,2.1c-3.9,0-7.7,0-11.7,0c-20.9,0.1-41.3,1.2-61.8,3.2
	c-21.6,2.1-42.4,5.4-63.1,8.9c-22.4,3.8-44.7,7.8-67.4,11.4c-20.7,3.3-42.5,4.2-64.4,3.9c-19.4-0.3-38.1-2.2-56.6-4.5
	c-1.8-0.2-3.6-0.4-5.5-0.6C256.7,30.9,256.7,30.8,256.7,30.7z"/>
</svg>
