<?xml version="1.0" encoding="utf-8"?>
<!-- Generator: Adobe Illustrator 23.0.6, SVG Export Plug-In . SVG Version: 6.00 Build 0)  -->
<svg version="1.1" id="Layer_1" xmlns="http://www.w3.org/2000/svg" xmlns:xlink="http://www.w3.org/1999/xlink" x="0px" y="0px"
	 viewBox="0 0 430 109" style="enable-background:new 0 0 430 109;" xml:space="preserve">
<style type="text/css">
	.st0{fill-rule:evenodd;clip-rule:evenodd;fill:#003B66;}
</style>
<path class="st0" d="M430,55.7V41.2c-9.4-0.7-18.1-2.4-26.6-4.2c-9-1.9-18.1-4-27.7-5.1c-15.9-1.9-31.9-1.5-47.8-0.3
	c-9.8,0.8-19.5,1.9-29.2,2.8c-8.4,0.8-16.8,1.6-25.2,2.4c1,0.1,2,0.1,3,0.1c11.1-0.2,22.2,0.1,33.2,1c16.4,1.2,31.6,4.1,46.3,8.1
	c17.2,4.7,35.2,8.5,55,9.5C417.2,55.8,423.5,56,430,55.7z"/>
<path class="st0" d="M416.2,69.7c-13.3,0-26.2-1.2-39.1-2.7c-9.3-1.1-18.4-2.4-27.8-3.2c-17.1-1.6-34.5-2-51.8-1.4
	c-13.5,0.5-26.6,2-38.8,5c-13.8,3.4-28.3,6-43,8c-3.9,0.5-7.9,1-11.8,1.6c0.9,0.1,1.8,0.1,2.6,0.1c8.2-0.6,16.3-1.3,24.5-1.8
	c11.4-0.7,22.6-1.6,34.1-2.1c14.5-0.5,28.9,0.6,43.1,2c17.3,1.7,34.7,2.1,52.2,0.4c14.8-1.5,29.6-3,44.4-4.5
	C408.5,70.7,412.3,70.1,416.2,69.7z"/>
<path class="st0" d="M329.4,18.9c-0.7,0-1.4,0-2.1,0.1c-10.7,1.2-21.4,2.3-32,3.5c-11.6,1.4-23.1,3.2-34.8,4.2
	c-23.6,2-46.5,0.2-68.3-4.8c-15.4-3.6-30.7-7.4-46.1-11c-17.7-4.1-35.9-7.2-55.6-7.7C81,3,71.6,3.2,61.8,3.8
	c0.5,0.1,0.6,0.1,0.8,0.1c1.6,0,3.2,0,4.8,0c12.2-0.2,23.9,0.9,35.1,3.3s21.7,5.6,31.9,8.9c12.7,4.2,25.3,8.5,38.9,12
	c26.9,7,54.8,8.9,84.1,5c11.3-1.5,21.6-4.2,32-6.7C302.3,23.3,315.2,20.3,329.4,18.9z"/>
<path class="st0" d="M8.7,76.9c1.2,0.1,2.5,0.1,3.6,0.2c17.8,1.3,35.1,3.7,52,6.7c22.3,4,44.3,8.4,66.5,12.6c15.8,3,32.2,5,49.2,5.1
	c19.1,0.2,37.9-1,56.3-3.6c5.3-0.7,10.4-1.6,15.6-2.4c-0.4-0.2-0.8-0.2-1.1-0.2c-8.3,0.5-16.7,1.1-25,1.6
	c-14.1,0.9-28.1,0.7-42.1-0.6c-16.9-1.6-33.1-4.3-49.1-7.5C106.9,83.4,78.9,78.6,49,77.2C35.5,76.6,22.1,76,8.7,76.9z"/>
<path class="st0" d="M14.1,10.5c0.1,0.1,0.1,0.2,0.1,0.2c2.5-0.2,5-0.4,7.4-0.6C32.5,9.3,43.3,9,54.2,9.7c16.3,1,31.3,4.1,45.4,8.3
	c12.1,3.6,24.2,7.2,36.5,10.6c28.6,7.9,59.5,10.1,89,8.9c-5.5-0.4-13.5-0.7-21.4-1.5c-18.1-1.8-34.4-5.9-49.9-10.9
	c-14.8-4.7-29.6-9.4-44.7-14C96.5,7.4,82.7,5.6,68,5.4C54.8,5.2,42.1,6.2,29.4,8C24.3,8.8,19.2,9.7,14.1,10.5z"/>
<path class="st0" d="M40.2,63.5c0.9-0.1,1.8-0.2,2.7-0.3c19.5-2.6,38.6-2.3,57.6,1.5c15.9,3.2,32.1,6,48.3,8.9
	c18.6,3.3,37.4,4,56.7,1.4c14-1.9,27.3-4.5,40.6-7.4c2.6-0.6,5.3-1.1,7.9-1.7c-4.1,0.4-8.2,0.9-12.3,1.3c-9.8,0.9-19.6,2-29.6,2.5
	c-12.6,0.6-25-0.2-37.3-1.6c-10.9-1.2-21.8-2.7-32.6-4.2c-14.4-2.1-29.2-3.4-43.9-4.7c-10.9-1-21.7-1.3-32.6-0.1
	C56.8,59.8,48.3,61.3,40.2,63.5z"/>
<path class="st0" d="M69,44.4l0.3,0.4c13.3-1.5,26.6-1.2,39.4,1c7.6,1.3,14.9,3,22.1,4.6c14.7,3.4,29.5,6.3,45.9,6.8
	c10.2,0.3,20.4,0.3,30.5-0.9c9-1.1,17.6-2.7,26-4.6c9-2,17.9-4.1,27.3-6.2c-0.8,0-1.2,0-1.5,0.1c-8.3,0.9-16.8,1.9-25.1,2.7
	c-20.1,2.2-40.3,2.4-60.4,0.1c-11.4-1.3-22.5-3-33.8-4.5c-17-2.2-34.2-3.5-51.7-1.8C81.6,42.6,75.3,43.5,69,44.4z"/>
<path class="st0" d="M312.6,45.4c0.1-0.1,0.1-0.1,0.1-0.2c-2-0.5-3.9-1.1-6-1.5c-5.7-1.2-11.4-2.5-17.2-3.5
	c-15.6-2.5-31.7-2.3-47.7-1.7c-9.1,0.4-18.2,0.9-27.3,1.2c-19.7,0.6-38.6-1.5-57-4.7c-16.6-2.9-31.9-7.2-47-11.7
	c-0.6-0.2-1.2-0.3-1.8-0.5c0.1,0.2,0.4,0.4,0.6,0.5c9.3,3.5,18.5,7,27.8,10.4c6,2.2,12,4.3,18.4,6.1c8.7,2.5,18.4,3.7,28,5.1
	c18.2,2.5,36.5,2.9,55,0.9c11.4-1.2,22.9-2.2,34.4-3.1c9.9-0.7,19.8-0.5,29.5,1C305.8,44.2,309.2,44.8,312.6,45.4z"/>
<path class="st0" d="M385.1,20.8c0.1,0,0.1-0.1,0.2-0.1c-6.8-1.5-13.5-3-20.5-4.3c-13.7-2.6-27.8-4.3-42.4-4.7
	c-10.2-0.2-20.1,0.9-29.8,2.2c-14.4,2-28.6,4.2-43,6.1c-15.9,2.1-32,2.4-48.2,0.8c-4.3-0.4-8.4-1-13-1.5c0.7,0.2,1.2,0.3,1.6,0.4
	c24.2,6.1,49.6,7.4,75.9,5.1c14.3-1.2,28.3-3.1,42-5.3c17.6-2.8,35.4-3.7,53.5-1.7C369.4,18.6,377.2,19.8,385.1,20.8z"/>
<path class="st0" d="M420.3,38.3c0-0.1,0.1-0.2,0.1-0.2c-5.3-1.3-10.7-2.6-15.9-3.9c-13.7-3.5-27.3-7.1-41-10.5
	c-10.7-2.6-22-3.6-33.8-3c-8.8,0.4-17,2-25,3.7c-18.7,4-36.4,9.2-55.9,12.3c1.3,0,2.5-0.1,3.6-0.1c14.2-0.6,28.2-1.6,42-3.2
	c16.4-2,32.6-4.3,49.6-4.6c11.3-0.2,22.5-0.1,33.3,1.8c10.4,1.8,20.8,3.9,31.1,5.8C412.5,37,416.4,37.6,420.3,38.3z"/>
<path class="st0" d="M207.3,59.1c0-0.1-0.1-0.2-0.1-0.3c-5,0.1-10.2,0.4-15.2,0.4c-7.8,0-15.6,0.1-23.3-0.2
	c-12.3-0.5-23.8-2.6-35.1-5c-9.2-2-18.3-4.1-27.6-5.9c-14.5-2.9-29.2-2.9-43.9-0.1c-6.9,1.3-13.7,2.6-20.6,3.9
	c-0.5,0.1-0.9,0.2-1.4,0.4c4.6-0.2,9.3-0.5,13.8-0.5c11.8-0.1,23.6,0.6,35,2.3c17.8,2.6,35.8,4.9,54.2,6.3c16,1.2,32,2,48.1,0.5
	C196.5,60.3,201.9,59.7,207.3,59.1z"/>
<path class="st0" d="M421.5,57.4c0-0.1,0-0.1,0-0.2c-3.2-0.1-6.5-0.2-9.7-0.4c-18-1.2-35.3-3.8-51.6-7.9c-17.8-4.5-36-8.5-56-9.7
	c-5.7-0.4-11.4-0.7-16.9-1.1c6,1,12.4,1.8,18.2,3.2c7.4,1.8,14.5,4,21.6,6.2c23.5,7.3,48.7,11.4,76.4,10.6
	C409.5,57.9,415.5,57.6,421.5,57.4z"/>
<path class="st0" d="M72.9,63.7c6.1,0.6,12.3,1.2,18.3,2c14.7,1.9,28.5,5,42.7,7.6c9.5,1.8,19.1,3.5,28.8,5c8.3,1.2,16.9,1.2,25.5,1
	c19.2-0.5,38.3-1.6,57.4-2.9s37.7-0.3,56.2,2.4c24.3,3.6,48.7,7.1,73,10.7c0.6,0.1,1.2,0.2,1.8,0.5c-2.8-0.2-5.5-0.3-8.3-0.5
	c-21.2-1.4-42.3-1.6-63.6-0.8c-13.8,0.5-27.4,1.7-40.9,3.1c-16.1,1.7-32.4,2.8-48.8,3.2c-13.1,0.3-25.5-1.5-37.7-3.8
	c-16.1-3-30.7-7.3-45.2-11.8c-13.7-4.2-27.3-8.6-42.1-11.9c-5.5-1.2-11.4-2.2-17-3.4C72.9,63.8,72.9,63.7,72.9,63.7z"/>
<path class="st0" d="M0,25.8V13.6c6.7-0.6,13.3-1.3,19.9-1.9c15-1.3,29.9-1.1,44.6,0.8c14.6,1.9,27.3,5.6,39.2,10.1
	c8.8,3.3,17.2,7,26,10.3c14.9,5.7,31,10.5,49,13.4c0.3,0,0.6,0.1,0.8,0.2c-11.6-1.3-23.1-3-34.1-5.3c-15.4-3.1-29.7-7.3-44.2-11.2
	c-8.9-2.4-18-4.6-28-5.5c-9-0.8-17.9-0.8-26.9-0.2C33.8,25.2,14.3,27.3,0,25.8z"/>
<path class="st0" d="M347.8,3.2c-16.8-0.7-33,0.7-48.4,3.5c-8.4,1.5-16.3,3.7-24.3,5.7c-14.5,3.6-29.6,6.2-45.6,7.6
	c-13.2,1.1-25.9,0.2-38.6-1.8c-15.4-2.5-30.1-5.8-44.9-9c-3.4-0.7-6.9-1.4-10.3-2.3c4.6,0.4,9.1,0.9,13.7,1.2
	c32.3,2.6,56.5,6.4,89.1,1.4c37-5.8,67.6-11.5,106.9-6.7c0.5,0.1,1,0.1,1.5,0.2C347.1,3,347.4,3.1,347.8,3.2z"/>
<path class="st0" d="M339.3,60.7c-6.8,0-14.3,0.2-21.7,0c-18.9-0.6-37.4,0.2-55.7,2.4c-13.1,1.5-26.4,2.7-39.5,4
	c-10.3,0.9-20.7,0.6-31,0.1c-11.8-0.6-23.5-1.6-34.8-3.7c-0.7-0.1-1.5-0.3-2.1-0.6c4,0.2,8.1,0.4,12.1,0.7
	c14.4,1.1,28.5,0.1,42.1-2.2c12.6-2.2,25-4.6,37.3-7.1c9.5-1.9,19.1-2.9,29.3-2.5c8.5,0.3,16.5,1.6,24.5,3c10.9,1.9,22,3.7,33,5.4
	C335.1,60.4,337.6,60.6,339.3,60.7z"/>
<path class="st0" d="M0,70.5c11.7-1.4,24.4-3.1,36.2-4.2c11.9-1.1,24-1.6,36,0.1c13,1.9,25.3,4.6,36.7,8.3
	c10.9,3.6,21.9,7.1,32.9,10.5c9.6,3,19.9,5.3,30.4,7.3c0.5,0.1,1.1,0.2,1.4,0.5c-5-0.7-10-1.3-14.8-2.2c-12.7-2.4-25.2-4.9-37.9-7.4
	c-16.2-3.2-32.7-6-49.8-7.4c-13-1.1-26.3-1.5-39.6-1.5C22.2,74.6,9.3,74.8,0,75V70.5L0,70.5z"/>
<path class="st0" d="M430,94.2c-27.7-2-44.2-5.1-67.7-8.6c-20.1-3-40.1-6-60.2-9c-0.9-0.1-1.8-0.3-2.5-0.6c6,0.6,12.1,1.2,18.2,1.8
	c10.9,1,22,1.2,33.2,0.9c18.7-0.5,37.2-1.4,55.9-0.7c7.7,0.2,15.4,0.5,23.2,0.8v15.4H430z"/>
<path class="st0" d="M260.2,17.2c4.9-1.1,9.8-2.2,14.7-3.3c12-2.7,23.9-5.4,36.7-7.1c21-2.8,41.6-2,62,1.6
	c7.4,1.3,14.9,2.7,22.5,3.8c11,1.5,22.3,2.3,33.9,1.4v12.2c-6.5-0.8-13-1.4-19.2-2.3c-11.6-1.6-22.4-4.1-33.3-6.6
	c-13.2-3.1-26.9-5.5-41.3-6.4c-15.3-1-30.4-0.4-45.1,1.9c-9.7,1.4-19.2,3.1-28.8,4.6c-0.7,0.1-1.3,0.2-2,0.3L260.2,17.2z"/>
<path class="st0" d="M-0.1,41.2c17,1,29,0.2,45.2-2.5c12.8-2.1,25.8-3.3,39.3-3.1c12.3,0.1,23.8,1.7,35.1,4.1c0.2,0,0.3,0.1,0.3,0.1
	c-4.5-0.2-9.1-0.6-13.9-0.6c-15.3-0.1-29.4,2.2-43.1,5.5c-9.8,2.4-19.6,4.8-29.4,7c-10.2,2.2-19.5,3.1-33.4,4L-0.1,41.2L-0.1,41.2z"
	/>
<path class="st0" d="M133,40.4c-3.9-0.8-7.8-1.6-11.7-2.4c-6.5-1.2-13-2.4-19.4-3.7c-11.8-2.3-23.8-2.5-36-0.9
	C47.8,35.7,17.8,40.5,0,37.8v-9.1c16.6,1.6,25.6-0.6,38.2-1.6c22.3-1.7,43.6,0,63.9,4.9c10.4,2.5,20.5,5.3,30.7,8.1
	c0.1,0,0.3,0.1,0.4,0.2C133,40.3,133,40.4,133,40.4z"/>
<path class="st0" d="M100.8,94c-5-0.5-10.1-1-15.2-1.4C69.5,91.3,53.3,91,37,92.3c-11.4,1-25.2,2.8-37,1.9V78.8
	c29,1.3,47.5,4.5,74.7,9.8c8.3,1.6,16.6,3.3,24.9,5c0.4,0.1,0.9,0.2,1.3,0.3C100.9,93.9,100.8,93.9,100.8,94z"/>
<path class="st0" d="M392,59.8c-21.9,1-43.7,1.1-64.9-2c-6.8-1-13.3-2.6-19.8-4c-5.8-1.2-11.6-2.6-17.5-3.7
	c-10.7-2-21.7-2.1-32.6-0.3c-7.2,1.2-14.3,2.5-21.4,3.7c-0.6,0.1-1.3,0.2-2.2,0.2c0.5-0.1,0.9-0.3,1.4-0.4c8.1-2.1,16-4.2,24.1-6.2
	c15-3.7,30.6-3.6,46.1-1c7.3,1.2,14.4,2.8,21.2,4.6c17,4.4,34.8,7.4,53.8,8.6C384.1,59.7,388.1,59.7,392,59.8z"/>
<path class="st0" d="M0,58.8c37-2.7,49.8-8.6,91.2-2.4c0.2,0,0.4,0.1,1,0.2c-7.1,0-13.8-0.3-20.4,0.1C43.1,58,23.1,67.3,0,67.7V58.8
	z"/>
<path class="st0" d="M430,58.8v8.9c-7,0-15.4,0.2-22.4,0c-19.3-0.6-37.7-3.4-56.3-5.9c-0.1,0-0.1-0.1-0.2-0.2
	c13.3,0.8,26.6,0.7,39.8-0.1C403.8,60.7,416.6,59.7,430,58.8z"/>
<path class="st0" d="M269.8,93.5c42.1-4.2,84.3-5.5,126.3-0.2c-14.6-0.5-27.1,0.6-41.7,1c-12.6,0.3-25.2,1.1-37.9,0.7
	c-15.3-0.4-21.2-1.9-44.7-1.5C271.1,93.5,270.4,93.5,269.8,93.5z"/>
<path class="st0" d="M351.4,19.1c7.9,0.8,16,1.4,23.8,2.4c11.8,1.6,23.4,3.5,35.2,5.1c6.4,0.9,13,1.4,19.6,2.1v9.1
	c-13.3-2.4-25.4-6-37.7-9.5c-12.1-3.5-24.3-6.7-37.8-8.4c-1.1-0.1-2.2-0.3-3.3-0.4C351.3,19.3,351.4,19.2,351.4,19.1z"/>
<path class="st0" d="M368.9,5.7c8.8,0.8,19.1,2,29.5,2.7c10.4,0.6,20.8,0,31.6-0.9v3.7c-8.9,1.2-19.4,1.2-28.1-0.1
	c-7.6-1.1-15.1-2.6-22.6-3.8C375.3,6.7,371.4,6.1,368.9,5.7z"/>
<path class="st0" d="M430,70.5V75c-16.1,0.2-32.1,0.5-47.1,0.7C397.8,74.1,413.7,72.3,430,70.5z"/>
<path class="st0" d="M0,11.3V7.5C14.4,6.1,28.9,5,43.7,4.8C28.5,6,14.7,9.2,0,11.3z"/>
<path class="st0" d="M0,109V96.2c17.4,1.6,34.4-2.6,53.8-2.8c16.1-0.1,39.3,0.5,53.5,2.6c20.6,3.1,41.1,5.9,64.5,7
	c35.2,1.7,63.7-3.1,93.3-6.3c18.5-2,40.9,0.4,60.3,0.4c29,0,57-4.3,84.6-2.4c6.9,0.5,10.2,0.6,20,1.6V109H0z"/>
</svg>
