<?xml version="1.0" encoding="utf-8"?>
<!-- Generator: Adobe Illustrator 23.0.6, SVG Export Plug-In . SVG Version: 6.00 Build 0)  -->
<svg version="1.1" id="Layer_1" xmlns="http://www.w3.org/2000/svg" xmlns:xlink="http://www.w3.org/1999/xlink" x="0px" y="0px"
	 viewBox="0 0 1450 64" style="enable-background:new 0 0 1450 64;" xml:space="preserve">
<style type="text/css">
	.st0{fill-rule:evenodd;clip-rule:evenodd;fill:#6BA5DB;}
</style>
<path class="st0" d="M0,54.7c11.7,0,23-1.4,34-3.4c11.3-2,22-4.6,33.8-5.7c13.2-1.3,26.3-1.3,39.6-0.3c20.7,1.5,39.3,5.7,58,10.1
	c14.1,3.4,29,5.7,44.7,6.3c0.4,0,0.7,0.1,1.1,0.3c-4.6,0.3-9.1,0.6-13.7,0.7c-14,0.5-27.8,0.2-41.6-0.7c-25.5-1.7-51-2.3-76.7-1.4
	c-10.5,0.3-20.8,1.1-31.1,1.8c-16,1.1-36,0.7-48.1-0.6C0,61.8,0,54.7,0,54.7z"/>
<path class="st0" d="M0,10.5C19.1,8.3,27.2,7,48.3,7.9c22.4,0.9,43.4,4.8,64.4,8.2c14.8,2.4,29.4,5.1,44.3,7.3
	c15.3,2.2,31,4,46.6,5.9c2.4,0.3,5.1,0.3,7.7,0.5c-3.8,0-7.4,0.1-11.1,0c-10.9-0.5-21.7-1.1-32.6-1.9c-13.7-1-27.3-2.3-40.8-3.4
	c-23.4-2.1-47-2.8-70.6-1.6C37.9,23.6,18.9,26.6,0,27.6V10.5z"/>
<path class="st0" d="M725.6,27.6c-5,0.2-9.9,0.5-14.9,0.5c-19.3,0.2-38.3-1.1-56.8-3.6c-32.1-4.4-62.8-10.5-93.2-17.3
	c-3.6-0.8-25.2-5.5-26.3-6.5c6.3,1,12.6,2,18.9,3c40.8,6.3,65.9,10.8,109.3,10.6c20.8-0.1,42.8-1.4,63.1-3.8L725.6,27.6
	C725.7,27.6,725.6,27.6,725.6,27.6z"/>
<path class="st0" d="M725.6,49.4c-18.3,0.5-35.7-1-53.4-3.4c-32.5-4.4-56.8-11.7-94.6-16.3c-0.9-0.1-1.9-0.3-2.7-0.6
	c37.9,1.5,75.2,6.8,112.6,7.4c14.4,0.2,24.8-0.5,38.3-2.2v15.1H725.6z"/>
<path class="st0" d="M-0.1,34.3c22.8-2.9,37.9-4.1,56.7-5.7c20.7-1.7,41.5-2.2,62.2-0.3c0.7,0.1,1.1,0.1,0.4,0.2
	c-9.4,0.8-19.1,1.3-28.2,2.6c-8.3,1.1-16.3,2.9-24,4.7c-10.7,2.6-21.1,5.7-31.8,8.3C24.1,46.8,16,49,0,49.5V34.3H-0.1z"/>
<path class="st0" d="M725.6,61.8c-21.2-2.2-58.4-7-85.5-16.3c30.9,6.3,50.3,9.3,85.5,9.3V61.8z"/>
<path class="st0" d="M293,59.1c10.5-1.5,21.2-2.8,31.5-4.6c17.6-3,34-7.4,49.8-12.3c32.2-10,53.2-18.6,90.8-23.6
	c23.1-3,46.6-3.3,70.2-2.4c24,0.9,47.5,3.2,70.6,6.5c5.4,0.7,10.6,1.6,15.8,2.4c0,0.1-0.1,0.2-0.1,0.3c-20.8-1.7-40-2.6-61.2-2.1
	c-15,0.4-29.8,1.7-44.4,3.5c-24.7,3-54.2,10.1-78.1,15.1c-30.2,6.3-50.5,11-83.8,14C346.6,56.6,295.9,58.9,293,59.1z"/>
<path class="st0" d="M76.4,39c4.4-0.6,8.9-1.2,13.3-1.9c23.9-3.5,48.2-3.4,72.6-2.2c12.8,0.6,25.4,1.5,38,2.6
	c17.2,1.6,34.1,3.6,51.2,5.1c13.6,1.2,27.4,1.1,41.1,0.9c20.3-0.5,40.1-2,59.7-4.7c5.1-0.7,10.2-1.6,15.3-2.4c1.1-0.1,2-0.3,3.2-0.2
	c-8.3,1.9-16.5,4-25,5.7c-19.2,3.7-38.5,7.3-58,10.8C273.7,55,258.9,56.4,244,57c-26.4,1.1-51.2-1.9-74.4-8.2
	c-15.6-4.2-31.8-7.5-49.4-8.8c-13.7-1.1-27.5-1.3-41.4-0.8c-0.8,0-1.6,0.1-2.4,0.1V39z"/>
<path class="st0" d="M233.6,31.2c6.8,0,13.8,0,20.7,0c23,0,44.8-2.3,65.8-7.1c16.5-3.8,33.3-7.3,50.2-10.4
	c8.5-1.6,17.5-2.5,26.3-3.3c10.9-1,21.9-1.8,33-2.4c19-1,38.4-1.4,57.6-0.9c6.4,0.1,42.3,1,45.6,2.1c-3.5,0-7,0-10.6,0
	c-18.9,0.1-37.5,1.2-56,3.2c-19.6,2.1-38.4,5.4-57.2,9c-20.3,3.8-40.5,7.9-61.1,11.5c-18.8,3.4-38.5,4.2-58.4,3.9
	c-17.6-0.3-34.5-2.2-51.3-4.5c-1.6-0.2-3.2-0.4-5-0.6C233.6,31.5,233.6,31.4,233.6,31.2z"/>
<path class="st0" d="M725.6,54.7c11.7,0,23-1.4,34-3.4c11.3-2,22-4.6,33.8-5.7c13.2-1.3,26.3-1.3,39.6-0.3
	c20.7,1.5,39.3,5.7,58,10.1c14.1,3.4,29,5.7,44.7,6.3c0.4,0,0.7,0.1,1.1,0.3c-4.6,0.3-9.1,0.6-13.7,0.7c-14,0.5-27.8,0.2-41.6-0.7
	c-25.5-1.7-51-2.3-76.7-1.4c-10.5,0.3-20.8,1.1-31.1,1.8c-16,1.1-36,0.7-48.1-0.6V54.7z"/>
<path class="st0" d="M725.6,10.5c19.2-2.2,27.3-3.6,48.3-2.6c22.4,0.9,43.4,4.8,64.4,8.2c14.8,2.4,29.4,5.1,44.3,7.3
	c15.3,2.2,31,4,46.6,5.9c2.4,0.3,5.1,0.3,7.7,0.5c-3.8,0-7.4,0.1-11.1,0c-10.9-0.5-21.7-1.1-32.6-1.9c-13.7-1-27.3-2.3-40.8-3.4
	c-23.4-2.1-47-2.8-70.6-1.6c-18.1,0.8-37.2,3.8-56.1,4.8V10.5H725.6z"/>
<path class="st0" d="M1450,27.6c-5,0.2-9.9,0.5-14.9,0.5c-19.3,0.2-38.3-1.1-56.8-3.6c-32.1-4.4-62.8-10.5-93.2-17.3
	c-3.6-0.8-25.2-5.5-26.3-6.5c6.3,1,12.6,2,18.9,3c40.8,6.3,65.9,10.8,109.3,10.6c20.8-0.1,42.8-1.4,63.1-3.8L1450,27.6
	C1450.1,27.6,1450,27.6,1450,27.6z"/>
<path class="st0" d="M1449.9,49.4c-18.3,0.5-35.7-1-53.4-3.4c-32.5-4.4-56.8-11.7-94.6-16.3c-0.9-0.1-1.9-0.3-2.7-0.6
	c37.9,1.5,75.2,6.8,112.6,7.4c14.4,0.2,24.8-0.5,38.3-2.2v15.1H1449.9z"/>
<path class="st0" d="M725.6,34.3c22.8-2.9,37.9-4.1,56.7-5.7c20.7-1.7,41.5-2.2,62.2-0.3c0.7,0.1,1.1,0.1,0.4,0.2
	c-9.4,0.8-19.1,1.3-28.2,2.6c-8.2,1.1-16.2,2.9-23.9,4.7c-10.7,2.6-21.1,5.7-31.8,8.3c-11.1,2.7-19.2,4.9-35.2,5.4V34.3H725.6z"/>
<path class="st0" d="M1450.1,61.8c-21.2-2.2-58.4-7-85.5-16.3c30.9,6.3,50.3,9.3,85.5,9.3V61.8z"/>
<path class="st0" d="M1017.1,59.1c10.5-1.5,21.2-2.8,31.5-4.6c17.6-3,34-7.4,49.8-12.3c32.2-10,53.2-18.6,90.8-23.6
	c23.1-3,46.6-3.3,70.2-2.4c24,0.9,47.5,3.2,70.6,6.5c5.4,0.7,10.6,1.6,15.8,2.4c0,0.1-0.1,0.2-0.1,0.3c-20.8-1.7-40-2.6-61.2-2.1
	c-15,0.4-29.8,1.7-44.4,3.5c-24.7,3-54.2,10.1-78.1,15.1c-30.2,6.3-50.5,11-83.8,14C1070.6,56.6,1019.9,58.9,1017.1,59.1z"/>
<path class="st0" d="M800.4,39c4.4-0.6,8.9-1.2,13.3-1.9c23.9-3.5,48.2-3.4,72.6-2.2c12.8,0.6,25.4,1.5,38,2.6
	c17.2,1.6,34.1,3.6,51.2,5.1c13.6,1.2,27.4,1.1,41.1,0.9c20.3-0.5,40.1-2,59.7-4.7c5.1-0.7,10.2-1.6,15.3-2.4c1.1-0.1,2-0.3,3.2-0.2
	c-8.3,1.9-16.5,4-25,5.7c-19.2,3.7-38.5,7.3-58,10.8C997.7,55,983,56.4,968.1,57c-26.4,1.1-51.2-1.9-74.4-8.2
	c-15.6-4.2-31.8-7.5-49.4-8.8c-13.7-1.1-27.5-1.3-41.4-0.8c-0.8,0-1.6,0.1-2.4,0.1L800.4,39z"/>
<path class="st0" d="M957.6,31.2c6.8,0,13.8,0,20.7,0c23,0,44.8-2.3,65.8-7.1c16.5-3.8,33.3-7.3,50.2-10.4
	c8.5-1.6,17.4-2.5,26.3-3.3c10.9-1,21.9-1.8,33-2.4c19.1-1.1,38.4-1.4,57.6-0.9c6.4,0.1,42.3,1,45.6,2.1c-3.5,0-7,0-10.6,0
	c-18.9,0.1-37.5,1.2-56,3.2c-19.6,2.1-38.4,5.4-57.2,9c-20.3,3.8-40.5,7.9-61.1,11.5c-18.8,3.4-38.5,4.2-58.4,3.9
	c-17.6-0.3-34.5-2.2-51.3-4.5c-1.6-0.2-3.2-0.4-5-0.6C957.6,31.5,957.6,31.4,957.6,31.2z"/>
</svg>
