<svg width="28" height="26" viewBox="0 0 28 26" fill="none" xmlns="http://www.w3.org/2000/svg">
<path d="M3.09984 21.1752C2.7281 21.1752 2.35636 21.2334 2.06288 21.4083C1.67158 21.6219 1.45636 22.0104 1.39766 22.5738C1.33897 23.2148 1.45636 23.7004 1.74984 24.0306C2.19984 24.5357 3.06071 24.594 3.66723 24.594C4.80201 24.594 5.23245 23.4285 5.31071 23.1177L5.27158 22.3018C5.27158 22.1076 5.03679 21.7968 4.41071 21.4471C4.19549 21.3111 3.66723 21.1752 3.09984 21.1752ZM5.05636 11.6763L6.03462 12.3368C6.66071 12.7641 8.71505 14.7843 9.0281 16.416C9.22375 17.4456 9.16505 18.3003 8.98897 18.9607L8.03027 18.4557C8.10853 17.8341 8.20636 17.3873 7.95201 16.416C7.81505 15.8721 7.07158 14.9397 6.3281 14.4153L6.52375 23.2342L6.50418 23.3119C6.30853 24.186 5.4281 25.8177 3.6281 25.8177C2.78679 25.8177 1.59332 25.7206 0.810706 24.8465C0.282445 24.2637 0.067228 23.4479 0.145489 22.4378C0.243315 21.1752 0.908532 20.573 1.45636 20.2816C2.68897 19.6212 4.35201 19.9708 4.9781 20.3205C5.05636 20.3593 5.15418 20.4176 5.23245 20.4759L5.05636 11.6763ZM15.7194 10.8993C14.8977 10.8993 14.252 11.5792 14.252 12.3951C14.252 13.2109 14.9172 13.8908 15.7194 13.8908C16.5411 13.8908 17.2064 13.2109 17.2064 12.3951C17.2064 11.5792 16.5411 10.8993 15.7194 10.8993ZM15.7194 9.69498C17.1868 9.69498 18.3803 10.8993 18.3803 12.3951C18.3803 13.8908 17.1868 15.0951 15.7194 15.0951C14.252 15.0951 13.0585 13.8908 13.0585 12.3951C13.0585 10.8993 14.252 9.69498 15.7194 9.69498ZM15.7194 0.817749C22.0194 0.817749 27.1455 6.00423 27.1455 12.3951C27.1455 18.7859 22.0194 23.9724 15.7194 23.9724C12.9411 23.9724 10.3977 22.9623 8.42158 21.2917C8.44114 21.2723 8.46071 21.2529 8.46071 21.2334C8.75418 20.9809 9.04766 20.6313 9.22375 20.4176C10.9846 21.8939 13.2542 22.768 15.7194 22.768C21.3737 22.768 25.952 18.106 25.952 12.3756C25.952 6.64526 21.3542 1.98325 15.7194 1.98325C11.2194 1.98325 7.38462 4.95528 6.01505 9.05396C5.62375 8.78201 5.17375 8.72373 4.88027 8.74316C6.38679 4.15885 10.6716 0.817749 15.7194 0.817749Z" fill="black"/>
</svg>
