<svg width="182" height="31" viewBox="0 0 182 31" fill="none" xmlns="http://www.w3.org/2000/svg">
<path fill-rule="evenodd" clip-rule="evenodd" d="M132.918 1.14796L142.569 1.22508L141.966 13.0236H133.597L132.918 1.14796ZM162.096 13.0236L143.247 13.1007L142.569 1.30219L155.159 1.3793L161.869 13.0236H162.096ZM180.869 12.9465L163.453 13.0236L155.763 1.3793H158.778C160.512 1.3793 160.362 0.145474 159.004 0.145474L70.3417 0.0683594V0.839504L132.843 1.22508L132.24 13.1778L88.6623 13.2549L87.9838 0.993732L87.3806 13.2549L75.3931 13.332L74.7145 0.993732L74.1114 13.332L58.3541 13.4092V13.332L57.6002 3.38428L56.997 13.332V13.4092L40.1843 13.4863C40.1843 13.4092 40.1843 13.332 40.1843 13.332L39.5057 3.38428L38.9026 13.332V13.4092V13.4863L22.9945 13.6405C22.9945 13.5634 23.0699 13.4092 23.0699 13.332L22.316 3.38428L21.7129 13.332V13.4092C21.7129 13.4863 21.7129 13.5634 21.7882 13.6405L5.9556 13.7176C6.03099 13.5634 6.03099 13.4863 6.03099 13.332L5.42785 3.38428L4.7493 13.332V13.4092C4.7493 13.4863 4.8247 13.6405 4.8247 13.7176H3.6184C3.6938 13.5634 3.76919 13.4863 3.76919 13.332L3.09065 3.38428L2.41211 13.332V13.4092C2.41211 13.5634 2.4875 13.6405 2.4875 13.7176H1.20581H-0.000488281V13.7947L179.964 14.5659C178.682 16.8793 177.024 19.8097 175.44 21.9689L0.451873 22.2002V22.3544L174.837 22.8171C173.555 24.4365 171.294 26.5957 169.56 27.6753C166.167 29.9116 163.528 29.7574 159.683 29.7574L23.2207 29.9116C19.3003 23.8196 7.91583 22.4315 0.451873 22.4315C7.99123 22.5858 18.6217 24.1281 22.4668 29.9888L1.58278 29.7574C0.904234 29.7574 0.904234 30.7599 1.58278 30.7599L23.0699 30.3743L159.758 30.9141C164.056 30.9141 166.845 31.2997 170.615 28.832C176.119 25.2077 178.456 19.6554 181.773 14.2574C182.301 13.6405 181.698 12.7922 180.869 12.9465Z" fill="#979797"/>
<path fill-rule="evenodd" clip-rule="evenodd" d="M73.8854 3.30711C74.2624 3.30711 74.5639 2.99865 74.5639 2.61308C74.5639 2.2275 74.2624 2.15039 73.8854 2.15039L1.95996 2.92153V3.15288L73.8854 3.07576V3.30711Z" fill="#979797"/>
<path fill-rule="evenodd" clip-rule="evenodd" d="M81.4245 5.00362C82.4046 4.92651 83.2339 5.77477 83.3093 6.77725C83.4601 8.85934 80.9721 9.78472 80.0674 8.16531C79.4642 6.93148 79.992 5.08074 81.4245 5.00362ZM81.4245 9.09069C82.7062 9.01357 83.9124 8.0882 83.9878 6.70014C84.0632 5.15785 82.8569 3.92402 81.4245 3.84691C77.7302 3.69268 77.4286 9.24491 81.4245 9.09069Z" fill="#979797"/>
<path fill-rule="evenodd" clip-rule="evenodd" d="M7.01106 29.2948L6.5587 23.5112L6.33252 29.2948C6.33252 29.7575 7.08646 29.7575 7.01106 29.2948Z" fill="#979797"/>
<path fill-rule="evenodd" clip-rule="evenodd" d="M1.88411 24.0511C1.88411 23.5884 1.20557 23.5884 1.20557 24.0511L1.65793 29.5262L1.88411 24.0511Z" fill="#979797"/>
<path fill-rule="evenodd" clip-rule="evenodd" d="M10.6301 26.9815C10.4039 29.9889 9.19764 29.6805 9.19764 26.9815H10.6301ZM8.66989 26.9043C8.97146 30.1431 10.7809 30.2203 10.6301 26.9043L17.4155 27.1357C17.8679 27.1357 17.8679 26.4417 17.4155 26.4417L10.6301 26.7501V26.673V26.7501L9.19764 26.8272C9.19764 26.5959 9.19764 26.2874 9.27304 26.0561C9.34843 25.6705 9.42382 25.2849 9.57461 24.9765C9.80079 24.5138 9.80079 24.8222 9.95158 25.2078C10.027 25.362 10.027 25.5934 10.027 25.7476C10.027 25.7476 10.027 25.7476 10.027 25.8247C10.1024 26.1332 10.3285 26.2874 10.6301 26.2103C10.9317 26.1332 11.0825 25.9019 11.0071 25.5934C10.2532 22.2775 8.44371 24.0511 8.66989 26.9043H7.01123V26.9815L8.66989 26.9043Z" fill="#979797"/>
</svg>
