<svg width="54" height="45" viewBox="0 0 54 45" fill="none" xmlns="http://www.w3.org/2000/svg">
<path d="M0.442415 34.3814C1.04332 34.3814 1.58414 34.4425 2.12495 34.6259C2.66577 34.7481 3.20659 34.9925 3.68731 35.2981C4.16804 35.6037 4.64876 35.9092 5.24967 36.1537C5.79049 36.3981 6.3914 36.5814 6.9923 36.6425C8.19412 36.8259 9.39593 36.7648 10.5377 36.337C11.6794 35.9092 12.6408 35.1759 13.6624 34.9314C14.2032 34.8092 14.744 34.7481 15.2848 34.7481C15.8256 34.7481 16.3665 34.8092 16.9073 34.9314C17.4481 35.0537 17.9288 35.237 18.4095 35.4814C18.8903 35.7259 19.371 36.0925 19.9719 36.337C20.5127 36.6425 21.1737 36.8259 21.7746 36.9481C22.3755 37.0703 23.0365 37.0703 23.6374 37.0703C24.2383 37.0703 24.8993 36.9481 25.5002 36.7648C26.1011 36.5814 26.7021 36.2759 27.1828 35.9703C27.6635 35.6648 28.1442 35.4814 28.625 35.2981C29.1057 35.1148 29.6465 35.1148 30.1272 35.0537C30.668 35.0537 31.2089 35.0537 31.6896 35.1759C32.1703 35.2981 32.651 35.4203 33.1318 35.6648C33.6125 35.9092 34.0932 36.2148 34.634 36.5203C35.1748 36.8259 35.8358 37.0703 36.4968 37.1925C37.1578 37.3148 37.7587 37.3759 38.4197 37.3148C39.0206 37.3148 39.6816 37.1925 40.3426 37.0092C41.0036 36.8259 41.6045 36.5203 42.0853 36.2148C42.6261 35.9092 43.0467 35.6037 43.5275 35.4203C44.4288 34.9925 45.5705 34.9314 46.5921 34.9925C47.1329 34.9925 47.6136 35.1148 48.1544 35.2981C48.6352 35.4814 49.176 35.7259 49.7168 35.9703C50.2576 36.2148 50.8585 36.3981 51.4594 36.5203C52.0603 36.6425 52.6612 36.5814 53.2621 36.5203C53.3222 36.5203 53.3222 36.4592 53.3222 36.4592C53.3222 36.3981 53.3222 36.3981 53.2621 36.337C52.6612 36.2759 52.1204 36.1537 51.5796 35.9703C51.0388 35.787 50.5581 35.5425 50.0773 35.237C49.5966 34.9314 49.1159 34.5648 48.5751 34.3203C48.0343 34.0148 47.3733 33.8314 46.7724 33.7703C45.5705 33.587 44.3086 33.587 43.0467 34.0148C42.4458 34.1981 41.8449 34.5648 41.3642 34.8092C40.8835 35.0537 40.4027 35.2981 39.922 35.3592C39.4413 35.4814 38.9606 35.5425 38.4197 35.5425C37.8789 35.5425 37.3982 35.5425 36.9175 35.4203C36.4367 35.2981 35.956 35.1759 35.4753 34.9314C34.9946 34.687 34.5138 34.3814 33.9129 34.137C33.312 33.8925 32.651 33.7092 32.0501 33.587C31.3891 33.5259 30.7882 33.5259 30.1272 33.5259C29.5263 33.587 28.8653 33.6481 28.2644 33.8925C27.6635 34.137 27.0626 34.4425 26.5819 34.7481C26.1011 35.0537 25.6204 35.2981 25.1397 35.4814C24.659 35.6648 24.1182 35.7259 23.5773 35.787C23.0365 35.8481 22.4957 35.787 21.9549 35.7259C21.4141 35.6648 20.9333 35.4814 20.4526 35.2981C19.9719 35.0537 19.4912 34.8092 18.9504 34.5037C18.4095 34.2592 17.8086 34.0148 17.2077 33.8925C16.6068 33.7703 16.0059 33.7703 15.405 33.7703C14.8041 33.7703 14.2032 33.8925 13.6023 34.0759C12.4005 34.4425 11.439 35.237 10.4776 35.6648C9.45602 36.0925 8.3143 36.1537 7.23266 36.0925C6.69185 36.0314 6.15103 35.9092 5.61022 35.7259C4.88913 35.4814 4.4084 35.237 3.86759 34.9314C3.32677 34.687 2.78595 34.4425 2.18505 34.3203C1.58414 34.1981 1.04332 34.1981 0.442415 34.1981C0.382324 34.1981 0.382324 34.2592 0.382324 34.2592C0.382324 34.3203 0.382324 34.3814 0.442415 34.3814Z" fill="#949494"/>
<path d="M53.142 43.2424C52.541 43.2424 52.0002 43.1813 51.4594 42.9979C50.9186 42.8757 50.3778 42.6313 49.8971 42.3257C49.4163 42.0202 48.9356 41.7146 48.3347 41.4702C47.7939 41.2257 47.193 41.0424 46.5921 40.9813C45.3903 40.7979 44.1884 40.8591 43.0467 41.2868C41.905 41.7146 40.9435 42.4479 39.922 42.6924C39.3812 42.8146 38.8404 42.8757 38.2996 42.8757C37.7587 42.8757 37.2179 42.8146 36.6771 42.7535C36.1363 42.6313 35.6556 42.4479 35.1748 42.2035C34.6941 41.9591 34.2134 41.5924 33.6726 41.3479C33.1318 41.0424 32.4708 40.8591 31.8699 40.7368C31.2689 40.6146 30.6079 40.6146 30.007 40.6146C29.4061 40.6146 28.7451 40.7368 28.1442 40.9202C27.5433 41.1035 26.9424 41.4091 26.4617 41.7146C25.981 42.0202 25.5002 42.2035 25.0195 42.3868C24.5388 42.5702 23.998 42.5702 23.5172 42.6313C22.9764 42.6313 22.4356 42.6313 21.9549 42.5091C21.4742 42.3868 20.9934 42.2646 20.5127 42.0202C20.032 41.7757 19.5513 41.4702 19.0104 41.1646C18.4696 40.8591 17.8086 40.6146 17.1476 40.4924C16.4866 40.3702 15.8857 40.3091 15.2247 40.3702C14.6238 40.3702 13.9628 40.4924 13.3018 40.6757C12.6408 40.8591 12.0399 41.1646 11.5592 41.4702C11.0184 41.7757 10.5977 42.0813 10.117 42.2646C9.21566 42.6924 8.07393 42.7535 7.05239 42.7535C6.51158 42.7535 6.03085 42.6313 5.49003 42.4479C5.00931 42.2035 4.52858 41.9591 3.98777 41.6535C3.44695 41.4091 2.84604 41.2257 2.24514 41.1035C1.64423 40.9813 1.04332 41.0424 0.442415 41.0424C0.382324 41.0424 0.382324 41.1035 0.382324 41.1035C0.382324 41.1646 0.382324 41.1646 0.442415 41.2257C1.04332 41.2868 1.58414 41.4091 2.12495 41.5924C2.66577 41.7757 3.1465 42.0202 3.62722 42.3257C4.10795 42.6313 4.58867 42.9979 5.12949 43.2424C5.67031 43.5479 6.3313 43.7313 6.93221 43.7924C7.53312 43.9146 8.19412 43.9146 8.79502 43.9146C9.39593 43.9146 10.0569 43.7924 10.7179 43.5479C11.3188 43.3646 11.9197 42.9979 12.4005 42.7535C12.8812 42.5091 13.3619 42.2646 13.8426 42.2035C14.3234 42.0813 14.8041 42.0202 15.3449 42.0202C15.8857 42.0202 16.3665 42.0202 16.8472 42.1424C17.3279 42.2646 17.8086 42.3868 18.2293 42.6313C18.71 42.8757 19.1907 43.1813 19.7916 43.4257C20.3925 43.6702 21.0535 43.8535 21.6544 43.9757C22.3154 44.0368 22.9163 44.0368 23.5172 44.0368C24.1182 43.9757 24.7792 43.8535 25.3801 43.6702C25.981 43.4257 26.5819 43.1202 27.0626 42.8146C27.5433 42.5091 28.024 42.2646 28.5048 42.0813C28.9855 41.8979 29.5263 41.8368 30.0671 41.7757C30.6079 41.7146 31.1488 41.7757 31.6896 41.8368C32.2304 41.8979 32.7111 42.0813 33.1918 42.2646C33.6726 42.5091 34.1533 42.7535 34.6941 43.0591C35.2349 43.3035 35.8358 43.5479 36.4968 43.6702C37.0977 43.7924 37.6987 43.7924 38.2996 43.7924C38.9005 43.7924 39.5014 43.6702 40.1023 43.4868C41.3041 43.1202 42.2655 42.3257 43.227 41.8979C44.2485 41.4702 45.3903 41.4091 46.4719 41.4702C47.0127 41.5313 47.5535 41.6535 48.0943 41.8368C48.6352 42.0202 49.1159 42.3257 49.6567 42.6313C50.1975 42.8757 50.7383 43.1202 51.3392 43.2424C51.9401 43.3646 52.481 43.3646 53.0819 43.3646C53.142 43.3646 53.142 43.3035 53.142 43.3035C53.202 43.3035 53.202 43.2424 53.142 43.2424Z" fill="#949494"/>
<path d="M13.9629 5.84259C14.4436 5.78148 14.7441 5.29259 14.684 4.8037L13.8427 0.0981445L13.0015 4.8037C13.0015 4.92592 13.0015 4.98703 13.0015 5.10926C13.0616 5.59814 13.5423 5.96481 13.9629 5.84259Z" fill="#949494"/>
<path d="M13.6623 22.037C13.1816 22.0982 12.8811 22.587 12.9412 23.0759L13.7825 27.7815L14.6238 23.0759C14.6238 22.9537 14.6238 22.8926 14.6238 22.7704C14.6238 22.2815 14.143 21.9759 13.6623 22.037Z" fill="#949494"/>
<path d="M22.7962 13.1147C22.6761 13.1147 22.616 13.1147 22.4958 13.1147C22.0151 13.1759 21.7146 13.6647 21.7747 14.1536C21.8348 14.6425 22.3155 14.9481 22.7962 14.887L27.4232 14.0314L22.7962 13.1147Z" fill="#949494"/>
<path d="M5.18968 14.8259C5.61031 14.7648 5.97086 14.2759 5.85067 13.787C5.79058 13.2981 5.30986 12.9925 4.82913 13.0536L0.202148 13.9703L4.82913 14.8259C4.94931 14.8259 5.0695 14.8259 5.18968 14.8259Z" fill="#949494"/>
<path d="M19.5514 8.34801C19.9721 8.65357 20.5129 8.53135 20.7533 8.10357L23.4573 4.13135L19.5514 6.88135C19.4914 6.94246 19.3712 7.00357 19.3111 7.12579C19.0707 7.49246 19.1909 8.04246 19.5514 8.34801Z" fill="#949494"/>
<path d="M6.87205 19.7759L4.16797 23.7481L8.07387 20.9981C8.13396 20.937 8.25414 20.8759 8.31423 20.7537C8.61468 20.3259 8.4945 19.7759 8.07387 19.5315C7.65323 19.287 7.1725 19.4092 6.87205 19.7759Z" fill="#949494"/>
<path d="M20.5729 19.5926C20.1522 19.287 19.6114 19.4093 19.3711 19.837C19.1307 20.2648 19.1908 20.8148 19.6114 21.0593L23.5173 23.8093L20.8132 19.837C20.6931 19.7148 20.633 19.6537 20.5729 19.5926Z" fill="#949494"/>
<path d="M7.11241 8.34801C7.53305 8.65357 8.07386 8.53135 8.31423 8.10357C8.55459 7.67579 8.4945 7.12579 8.07386 6.88135L4.16797 4.13135L6.87205 8.10357C6.93214 8.22579 6.99223 8.2869 7.11241 8.34801Z" fill="#949494"/>
<path d="M6.75215 14.6426C6.87233 16.4759 7.65351 18.187 8.97551 19.4093C10.2975 20.5704 11.92 21.1815 13.5424 21.1815C15.4052 21.1815 17.2079 20.4482 18.5299 18.9204C19.7918 17.637 20.573 15.8037 20.573 13.9093C20.573 12.0148 19.7317 10.1204 18.2896 8.83705C17.5685 8.22594 16.7272 7.67594 15.8859 7.43149C14.9846 7.12594 14.0231 7.00372 13.1218 7.12594C11.259 7.30927 9.57641 8.28705 8.49478 9.6926C7.29297 11.037 6.69206 12.8093 6.75215 14.6426ZM9.57641 18.737C8.3746 17.637 7.7136 16.1704 7.65351 14.5815C7.59342 12.9926 8.13424 11.4037 9.15578 10.2426C10.2975 9.1426 11.7998 8.5926 13.2419 8.5926C14.7442 8.5926 16.1263 9.1426 17.2079 10.1204C18.2896 11.0982 19.0107 12.5037 19.1308 13.9704C19.3111 15.437 18.8905 17.0259 17.929 18.3093C15.7658 20.7537 11.98 20.937 9.57641 18.737Z" fill="#949494"/>
</svg>
