<svg width="98" height="27" viewBox="0 0 98 27" fill="none" xmlns="http://www.w3.org/2000/svg">
<path d="M97.1787 7.70612C97.2899 7.59357 97.29 7.59357 97.29 7.48102V7.36846C97.29 7.36846 97.29 7.36846 97.29 7.25591V7.14335V7.0308C97.29 7.0308 97.29 7.0308 97.29 6.91824C97.29 6.91824 97.2899 6.91824 97.1787 6.91824C97.1787 6.91824 97.0675 6.91824 97.0675 6.80569C97.0675 6.80569 97.0675 6.80569 96.9562 6.80569H96.845L87.3897 7.48102H87.2785C79.3806 6.35547 71.2601 5.90526 63.251 5.90526C63.251 5.7927 63.1397 5.68015 63.0285 5.5676L53.2395 0.502661C53.1283 0.502661 53.017 0.390107 53.017 0.502661L17.4207 6.01781C17.4207 6.01781 17.4207 6.01781 17.3094 6.01781L9.9677 13.3338L5.51816 13.6715L0.178711 19.7494L2.29224 26.5027L0.289949 19.7494C13.9723 18.9615 27.6546 18.2862 41.337 17.6109C48.2338 17.2732 55.0193 16.9356 61.9161 16.5979C68.8129 16.1477 75.5984 15.5849 82.384 14.9096C82.7177 14.9096 82.9402 14.5719 82.8289 14.2343C82.8289 13.8966 82.4952 13.6715 82.1615 13.784C75.376 14.6845 68.5904 15.2472 61.6936 15.81C54.9081 16.2602 48.0113 16.7105 41.2257 17.1607C27.5434 18.0611 13.8611 18.849 0.178711 19.862L5.51816 14.0092L86.6111 8.71911C86.7223 8.71911 86.7223 8.71911 86.8335 8.71911C86.9448 8.71911 87.056 8.71911 87.1672 8.60656L95.0652 8.04379C89.2808 13.2213 83.2739 18.2862 76.1546 21.4377C68.5904 24.8144 60.2475 25.9399 52.0159 25.8273L2.29224 26.5027H52.1271C60.3588 26.7278 68.9241 25.7148 76.5996 22.3382C84.3863 18.9615 90.8381 13.4464 97.0675 7.93123C97.0675 7.81868 97.0675 7.81868 97.1787 7.70612C97.0675 7.81868 97.0675 7.70612 97.1787 7.70612ZM61.1374 6.01781C59.6913 6.01781 58.3565 6.13037 56.9104 6.13037C52.3496 6.24292 47.7888 6.58058 43.228 7.0308L43.3393 6.91824C43.4505 6.69314 43.4505 6.35547 43.1168 6.13037L38.556 3.42907L52.9058 1.51565L61.1374 6.01781ZM26.9872 8.494L23.0939 5.45504L38.4448 3.42907L42.4494 7.0308C37.3324 7.48102 32.2154 8.04379 26.9872 8.494ZM10.0789 13.4464L17.5319 6.24292L23.2051 5.45504L27.0984 8.60656C37.1099 7.81868 47.1214 6.91824 57.1328 6.69314C58.9127 6.69314 60.6925 6.69314 62.4723 6.69314C62.5835 6.69314 62.6948 6.69314 62.9172 6.69314C69.1466 6.80569 75.5984 7.14335 81.939 7.93123L10.0789 13.4464Z" fill="#949494"/>
</svg>
