<svg width="121" height="39" viewBox="0 0 121 39" fill="none" xmlns="http://www.w3.org/2000/svg">
<path d="M83.4939 28.6874C83.8926 28.819 84.2914 28.819 84.5572 28.819C84.956 28.819 85.2218 28.6874 85.4876 28.4241C85.7535 28.1609 86.0193 27.8976 86.0193 27.5027C86.1522 26.7129 85.3547 25.7915 84.4243 25.7915C84.0256 25.7915 83.4939 25.9231 83.0951 26.1864C82.6964 26.4497 82.5635 26.9762 82.5635 27.5027C82.8293 28.0292 83.0951 28.4241 83.4939 28.6874ZM84.0256 27.5027C84.1585 27.2394 84.1585 26.8445 84.5572 26.8445C84.956 26.7129 85.3547 26.9762 85.4876 27.5027C85.4876 27.766 85.4876 28.0292 85.3547 28.2925C85.2218 28.5558 84.956 28.6874 84.5572 28.6874C84.2914 28.6874 84.0256 28.4241 83.8926 28.1609C83.8926 27.8976 84.0256 27.6343 84.0256 27.5027Z" fill="#949494"/>
<path d="M33.3845 30.0038C33.7833 30.1354 34.182 30.1354 34.4478 30.1354C34.8466 30.1354 35.1124 30.0038 35.3783 29.7405C35.6441 29.4773 35.9099 29.214 35.9099 28.8191C36.0428 28.0293 35.2453 27.1079 34.3149 27.1079C33.9162 27.1079 33.3845 27.2395 32.9858 27.5028C32.587 27.7661 32.4541 28.2926 32.4541 28.8191C32.587 29.3456 32.9858 29.7405 33.3845 30.0038ZM33.9162 28.8191C34.0491 28.5558 34.0491 28.161 34.4478 28.161C34.8466 28.0293 35.2453 28.2926 35.3783 28.8191C35.3783 29.0824 35.3783 29.3456 35.2453 29.6089C35.1124 29.8722 34.8466 30.0038 34.4478 30.0038C34.182 30.0038 33.9162 29.7405 33.7833 29.4773C33.7833 29.214 33.7833 28.9507 33.9162 28.8191Z" fill="#949494"/>
<path d="M25.5422 30.1351C25.941 30.2668 26.3397 30.2668 26.6056 30.2668C27.0043 30.2668 27.2701 30.1351 27.536 29.8719C27.8018 29.6086 28.0676 29.3454 28.0676 28.9505C28.2006 28.1607 27.4031 27.2393 26.4726 27.2393C26.0739 27.2393 25.5422 27.3709 25.1435 27.6341C24.7447 27.8974 24.6118 28.4239 24.6118 28.9505C24.7447 29.6086 25.1435 30.0035 25.5422 30.1351ZM26.0739 29.0821C26.2068 28.8188 26.2068 28.4239 26.6056 28.4239C27.0043 28.2923 27.4031 28.5556 27.536 29.0821C27.536 29.3454 27.536 29.6086 27.4031 29.8719C27.2701 30.1351 27.0043 30.2668 26.6056 30.2668C26.3397 30.2668 26.0739 30.0035 25.941 29.7402C25.941 29.3454 25.941 29.2137 26.0739 29.0821Z" fill="#949494"/>
<path d="M17.7004 30.3983C18.0992 30.53 18.4979 30.53 18.7638 30.53C19.1625 30.53 19.4283 30.3983 19.6942 30.1351C19.96 29.8718 20.2258 29.6085 20.2258 29.2136C20.3588 28.4239 19.5613 27.5024 18.6308 27.5024C18.2321 27.5024 17.7004 27.6341 17.3017 27.8973C16.9029 28.1606 16.77 28.6871 16.77 29.2136C16.9029 29.7402 17.3017 30.1351 17.7004 30.3983ZM18.2321 29.2136C18.365 28.9504 18.365 28.5555 18.7638 28.5555C19.1625 28.4239 19.5613 28.6871 19.6942 29.2136C19.6942 29.4769 19.6942 29.7402 19.5613 30.0034C19.4283 30.2667 19.1625 30.3983 18.7638 30.3983C18.4979 30.3983 18.2321 30.1351 18.0992 29.8718C18.0992 29.6085 18.2321 29.3453 18.2321 29.2136Z" fill="#949494"/>
<path d="M119.647 10.7856L83.095 11.5754L67.1451 0.255166C67.0122 0.123535 66.8792 0.123535 66.7463 0.123535L53.0559 0.255166C52.923 0.255166 52.6572 0.386797 52.5243 0.518428L48.6697 6.17855L22.0865 6.44182L20.7573 4.33572C20.7573 4.20409 20.4915 4.07246 20.3585 4.07246C20.0927 4.07246 19.8269 4.33572 19.9598 4.73061L20.4915 7.49486L19.2952 9.20606C19.2952 9.33769 19.1623 9.33769 19.1623 9.46932C19.1623 9.73259 19.4281 9.99585 19.694 9.99585L36.9731 9.86422L42.4226 16.5774C42.2897 16.709 42.2897 16.8407 42.1568 16.9723L40.296 19.9998L15.1748 20.9212C15.0419 20.9212 15.0419 20.9212 14.909 21.0528L7.59858 31.5833L0.686938 31.4517C0.554022 31.4517 0.421106 31.5833 0.421106 31.7149L0.155273 35.6639C0.155273 35.7955 0.155273 35.7955 0.28819 35.9271L4.40859 37.9016C4.40859 37.9016 4.40859 37.9016 4.54151 37.9016L31.9223 38.0332L64.3538 38.5597L79.2404 38.823C81.7659 38.823 84.1583 38.9546 86.6838 38.823C89.2092 38.6914 91.7346 38.2965 94.1271 37.6383C99.045 36.322 103.564 33.9527 107.419 30.6619C111.273 27.5028 114.463 23.5538 117.387 19.6049C117.387 19.4733 117.52 19.4733 117.52 19.3416L117.653 18.4202C117.653 18.2886 117.653 18.2886 117.786 18.157C117.786 17.7621 117.52 17.4988 117.122 17.4988H116.058L119.78 11.707C119.78 11.5754 119.913 11.5754 119.913 11.4438C120.179 11.0489 119.913 10.7856 119.647 10.7856ZM100.64 17.1039L103.963 12.3652V12.2336C104.096 12.1019 104.096 11.8387 103.963 11.707H111.007L108.349 17.2355L100.64 17.1039ZM90.6712 16.9723L93.9941 12.4968C93.9941 12.4968 93.9941 12.3652 94.1271 12.3652C94.26 12.1019 94.26 11.9703 94.1271 11.707L103.032 11.8387L100.64 17.2355L90.6712 16.9723ZM92.9308 11.707C92.7979 11.707 92.7979 11.707 92.9308 11.707L90.4054 16.8407L83.095 11.707H92.9308ZM53.4547 1.43984H66.6134L70.7338 4.33572L51.7268 3.8092L53.4547 1.43984ZM48.5368 8.28465H57.708L54.2522 15.9192L43.486 16.0509C43.8847 15.5243 44.2835 14.9978 44.5493 14.3397L48.5368 8.28465ZM72.9934 8.15302L83.095 15.5243L54.2522 15.9192L58.9043 8.54791C58.9043 8.54791 58.9043 8.54791 58.9043 8.41628V8.28465L72.9934 8.15302ZM15.1748 21.5794L40.296 20.7896C40.4289 20.7896 40.5618 20.7896 40.5618 20.6579L42.5556 17.4988C42.6885 17.3672 42.8214 17.2355 42.8214 16.9723L84.2913 16.3141C84.4242 16.3141 84.5571 16.3141 84.5571 16.1825C84.69 16.0509 84.69 15.7876 84.4242 15.656L73.2592 7.49486C73.2592 7.49486 73.1263 7.36323 72.9934 7.36323L58.5055 7.49486C58.3726 7.49486 58.3726 7.49486 58.3726 7.49486L48.4039 7.62649C48.271 7.62649 48.138 7.62649 48.138 7.75812L44.0176 13.9448C43.6189 14.6029 43.2201 15.1294 42.8214 15.7876L37.3718 9.20606C37.2389 9.07443 37.106 9.07443 36.9731 9.07443H20.4915L21.289 8.02139C21.4219 7.75812 21.4219 7.62649 21.4219 7.49486L21.289 6.96834L21.4219 7.2316C21.5548 7.36323 21.6877 7.49486 21.8206 7.49486L48.9355 7.2316C49.0685 7.2316 49.3343 7.09997 49.4672 6.96834L50.7964 5.12551L70.7338 4.33572L90.0067 18.0253C90.1396 18.157 90.2725 18.157 90.4054 18.157L113.4 18.6835C97.0512 20.2631 80.7025 21.8426 64.2209 22.8957C47.0747 23.9487 29.9285 24.6069 12.6494 25.1334L15.1748 21.5794ZM12.6494 25.1334C29.9285 24.8701 47.2076 24.3436 64.3538 23.4222C81.5 22.5008 98.6462 21.1845 115.792 19.7365C113.001 23.4222 110.077 27.1079 106.488 30.0037C103.298 32.768 99.5766 34.8741 95.4562 36.322C94.9246 36.4536 94.3929 36.7169 93.8612 36.8485C91.4687 37.5067 89.0762 37.9016 86.5508 38.0332C84.1583 38.1648 81.6329 38.0332 79.1075 38.0332L64.2209 37.9016L13.314 37.5067L4.67443 37.3751L0.686938 35.4006L0.819855 31.8466L7.7315 31.9782C7.86442 31.9782 7.86442 31.9782 7.99733 31.8466L12.6494 25.1334ZM106.754 29.8721L106.621 30.0037C110.21 26.9762 113.134 23.4222 115.792 19.7365C113.134 23.4222 110.343 26.9762 106.754 29.8721ZM108.482 17.2355L112.337 12.2336V12.1019C112.337 11.9703 112.337 11.9703 112.337 11.8387H118.451L114.596 17.3672L108.482 17.2355Z" fill="#949494"/>
</svg>
