<svg width="33" height="33" viewBox="0 0 33 33" fill="none" xmlns="http://www.w3.org/2000/svg">
<path d="M9.13105 17.6836L12.1189 20.6039L11.0501 21.6735L10.0055 20.652L9.95696 20.6881C9.08247 21.4091 7.46708 23.0676 8.02579 24.2094L8.06223 24.3055C8.09866 24.4016 9.00959 26.9014 13.3942 25.5554C13.5885 25.4953 15.4954 24.9184 16.6007 25.9039C17.2444 26.4808 17.4266 27.3821 17.1472 28.5959C17.0622 28.9445 16.7586 29.1728 16.4064 29.1728C16.3456 29.1728 16.297 29.1728 16.2363 29.1488C15.8234 29.0526 15.5683 28.656 15.6655 28.2474C15.8112 27.6345 15.7748 27.1778 15.5804 26.9975C15.2404 26.6971 14.293 26.8293 13.8557 26.9735C8.4266 28.632 6.8598 25.3631 6.64117 24.8103C5.63308 22.671 7.90433 20.4357 8.87599 19.6064L8.91243 19.5704L8.05008 18.7291L9.13105 17.6836ZM16.5035 10.7732L11.7302 16.9264L12.7869 17.996L18.8841 13.1528L18.714 13.0446C17.8638 12.4798 17.0987 11.6866 16.5642 10.8453L16.5035 10.7732ZM19.7707 6.68707C18.9448 6.68707 18.1553 7.01155 17.5723 7.61246C17.0865 8.1052 17.2566 8.85031 17.4873 9.37911C18.1432 10.9174 19.9894 12.4197 21.2161 12.4197C21.5319 12.4197 21.7748 12.3235 21.9813 12.1192C23.208 10.8814 23.208 8.85031 21.9813 7.61246C21.3861 7.01155 20.5966 6.68707 19.7707 6.68707ZM19.7707 5.18481C21.0096 5.18481 22.1756 5.67755 23.0622 6.56689C24.8598 8.39363 24.8598 11.3501 23.0622 13.1768C22.5764 13.6695 21.9448 13.9219 21.2161 13.9219C21.0217 13.9219 20.8274 13.9099 20.6331 13.8738L20.463 13.8378L12.6776 20.0271L9.72619 17.0466L15.8234 9.18682L15.7991 9.09067C15.5926 8.09318 15.8234 7.21586 16.4792 6.55487C17.3537 5.67755 18.5197 5.18481 19.7707 5.18481Z" fill="#231F20"/>
</svg>
