<svg width="700" height="40" viewBox="0 0 700 40" fill="none" xmlns="http://www.w3.org/2000/svg">
<g clip-path="url(#clip0_1160_1817)">
<path fill-rule="evenodd" clip-rule="evenodd" d="M17.0023 9.53176L16.5261 5.43657H10.1453C8.62147 5.43657 7.38339 5.72228 6.62149 6.48417C5.8596 7.24607 5.57388 8.29368 5.57388 10.0079V24.8649C5.57388 26.3887 5.8596 27.722 6.62149 28.4839C7.38339 29.2458 8.43099 29.5315 10.1453 29.5315H20.8118V33.9124H9.38337C6.62149 33.9124 4.52628 33.1505 3.00249 31.6267C1.47869 30.0077 0.716797 27.9125 0.716797 25.1506V9.81747C0.716797 6.96036 1.47869 4.96038 3.00249 3.43659C4.52628 1.81756 6.62149 1.05566 9.38337 1.05566H20.907V9.53176H17.0023Z" fill="white"/>
<path fill-rule="evenodd" clip-rule="evenodd" d="M34.4306 9.81751V33.6268H26.2402V30.0078L29.2878 29.5316V4.96042L26.2402 4.389V0.865234H36.1449L44.0496 24.6745H44.621L52.5256 0.865234H62.2398V4.389L59.097 4.96042V29.5316L62.2398 30.0078V33.6268H54.2399V9.81751H54.0494L46.1448 33.6268H42.5258L34.6211 9.81751H34.4306Z" fill="white"/>
<path fill-rule="evenodd" clip-rule="evenodd" d="M91.5732 9.24616V24.865C91.5732 27.7221 90.8113 29.7221 89.2875 31.2459C87.7637 32.7697 85.7638 33.5316 82.9066 33.5316H77.2877C74.5258 33.5316 72.4306 32.7697 70.9068 31.2459C69.383 29.7221 68.6211 27.6269 68.6211 24.865V9.24616C68.6211 6.38905 69.383 4.38907 70.9068 2.86528C72.4306 1.34149 74.4305 0.57959 77.2877 0.57959H82.9066C85.6685 0.57959 87.7637 1.34149 89.2875 2.86528C91.0018 4.38907 91.5732 6.48428 91.5732 9.24616ZM86.7161 24.865V9.53187C86.7161 8.00807 86.4304 6.67476 85.6685 5.91286C84.9066 5.15097 83.859 4.86525 82.1447 4.86525H78.0496C76.5258 4.86525 75.2877 5.15097 74.5258 5.91286C73.7639 6.67476 73.4782 7.72236 73.4782 9.24616V24.5793C73.4782 26.1031 73.7639 27.4364 74.5258 28.1983C75.2877 28.9602 76.3353 29.2459 78.0496 29.2459H82.1447C83.6685 29.2459 84.9066 28.9602 85.6685 28.1983C86.4304 27.7221 86.7161 26.3888 86.7161 24.865Z" fill="white"/>
<path fill-rule="evenodd" clip-rule="evenodd" d="M100.716 25.4364L102.526 4.96042L99.4784 4.389V0.865234H123.954V4.389L120.907 4.86519V29.4363L123.954 29.9125V33.5315H113.002V29.9125L116.05 29.4363V5.1509H107.383L105.574 25.6269C105.288 28.1982 104.526 30.1982 103.288 31.5315C102.05 32.7696 99.9546 33.5315 97.6689 33.5315H95.8594V29.4363H96.6213C97.6689 29.4363 98.6212 29.1506 99.3831 28.3887C100.145 27.6268 100.716 26.6745 100.716 25.4364Z" fill="white"/>
<path fill-rule="evenodd" clip-rule="evenodd" d="M144.048 33.6268H129.477V30.0078L132.524 29.5316V4.96042L129.572 4.389V0.865234H140.524V4.389L137.476 4.86519V12.2937H144.143C146.905 12.2937 149 13.0556 150.524 14.5794C152.048 16.1032 152.81 18.1984 152.81 20.9602V24.5792C152.81 27.4364 152.048 29.4363 150.524 30.9601C149.191 32.8649 146.905 33.6268 144.048 33.6268ZM137.476 29.2459H143.381C144.905 29.2459 145.953 28.9601 146.714 28.1983C147.476 27.4364 147.762 26.3887 147.762 24.865V21.5317C147.762 20.0079 147.476 18.6746 146.714 18.1984C145.953 17.4365 144.905 17.1508 143.381 17.1508H137.476V29.2459Z" fill="white"/>
<path fill-rule="evenodd" clip-rule="evenodd" d="M174.716 4.389V0.865234H185.668V4.389L182.62 4.96042V29.5316L185.668 30.0078V33.6268H177.763V19.246H166.049V29.5316L169.097 30.0078V33.6268H158.145V30.0078L161.192 29.5316V4.96042L158.145 4.389V0.865234H166.049V14.8651H177.763V4.96042L174.716 4.389Z" fill="white"/>
<path fill-rule="evenodd" clip-rule="evenodd" d="M191 0.865234H199.19V23.8173H199.476L210.905 0.865234H219.095V4.389L216.047 4.96042V29.5316L219.095 29.722V33.6268H211.19V10.5794H210.905L199.19 33.6268H191V29.722L194.048 29.5316V4.96042L191 4.389V0.865234Z" fill="white"/>
<path fill-rule="evenodd" clip-rule="evenodd" d="M241 4.389V0.865234H251.953V4.389L248.905 4.96042V29.5316L251.953 30.0078V33.6268H244.048V19.246H232.62V29.5316L235.667 30.0078V33.6268H224.715V30.0078L227.762 29.5316V4.96042L224.715 4.389V0.865234H232.62V14.8651H244.048V4.96042L241 4.389Z" fill="white"/>
<path fill-rule="evenodd" clip-rule="evenodd" d="M274.905 9.53198L274.428 5.43679H268.048C266.524 5.43679 265.286 5.7225 264.524 6.48439C263.762 7.24629 263.476 8.2939 263.476 10.1034V24.9604C263.476 26.4842 263.762 27.8175 264.524 28.5794C265.286 29.3413 266.333 29.627 268.048 29.627H278.809V34.0079H267.286C264.524 34.0079 262.429 33.246 260.905 31.7222C259.381 30.1984 258.619 28.1032 258.619 25.3413V9.81769C258.619 6.96058 259.381 4.9606 260.905 3.43681C262.429 1.91302 264.429 1.15112 267.286 1.15112H278.809V9.62722H274.905V9.53198Z" fill="white"/>
<path fill-rule="evenodd" clip-rule="evenodd" d="M287.19 29.5316V4.96042L284.143 4.389V0.865234H295.095V4.389L292.047 4.96042V14.8651H298.619L304.047 0.865234H310.904V4.389L307.857 4.96042L302.999 17.246L308.333 29.5316L311.38 30.0078V33.6268H304.523L298.619 19.246H292.047V29.5316L295.095 30.0078V33.6268H284.143V30.0078L287.19 29.5316Z" fill="white"/>
<path fill-rule="evenodd" clip-rule="evenodd" d="M338.427 9.24616V24.865C338.427 27.7221 337.665 29.7221 336.141 31.2459C334.617 32.7697 332.617 33.5316 329.76 33.5316H324.141C321.379 33.5316 319.284 32.7697 317.76 31.2459C316.236 29.7221 315.475 27.6269 315.475 24.865V9.24616C315.475 6.38905 316.236 4.38907 317.76 2.86528C319.284 1.34149 321.284 0.57959 324.141 0.57959H329.76C332.522 0.57959 334.617 1.34149 336.141 2.86528C337.665 4.38907 338.427 6.48428 338.427 9.24616ZM333.57 24.865V9.53187C333.57 8.00807 333.284 6.67476 332.522 5.91286C331.76 5.15097 330.713 4.86525 328.998 4.86525H324.903C323.379 4.86525 322.141 5.15097 321.379 5.91286C320.617 6.67476 320.332 7.72236 320.332 9.24616V24.5793C320.332 26.1031 320.617 27.4364 321.379 28.1983C322.141 28.9602 323.189 29.2459 324.903 29.2459H328.998C330.522 29.2459 331.76 28.9602 332.522 28.1983C333.093 27.7221 333.57 26.3888 333.57 24.865Z" fill="white"/>
<path fill-rule="evenodd" clip-rule="evenodd" d="M363.475 9.5318L362.904 5.1509H352.999V15.1508H361.38V19.246H352.999V29.2459H363.475L363.951 24.865H367.761V33.6268H344.809V30.0078L347.856 29.5316V4.96042L344.809 4.389V0.865234H367.285V9.5318H363.475Z" fill="white"/>
<path fill-rule="evenodd" clip-rule="evenodd" d="M383.094 0.865234H410.427V4.389L407.284 4.96042V29.5316L410.427 30.0078V33.6268H402.522V5.1509H390.998V29.5316L394.046 30.0078V33.6268H383.094V30.0078L386.141 29.5316V4.96042L383.094 4.389V0.865234Z" fill="white"/>
<path fill-rule="evenodd" clip-rule="evenodd" d="M434.14 29.5316L432.33 24.1983H422.616L421.092 29.5316L424.14 30.0078V33.6268H413.188V30.0078L416.235 29.5316L423.854 4.96042L420.806 4.389V0.865234H430.235L439.187 29.2459L442.235 29.722V33.341H431.283V29.722L434.14 29.5316ZM427.473 8.29372L423.949 20.1031H431.378L427.854 8.29372H427.473Z" fill="white"/>
<path fill-rule="evenodd" clip-rule="evenodd" d="M459.663 0.865234C462.425 0.865234 464.52 1.62713 466.044 3.15092C467.568 4.67471 468.33 6.76993 468.33 9.5318V14.3889C468.33 17.246 467.568 19.246 466.044 20.7698C464.52 22.2936 462.52 23.0555 459.663 23.0555H452.996V29.4363L456.044 29.9125V33.5315H445.092V29.9125L448.139 29.4363V4.96042L445.092 4.389V0.865234H459.663ZM458.806 5.1509H452.901V18.6746H458.806C460.33 18.6746 461.568 18.3888 462.33 17.6269C463.092 16.865 463.377 15.8174 463.377 14.0079V9.5318C463.377 8.00801 463.092 6.67469 462.33 5.91279C461.663 5.72232 460.425 5.1509 458.806 5.1509Z" fill="white"/>
<path fill-rule="evenodd" clip-rule="evenodd" d="M497.093 9.24616V24.865C497.093 27.7221 496.331 29.7221 494.807 31.2459C493.283 32.7697 491.283 33.5316 488.426 33.5316H482.807C480.045 33.5316 477.95 32.7697 476.426 31.2459C474.903 29.7221 474.141 27.6269 474.141 24.865V9.24616C474.141 6.38905 474.903 4.38907 476.426 2.86528C477.95 1.34149 479.95 0.57959 482.807 0.57959H488.426C491.188 0.57959 493.283 1.34149 494.807 2.86528C496.331 4.38907 497.093 6.48428 497.093 9.24616ZM492.236 24.865V9.53187C492.236 8.00807 491.95 6.67476 491.188 5.91286C490.426 5.15097 489.379 4.86525 487.664 4.86525H483.569C482.045 4.86525 480.807 5.15097 480.045 5.91286C479.283 6.67476 478.998 7.72236 478.998 9.24616V24.5793C478.998 26.1031 479.283 27.4364 480.045 28.1983C480.807 28.9602 481.855 29.2459 483.569 29.2459H487.664C489.188 29.2459 490.426 28.9602 491.188 28.1983C492.045 27.7221 492.236 26.3888 492.236 24.865Z" fill="white"/>
<path fill-rule="evenodd" clip-rule="evenodd" d="M514.997 20.5793H514.712L508.616 33.6268H501.664V30.0078L504.807 29.5316L511.378 16.6746L505.569 4.96042L502.521 4.389V0.865234H509.378L514.712 13.1508H514.997L520.33 0.865234H527.188V4.389L524.426 4.96042L518.331 16.6746L524.902 29.5316L527.949 30.0078V33.6268H521.092L514.997 20.5793Z" fill="white"/>
<path fill-rule="evenodd" clip-rule="evenodd" d="M555.567 9.24616V24.865C555.567 27.7221 554.805 29.7221 553.282 31.2459C551.758 32.7697 549.758 33.5316 546.901 33.5316H541.282C538.52 33.5316 536.425 32.7697 534.901 31.2459C533.377 29.7221 532.615 27.6269 532.615 24.865V9.24616C532.615 6.38905 533.377 4.38907 534.901 2.86528C536.425 1.34149 538.425 0.57959 541.282 0.57959H546.901C549.663 0.57959 551.758 1.34149 553.282 2.86528C554.805 4.38907 555.567 6.48428 555.567 9.24616ZM550.71 24.865V9.53187C550.71 8.00807 550.425 6.67476 549.663 5.91286C548.901 5.15097 547.853 4.86525 546.139 4.86525H542.044C540.52 4.86525 539.282 5.15097 538.52 5.91286C537.758 6.67476 537.472 7.72236 537.472 9.24616V24.5793C537.472 26.1031 537.758 27.4364 538.52 28.1983C539.282 28.9602 540.329 29.2459 542.044 29.2459H546.139C547.663 29.2459 548.901 28.9602 549.663 28.1983C550.139 27.7221 550.71 26.3888 550.71 24.865Z" fill="white"/>
<path fill-rule="evenodd" clip-rule="evenodd" d="M559.568 29.2459H561.378C561.664 29.2459 561.854 28.9601 562.14 28.7697C562.425 28.484 562.902 28.0078 563.378 27.5316C563.854 26.7697 564.14 26.0078 564.14 25.2459L565.949 5.05566L562.902 4.389V0.865234H587.378V4.389L584.33 4.86519V29.1506H588.425V39.6267H584.33L583.854 33.5315H564.425L563.949 39.6267H559.854V29.1506H559.568V29.2459ZM570.806 5.1509L568.997 25.1507C568.997 25.9126 568.711 26.6745 568.521 27.1506C568.235 27.6268 567.759 28.1983 567.473 28.3887L566.997 28.6744V28.9601H579.759V5.1509H570.806V5.1509Z" fill="white"/>
<path fill-rule="evenodd" clip-rule="evenodd" d="M610.139 9.53198L609.662 5.43679H603.282C601.758 5.43679 600.52 5.7225 599.758 6.48439C598.996 7.24629 598.71 8.2939 598.71 10.1034V24.9604C598.71 26.4842 598.996 27.8175 599.758 28.5794C600.52 29.3413 601.567 29.627 603.282 29.627H613.948V34.0079H602.424C599.662 34.0079 597.567 33.246 596.043 31.7222C594.52 30.1984 593.758 28.1032 593.758 25.3413V9.81769C593.758 6.96058 594.52 4.9606 596.043 3.43681C597.567 1.91302 599.567 1.15112 602.424 1.15112H613.948V9.62722H610.139V9.53198Z" fill="white"/>
<path fill-rule="evenodd" clip-rule="evenodd" d="M627.471 29.5316V5.1509H621.852L621.376 9.05561H618.043V0.865234H641.757V9.05561H638.424L637.947 5.1509H632.329V29.5316L635.376 30.0078V33.6268H624.424V30.0078L627.471 29.5316Z" fill="white"/>
<path fill-rule="evenodd" clip-rule="evenodd" d="M661.947 33.6268H645.852V30.0078L648.899 29.5316V4.96042L645.852 4.389V0.865234H660.423C663.185 0.865234 665.28 1.62713 666.804 3.15092C668.327 4.67471 669.089 6.76993 669.089 9.5318V9.81751C669.089 10.8651 669.089 11.627 668.804 12.3889C668.518 13.1508 668.327 13.627 667.756 14.1984C667.47 14.6746 666.994 14.9603 666.708 15.246C666.423 15.5317 666.232 15.7222 665.947 15.7222L665.661 16.0079V16.7698C665.947 16.7698 665.947 16.7698 666.137 17.0555C666.423 17.0555 666.613 17.3412 667.375 17.5317C667.851 17.8174 668.423 18.2936 668.899 18.7698C669.375 19.246 669.661 20.0079 670.137 20.7698C670.423 21.8174 670.613 22.7697 670.613 23.8173V25.0554C670.613 27.9125 669.851 29.9125 668.327 31.4363C666.994 32.8649 664.708 33.6268 661.947 33.6268ZM653.947 14.6746H659.851C661.375 14.6746 662.613 14.3889 663.375 13.627C664.137 12.8651 664.423 11.8175 664.423 10.008V9.81751C664.423 8.29372 664.137 6.9604 663.375 6.19851C662.613 5.43661 661.566 5.1509 659.851 5.1509H653.947V14.6746ZM653.947 29.2459H661.375C662.899 29.2459 664.137 28.9601 664.899 28.1983C665.661 27.4364 665.947 26.3887 665.947 24.5792V23.3412C665.947 21.5317 665.47 20.4841 664.708 19.7222C663.947 18.9603 662.423 18.6746 660.613 18.6746H654.232V29.1506H653.947V29.2459Z" fill="white"/>
<path fill-rule="evenodd" clip-rule="evenodd" d="M699.661 9.24616V24.865C699.661 27.7221 698.899 29.7221 697.375 31.2459C695.852 32.7697 693.852 33.5316 690.995 33.5316H685.376C682.614 33.5316 680.518 32.7697 678.995 31.2459C677.471 29.7221 676.709 27.6269 676.709 24.865V9.24616C676.709 6.38905 677.471 4.38907 678.995 2.86528C680.518 1.34149 682.518 0.57959 685.376 0.57959H690.995C693.756 0.57959 695.852 1.34149 697.375 2.86528C698.899 4.38907 699.661 6.48428 699.661 9.24616ZM694.804 24.865V9.53187C694.804 8.00807 694.518 6.67476 693.756 5.91286C692.995 5.15097 691.947 4.86525 690.233 4.86525H686.137C684.614 4.86525 683.376 5.15097 682.614 5.91286C681.852 6.67476 681.566 7.72236 681.566 9.24616V24.5793C681.566 26.1031 681.852 27.4364 682.614 28.1983C683.376 28.9602 684.423 29.2459 686.137 29.2459H690.233C691.756 29.2459 692.995 28.9602 693.756 28.1983C694.328 27.7221 694.804 26.3888 694.804 24.865Z" fill="white"/>
</g>
<defs>
<clipPath id="clip0_1160_1817">
<rect width="698.944" height="39.1424" fill="white" transform="translate(0.716797 0.57959)"/>
</clipPath>
</defs>
</svg>
