<svg width="291" height="66" viewBox="0 0 291 66" fill="none" xmlns="http://www.w3.org/2000/svg">
<path fill-rule="evenodd" clip-rule="evenodd" d="M132.703 2.27344L5.73828 3.20349V3.41016L132.703 3.20349V2.27344Z" fill="white"/>
<path fill-rule="evenodd" clip-rule="evenodd" d="M8.8127 52.9092L8.60775 51.2558H6.04591C5.43107 51.2558 4.91871 51.3591 4.61129 51.6691C4.30386 51.9791 4.20139 52.3925 4.20139 53.1159V59.1095C4.20139 59.7295 4.30386 60.2462 4.61129 60.5563C4.91871 60.8663 5.3286 60.9696 6.04591 60.9696H10.3498V62.7264H5.73849C4.61128 62.7264 3.7915 62.4163 3.17666 61.7963C2.56181 61.1763 2.25439 60.3496 2.25439 59.2129V53.0125C2.25439 51.8758 2.56181 51.0491 3.17666 50.4291C3.7915 49.809 4.61128 49.499 5.73849 49.499H10.3498V52.9092H8.8127Z" fill="white"/>
<path fill-rule="evenodd" clip-rule="evenodd" d="M15.7811 53.0128V62.6233H12.502V61.1766L13.7316 60.9699V51.0494L12.502 50.8427V49.396H16.4984L19.6751 59.0065H19.88L23.0567 49.396H26.9507V50.8427L25.721 51.0494V60.9699L26.9507 61.1766V62.6233H23.774V53.0128H23.6716L20.4949 62.6233H19.0603L15.8836 53.0128H15.7811Z" fill="white"/>
<path fill-rule="evenodd" clip-rule="evenodd" d="M36.7878 59.1097V52.9093C36.7878 52.2893 36.6854 51.7726 36.3779 51.4626C36.0705 51.1526 35.6606 51.0492 34.9433 51.0492H33.3037C32.6889 51.0492 32.1765 51.1526 31.8691 51.4626C31.5617 51.7726 31.4592 52.186 31.4592 52.806V59.0063C31.4592 59.6263 31.5617 60.143 31.8691 60.4531C32.1765 60.7631 32.5864 60.8664 33.3037 60.8664H34.9433C35.5581 60.8664 36.0705 60.7631 36.3779 60.4531C36.6854 60.2464 36.7878 59.7297 36.7878 59.1097ZM38.7348 52.806V59.1097C38.7348 60.2464 38.4274 61.0731 37.8126 61.6931C37.1977 62.3131 36.3779 62.6232 35.2507 62.6232H32.9963C31.8691 62.6232 31.0493 62.3131 30.4345 61.6931C29.8196 61.0731 29.5122 60.2464 29.5122 59.1097V52.806C29.5122 51.6693 29.8196 50.8426 30.4345 50.2225C31.0493 49.6025 31.8691 49.2925 32.9963 49.2925H35.2507C36.3779 49.2925 37.1977 49.6025 37.8126 50.2225C38.5299 50.8426 38.7348 51.6693 38.7348 52.806Z" fill="white"/>
<path fill-rule="evenodd" clip-rule="evenodd" d="M42.424 59.3165L43.1414 51.0494L41.9117 50.8427V49.396H51.7491V50.8427L50.5195 51.0494V60.9699L51.7491 61.1766V62.6233H47.3428V61.1766L48.5725 60.9699V51.1528H45.0884L44.371 59.4198C44.2686 60.4532 43.9612 61.2799 43.4488 61.7966C42.9364 62.3133 42.1166 62.6233 41.1944 62.6233H40.4771V60.9699H40.7845C41.1944 60.9699 41.6043 60.8666 41.9117 60.5566C42.2191 60.2466 42.424 59.8332 42.424 59.3165Z" fill="white"/>
<path fill-rule="evenodd" clip-rule="evenodd" d="M57.1801 60.8666H59.537C60.1518 60.8666 60.5617 60.7632 60.8691 60.4532C61.1766 60.1432 61.279 59.7299 61.279 59.1098V57.7664C61.279 57.1464 61.1766 56.6297 60.8691 56.423C60.5617 56.113 60.1518 56.0097 59.537 56.0097H57.1801V60.8666ZM59.8444 62.6233H54.0034V61.1766L55.2331 60.9699V51.0494L54.0034 50.8427V49.396H58.4098V50.8427L57.1801 51.0494V54.0462H59.8444C60.9716 54.0462 61.7914 54.3563 62.4062 54.9763C63.0211 55.5963 63.3285 56.423 63.3285 57.5597V59.0065C63.3285 60.1432 63.0211 60.9699 62.4062 61.59C61.8939 62.3133 60.9716 62.6233 59.8444 62.6233Z" fill="white"/>
<path fill-rule="evenodd" clip-rule="evenodd" d="M72.1412 50.8427V49.396H76.5476V50.8427L75.3179 51.0494V60.9699L76.5476 61.1766V62.6233H73.3709V56.8364H68.6571V60.9699L69.8868 61.1766V62.6233H65.4805V61.1766L66.7101 60.9699V51.0494L65.4805 50.8427V49.396H68.6571V55.0796H73.3709V51.0494L72.1412 50.8427Z" fill="white"/>
<path fill-rule="evenodd" clip-rule="evenodd" d="M78.6997 49.396H81.9789V58.6965H82.0813L86.6926 49.396H89.9718V50.8427L88.7421 51.0494V60.9699L89.9718 61.0733V62.6233H86.7951V53.3229H86.6926L81.9789 62.6233H78.6997V61.0733L79.9294 60.9699V51.0494L78.6997 50.8427V49.396Z" fill="white"/>
<path fill-rule="evenodd" clip-rule="evenodd" d="M98.7844 50.8427V49.396H103.191V50.8427L101.961 51.0494V60.9699L103.191 61.1766V62.6233H100.014V56.8364H95.4028V60.9699L96.6324 61.1766V62.6233H92.2261V61.1766L93.4558 60.9699V51.0494L92.2261 50.8427V49.396H95.4028V55.0796H100.014V51.0494L98.7844 50.8427Z" fill="white"/>
<path fill-rule="evenodd" clip-rule="evenodd" d="M112.413 52.9092L112.208 51.2558H109.646C109.032 51.2558 108.519 51.3591 108.212 51.6691C107.904 51.9791 107.802 52.3925 107.802 53.1159V59.1095C107.802 59.7295 107.904 60.2462 108.212 60.5563C108.519 60.8663 108.929 60.9696 109.646 60.9696H113.95V62.7264H109.339C108.212 62.7264 107.392 62.4163 106.777 61.7963C106.162 61.1763 105.855 60.3496 105.855 59.2129V53.0125C105.855 51.8758 106.162 51.0491 106.777 50.4291C107.392 49.809 108.212 49.499 109.339 49.499H113.95V52.9092H112.413Z" fill="white"/>
<path fill-rule="evenodd" clip-rule="evenodd" d="M117.332 60.9699V51.0494L116.103 50.8427V49.396H120.509V50.8427L119.279 51.0494V55.0796H121.944L124.095 49.396H126.862V50.8427L125.633 51.0494L123.686 56.0097L125.838 60.9699L127.067 61.1766V62.6233H124.3L121.944 56.8364H119.279V60.9699L120.509 61.1766V62.6233H116.103V61.1766L117.332 60.9699Z" fill="white"/>
<path fill-rule="evenodd" clip-rule="evenodd" d="M135.982 59.1097V52.9093C135.982 52.2893 135.88 51.7726 135.572 51.4626C135.265 51.1526 134.855 51.0492 134.138 51.0492H132.498C131.883 51.0492 131.371 51.1526 131.063 51.4626C130.756 51.7726 130.654 52.186 130.654 52.806V59.0063C130.654 59.6263 130.756 60.143 131.063 60.4531C131.371 60.7631 131.781 60.8664 132.498 60.8664H134.138C134.752 60.8664 135.265 60.7631 135.572 60.4531C135.777 60.2464 135.982 59.7297 135.982 59.1097ZM137.929 52.806V59.1097C137.929 60.2464 137.622 61.0731 137.007 61.6931C136.392 62.3131 135.572 62.6232 134.445 62.6232H132.191C131.063 62.6232 130.244 62.3131 129.629 61.6931C129.014 61.0731 128.707 60.2464 128.707 59.1097V52.806C128.707 51.6693 129.014 50.8426 129.629 50.2225C130.244 49.6025 131.063 49.2925 132.191 49.2925H134.445C135.572 49.2925 136.392 49.6025 137.007 50.2225C137.622 50.8426 137.929 51.6693 137.929 52.806Z" fill="white"/>
<path fill-rule="evenodd" clip-rule="evenodd" d="M147.972 52.9095L147.767 51.1528H143.77V55.183H147.152V56.8364H143.77V60.8666H147.972L148.177 59.1098H149.714V62.6233H140.491V61.1766L141.721 60.9699V51.0494L140.491 50.8427V49.396H149.509V52.9095H147.972Z" fill="white"/>
<path fill-rule="evenodd" clip-rule="evenodd" d="M155.862 49.396H166.827V50.8427L165.597 51.0494V60.9699L166.827 61.1766V62.6233H163.65V51.1528H159.039V60.9699L160.269 61.1766V62.6233H155.862V61.1766L157.092 60.9699V51.0494L155.862 50.8427V49.396Z" fill="white"/>
<path fill-rule="evenodd" clip-rule="evenodd" d="M173.693 52.3928L172.258 57.1464H175.23L173.795 52.3928H173.693ZM176.357 60.9699L175.64 58.7998H171.746L171.131 60.9699L172.36 61.1766V62.6233H167.954V61.1766L169.184 60.9699L172.258 51.0494L171.028 50.8427V49.396H174.82L178.406 60.8666L179.636 61.0733V62.52H175.23V61.0733L176.357 60.9699Z" fill="white"/>
<path fill-rule="evenodd" clip-rule="evenodd" d="M186.297 51.1528H183.94V56.6297H186.297C186.912 56.6297 187.424 56.5264 187.731 56.2163C188.039 55.9063 188.141 55.493 188.141 54.7696V52.9095C188.141 52.2895 188.039 51.7728 187.731 51.4628C187.424 51.3594 186.912 51.1528 186.297 51.1528ZM186.604 49.396C187.731 49.396 188.551 49.706 189.166 50.326C189.781 50.9461 190.088 51.7728 190.088 52.9095V54.8729C190.088 56.0097 189.781 56.8364 189.166 57.4564C188.551 58.0764 187.731 58.3865 186.604 58.3865H183.94V60.9699L185.17 61.1766V62.6233H180.763V61.1766L181.993 60.9699V51.0494L180.763 50.8427V49.396H186.604Z" fill="white"/>
<path fill-rule="evenodd" clip-rule="evenodd" d="M199.721 59.1097V52.9093C199.721 52.2893 199.618 51.7726 199.311 51.4626C199.004 51.1526 198.594 51.0492 197.876 51.0492H196.237C195.622 51.0492 195.11 51.1526 194.802 51.4626C194.495 51.7726 194.392 52.186 194.392 52.806V59.0063C194.392 59.6263 194.495 60.143 194.802 60.4531C195.11 60.7631 195.52 60.8664 196.237 60.8664H197.876C198.491 60.8664 199.004 60.7631 199.311 60.4531C199.618 60.2464 199.721 59.7297 199.721 59.1097ZM201.668 52.806V59.1097C201.668 60.2464 201.36 61.0731 200.746 61.6931C200.131 62.3131 199.311 62.6232 198.184 62.6232H195.929C194.802 62.6232 193.982 62.3131 193.368 61.6931C192.753 61.0731 192.445 60.2464 192.445 59.1097V52.806C192.445 51.6693 192.753 50.8426 193.368 50.2225C193.982 49.6025 194.802 49.2925 195.929 49.2925H198.184C199.311 49.2925 200.131 49.6025 200.746 50.2225C201.36 50.8426 201.668 51.6693 201.668 52.806Z" fill="white"/>
<path fill-rule="evenodd" clip-rule="evenodd" d="M208.841 57.3531H208.738L206.279 62.6233H203.512V61.1766L204.742 60.9699L207.406 55.803L205.049 51.0494L203.82 50.8427V49.396H206.586L208.738 54.3562H208.841L210.993 49.396H213.76V50.8427L212.632 51.0494L210.173 55.803L212.837 60.9699L214.067 61.1766V62.6233H211.3L208.841 57.3531Z" fill="white"/>
<path fill-rule="evenodd" clip-rule="evenodd" d="M223.187 59.1097V52.9093C223.187 52.2893 223.085 51.7726 222.777 51.4626C222.47 51.1526 222.06 51.0492 221.343 51.0492H219.703C219.088 51.0492 218.576 51.1526 218.269 51.4626C217.961 51.7726 217.859 52.186 217.859 52.806V59.0063C217.859 59.6263 217.961 60.143 218.269 60.4531C218.576 60.7631 218.986 60.8664 219.703 60.8664H221.343C221.958 60.8664 222.47 60.7631 222.777 60.4531C222.982 60.2464 223.187 59.7297 223.187 59.1097ZM225.134 52.806V59.1097C225.134 60.2464 224.827 61.0731 224.212 61.6931C223.597 62.3131 222.777 62.6232 221.65 62.6232H219.396C218.269 62.6232 217.449 62.3131 216.834 61.6931C216.219 61.0731 215.912 60.2464 215.912 59.1097V52.806C215.912 51.6693 216.219 50.8426 216.834 50.2225C217.449 49.6025 218.269 49.2925 219.396 49.2925H221.65C222.777 49.2925 223.597 49.6025 224.212 50.2225C224.827 50.8426 225.134 51.6693 225.134 52.806Z" fill="white"/>
<path fill-rule="evenodd" clip-rule="evenodd" d="M231.283 51.1528L230.565 59.2132C230.565 59.5232 230.463 59.8332 230.36 60.0399C230.258 60.2466 230.053 60.4532 229.951 60.5566L229.746 60.6599V60.7632H234.869V51.1528H231.283ZM226.774 60.8666H227.491C227.594 60.8666 227.696 60.7632 227.799 60.6599C227.901 60.5566 228.106 60.3499 228.311 60.1432C228.516 59.8332 228.618 59.5232 228.618 59.2132L229.336 51.0494L228.106 50.8427V49.396H237.944V50.8427L236.714 51.0494V60.8666H238.353V65.1035H236.714L236.509 62.6233H228.721L228.516 65.1035H226.876V60.8666H226.774Z" fill="white"/>
<path fill-rule="evenodd" clip-rule="evenodd" d="M247.064 52.9092L246.859 51.2558H244.297C243.682 51.2558 243.17 51.3591 242.862 51.6691C242.555 51.9791 242.452 52.3925 242.452 53.1159V59.1095C242.452 59.7295 242.555 60.2462 242.862 60.5563C243.17 60.8663 243.58 60.9696 244.297 60.9696H248.601V62.7264H243.989C242.862 62.7264 242.042 62.4163 241.428 61.7963C240.813 61.1763 240.505 60.3496 240.505 59.2129V53.0125C240.505 51.8758 240.813 51.0491 241.428 50.4291C242.042 49.809 242.862 49.499 243.989 49.499H248.601V52.9092H247.064Z" fill="white"/>
<path fill-rule="evenodd" clip-rule="evenodd" d="M254.032 60.9699V51.1528H251.777L251.572 52.7028H250.24V49.396H259.77V52.7028H258.438L258.233 51.1528H255.979V60.9699L257.208 61.1766V62.6233H252.802V61.1766L254.032 60.9699Z" fill="white"/>
<path fill-rule="evenodd" clip-rule="evenodd" d="M264.689 60.8666H267.661C268.275 60.8666 268.788 60.7632 269.095 60.4532C269.403 60.1432 269.505 59.7299 269.505 59.0065V58.4898C269.505 57.7664 269.3 57.3531 268.993 57.0431C268.685 56.733 268.07 56.6297 267.353 56.6297H264.791V60.8666H264.689ZM264.689 54.9763H267.046C267.661 54.9763 268.173 54.8729 268.48 54.5629C268.788 54.2529 268.89 53.8396 268.89 53.1162V53.0128C268.89 52.3928 268.788 51.8761 268.48 51.5661C268.173 51.2561 267.763 51.1528 267.046 51.1528H264.689V54.9763ZM267.865 62.6233H261.41V61.1766L262.639 60.9699V51.0494L261.41 50.8427V49.396H267.251C268.378 49.396 269.198 49.706 269.812 50.326C270.427 50.9461 270.735 51.7728 270.735 52.9095V53.0128C270.735 53.4262 270.735 53.7362 270.632 54.0462C270.53 54.3562 270.427 54.5629 270.222 54.7696C270.12 54.9763 269.915 55.0796 269.812 55.183C269.71 55.2863 269.608 55.3896 269.505 55.3896L269.403 55.493V55.803C269.505 55.803 269.505 55.803 269.608 55.9063C269.71 55.9063 269.812 56.0097 270.12 56.113C270.325 56.2163 270.53 56.423 270.735 56.6297C270.94 56.8364 271.042 57.1464 271.247 57.4564C271.35 57.8698 271.452 58.2831 271.452 58.6965V59.2132C271.452 60.3499 271.145 61.1766 270.53 61.7966C269.915 62.3133 268.993 62.6233 267.865 62.6233Z" fill="white"/>
<path fill-rule="evenodd" clip-rule="evenodd" d="M281.085 59.1097V52.9093C281.085 52.2893 280.982 51.7726 280.675 51.4626C280.367 51.1526 279.957 51.0492 279.24 51.0492H277.601C276.986 51.0492 276.473 51.1526 276.166 51.4626C275.859 51.7726 275.756 52.186 275.756 52.806V59.0063C275.756 59.6263 275.859 60.143 276.166 60.4531C276.473 60.7631 276.883 60.8664 277.601 60.8664H279.24C279.855 60.8664 280.367 60.7631 280.675 60.4531C280.88 60.2464 281.085 59.7297 281.085 59.1097ZM283.032 52.806V59.1097C283.032 60.2464 282.724 61.0731 282.109 61.6931C281.495 62.3131 280.675 62.6232 279.548 62.6232H277.293C276.166 62.6232 275.346 62.3131 274.731 61.6931C274.116 61.0731 273.809 60.2464 273.809 59.1097V52.806C273.809 51.6693 274.116 50.8426 274.731 50.2225C275.346 49.6025 276.166 49.2925 277.293 49.2925H279.548C280.675 49.2925 281.495 49.6025 282.109 50.2225C282.724 50.8426 283.032 51.6693 283.032 52.806Z" fill="white"/>
<path fill-rule="evenodd" clip-rule="evenodd" d="M8.09532 33.8951L7.58295 27.3848L7.37801 33.9984C7.27553 34.5151 8.09532 34.5151 8.09532 33.8951Z" fill="white"/>
<path fill-rule="evenodd" clip-rule="evenodd" d="M2.15196 28.0047C2.15196 27.488 1.33217 27.488 1.43465 28.0047L1.94701 34.205L2.15196 28.0047Z" fill="white"/>
<path fill-rule="evenodd" clip-rule="evenodd" d="M14.6536 31.3114C14.4486 34.7216 13.014 34.3082 13.014 31.3114H14.6536ZM12.3991 31.3114C12.7066 34.9282 14.756 35.1349 14.6536 31.3114L27.3603 31.5181C27.8726 31.5181 27.8726 30.6914 27.3603 30.7947L14.6536 31.1047V31.0014V31.1047H13.014C13.014 30.7947 13.014 30.4847 13.1165 30.278C13.2189 29.8646 13.3214 29.348 13.4239 29.0379C13.6288 28.5212 13.7313 28.8313 13.8338 29.348C13.9362 29.5546 13.9362 29.7613 13.9362 29.968C13.9362 29.968 13.9362 29.968 13.9362 30.0713C14.0387 30.3813 14.3461 30.588 14.6536 30.4847C14.961 30.3813 15.1659 30.0713 15.0635 29.7613C14.2437 26.0411 12.1942 28.0046 12.3991 31.3114H10.4521H12.3991Z" fill="white"/>
<path fill-rule="evenodd" clip-rule="evenodd" d="M254.032 15.5006H252.495L253.212 2.47998L254.032 15.5006Z" fill="white"/>
<path fill-rule="evenodd" clip-rule="evenodd" d="M238.046 1.96338L237.943 2.17006L248.703 15.6041L250.548 15.7074L238.046 1.96338Z" fill="white"/>
<path fill-rule="evenodd" clip-rule="evenodd" d="M206.484 1.96338L206.382 2.17006L217.142 15.7074H218.884L206.484 1.96338Z" fill="white"/>
<path fill-rule="evenodd" clip-rule="evenodd" d="M193.675 1.96338L193.572 2.17006L204.332 15.7074H206.074L193.675 1.96338Z" fill="white"/>
<path fill-rule="evenodd" clip-rule="evenodd" d="M158.219 1.96338L158.117 2.17006L168.876 15.7074H170.721L158.219 1.96338Z" fill="white"/>
<path fill-rule="evenodd" clip-rule="evenodd" d="M132.088 13.5376L3.07422 14.261V14.4676L132.396 14.3643L132.088 13.5376Z" fill="white"/>
<path fill-rule="evenodd" clip-rule="evenodd" d="M259.463 2.27345L266.943 15.2941C194.7 15.6041 137.929 15.8108 98.8869 16.0175V15.9142L98.7845 14.1574H97.4523L97.3498 15.8108V15.9142L68.2473 16.0175C68.2473 15.9142 68.2473 15.9142 68.2473 15.8108L68.1449 14.1574H66.8127L66.7102 15.9142V16.0175V16.1208L33.7138 16.2242C33.7138 16.1208 33.8163 16.0175 33.8163 15.9142L33.7138 14.3641H32.3816L32.2792 15.9142V16.0175C32.2792 16.1208 32.2792 16.2242 32.3816 16.2242C5.73852 16.3275 3.4841 16.3275 0 16.3275V16.6375L286.721 17.6709L281.187 25.318L0.512367 25.938V26.1447L279.958 26.868C275.859 31.6216 272.067 33.4817 262.742 33.4817L34.1237 34.8251C29.5124 27.7981 9.12014 26.248 0.512367 26.248C9.22261 26.4547 28.7951 28.2115 33.2014 34.8251L1.84452 34.5151C1.02473 34.5151 1.12721 35.6518 1.84452 35.6518L33.8163 35.0318L261.82 35.3418C278.011 35.4452 280.572 29.6582 289.795 17.0509C290.41 16.2242 289.693 15.0874 288.77 15.1908L268.788 15.2941L260.078 2.27345H261C262.332 2.27345 262.64 0 260.693 0L128.912 1.13673V1.44674C176.562 1.8601 213.555 1.8601 259.463 2.27345Z" fill="white"/>
<path fill-rule="evenodd" clip-rule="evenodd" d="M132.396 4.44336L4.81641 5.27007V5.37341L132.396 5.27007C132.396 5.16673 133.728 4.44336 132.396 4.44336Z" fill="white"/>
<path fill-rule="evenodd" clip-rule="evenodd" d="M133.42 16.4311H131.986L132.088 13.5376C133.113 13.5376 133.318 14.0543 133.318 14.6743L133.42 16.4311Z" fill="white"/>
<path fill-rule="evenodd" clip-rule="evenodd" d="M133.011 4.65027C133.011 5.16697 132.806 5.27031 132.293 5.27031L132.396 1.44678H132.806L133.011 4.65027Z" fill="white"/>
<path fill-rule="evenodd" clip-rule="evenodd" d="M99.2966 4.96006H98.1694L98.9892 3.30664H99.9115L99.2966 4.96006Z" fill="white"/>
<path fill-rule="evenodd" clip-rule="evenodd" d="M68.5549 4.96006H67.3252L68.145 3.30664H69.1697L68.5549 4.96006Z" fill="white"/>
<path fill-rule="evenodd" clip-rule="evenodd" d="M34.0212 5.16678L32.7915 5.27012L33.6113 3.6167H34.5336L34.0212 5.16678Z" fill="white"/>
<path d="M146.127 10.7473C145.41 10.7473 141.823 10.7473 141.618 10.644C141.106 10.4373 140.901 10.2306 140.901 9.71393C140.901 9.71393 140.901 7.64716 141.003 7.33714C141.208 6.92379 141.721 6.61377 142.131 6.61377L146.025 6.71711C146.23 6.71711 146.434 6.71711 146.639 6.82045C147.049 7.02712 147.254 7.44048 147.254 7.85383C147.254 7.85383 147.254 9.71393 147.049 10.1273C146.844 10.5406 146.434 10.7473 146.127 10.7473ZM146.127 10.5406C146.434 10.5406 146.742 10.4373 146.947 10.1273C147.049 9.81727 147.049 9.40391 147.049 8.99056L146.947 7.85383C146.947 7.54382 146.742 7.2338 146.434 7.13046C146.229 7.02712 145.82 7.13046 145.41 7.13046H144.283L142.131 7.2338C141.926 7.2338 141.618 7.44048 141.516 7.64716C141.413 7.85383 141.516 8.26719 141.516 8.5772V9.81727C141.516 10.0239 141.618 10.2306 141.823 10.334C142.028 10.644 145.307 10.5406 146.127 10.5406Z" fill="white"/>
</svg>
