<svg width="26" height="25" viewBox="0 0 26 25" fill="none" xmlns="http://www.w3.org/2000/svg">
<path d="M3.75269 23.2904C3.75269 22.6761 3.75269 22.1042 3.75269 21.4687C3.00246 21.4687 2.27431 21.4687 1.54615 21.4687C1.28137 21.4687 1.03865 21.4687 0.773868 21.4687C0.398758 21.4475 0.15604 21.278 0.15604 20.9391C0.15604 20.579 0.420823 20.4307 0.751803 20.4095C1.59029 20.4095 2.42877 20.4095 3.24518 20.4095C3.37758 20.4095 3.53203 20.3884 3.70855 20.3884C3.70855 19.7952 3.70855 19.2233 3.70855 18.5878C2.84801 18.5878 2.00953 18.5878 1.19311 18.5878C1.03865 18.5878 0.86213 18.5878 0.707673 18.5878C0.376693 18.5666 0.133974 18.4184 0.133974 18.0794C0.133974 17.7193 0.376693 17.5499 0.729738 17.5499C1.3917 17.5287 2.05366 17.5499 2.69355 17.5499C2.89214 17.5499 3.11279 17.5287 3.31138 17.5499C3.66442 17.5922 3.77475 17.444 3.75269 17.1262C3.73062 16.8297 3.73062 16.5119 3.75269 16.1942C3.77475 15.8341 3.66442 15.707 3.26725 15.707C2.49496 15.7282 1.72268 15.707 0.950391 15.707C0.376693 15.707 0.0898438 15.5375 0.111909 15.1774C0.15604 14.6902 0.53115 14.669 0.928326 14.669C1.833 14.669 2.75975 14.669 3.70855 14.669C3.70855 14.0547 3.70855 13.504 3.70855 12.8897C3.50997 12.8897 3.31138 12.8685 3.11279 12.8685C2.34051 12.8685 1.56822 12.8685 0.795934 12.8685C0.442889 12.8685 0.133974 12.7414 0.133974 12.3601C0.133974 11.9576 0.420823 11.8094 0.817999 11.8094C1.65648 11.8094 2.49496 11.7882 3.31138 11.8094C3.66442 11.8094 3.77475 11.7035 3.75269 11.3857C3.73062 10.9409 3.88508 10.3478 3.64236 10.0936C3.42171 9.86056 2.78181 9.98765 2.31844 9.98765C1.81094 9.96647 1.28137 9.98765 0.773868 9.98765C0.398758 9.98765 0.133974 9.83937 0.133974 9.45809C0.133974 9.0768 0.420823 8.92852 0.773868 8.92852C1.25931 8.92852 1.74474 8.92852 2.20811 8.92852C2.69355 8.92852 3.15692 8.92852 3.68649 8.92852C3.68649 8.31422 3.68649 7.74229 3.68649 7.10681C2.89214 7.10681 2.11985 7.10681 1.3255 7.10681C1.08278 7.10681 0.840064 7.10681 0.597346 7.08562C0.266366 7.06444 0.0898438 6.8738 0.0898438 6.57724C0.0898438 6.28068 0.288432 6.09004 0.619411 6.06885C1.12691 6.04767 1.61235 6.06885 2.11985 6.06885C3.33344 6.06885 4.52497 6.06885 5.73856 6.06885C6.24607 6.06885 6.48878 6.2595 6.46672 6.59842C6.44465 7.02208 6.11367 7.10681 5.73856 7.10681C5.45171 7.10681 5.16487 7.10681 4.83389 7.10681C4.83389 7.31863 4.81182 7.46691 4.81182 7.63637C4.81182 12.6779 4.81182 17.7193 4.81182 22.7608C4.81182 23.0786 4.81182 23.2904 5.27519 23.2904C10.5488 23.2692 15.8445 23.2904 21.1181 23.2692C22.5303 23.2692 23.6335 22.4219 23.9645 21.1509C24.2734 19.9647 23.6335 18.6514 22.442 18.1006C22.0448 17.9312 21.5815 17.8041 21.1402 17.8041C17.5214 17.7829 13.9248 17.7829 10.3061 17.7829C9.79858 17.7829 9.40141 17.9523 9.13662 18.376C8.76151 19.0327 9.20282 19.88 9.99717 19.9859C10.1737 20.0071 10.3502 20.0071 10.5267 20.0071C13.8586 20.0071 17.1684 20.0071 20.5003 20.0071C20.6547 20.0071 20.8533 19.9647 20.9636 20.0283C21.1622 20.1553 21.4049 20.346 21.4049 20.5155C21.4049 20.6849 21.1622 20.8967 20.9857 21.0238C20.8533 21.1086 20.6327 21.045 20.4782 21.045C17.1243 21.045 13.7703 21.045 10.4164 21.045C8.80564 21.045 7.90096 20.1765 7.90096 18.6514C7.90096 13.3345 7.90096 8.01766 7.90096 2.7008C7.90096 1.17565 8.78358 0.307159 10.3723 0.307159C13.991 0.328342 17.5876 0.328342 21.1622 0.328342C23.4129 0.328342 25.156 1.98059 25.156 4.12005C25.156 9.60637 25.156 15.0927 25.156 20.579C25.156 22.6337 23.3908 24.3072 21.2505 24.3283C14.4544 24.3283 7.68031 24.3283 0.884195 24.3283C0.509085 24.3283 0.20017 24.2436 0.15604 23.82C0.133974 23.481 0.398758 23.2692 0.884195 23.2692C1.833 23.2692 2.78181 23.2904 3.75269 23.2904ZM9.04836 16.8932C9.82065 16.8508 10.5267 16.7873 11.2549 16.7873C14.4102 16.7661 17.5435 16.7873 20.6988 16.7873C21.3167 16.7873 21.3167 16.7873 21.3167 16.173C21.3167 14.669 21.3167 13.1862 21.3167 11.6823C21.3167 11.534 21.3167 11.4069 21.3167 11.2586C21.3387 10.9621 21.5153 10.7714 21.8462 10.7714C22.1552 10.7714 22.3537 10.9409 22.3758 11.2586C22.3758 11.3857 22.3758 11.5128 22.3758 11.6187C22.3758 13.2498 22.3758 14.8809 22.3758 16.5119C22.3758 16.6602 22.4199 16.872 22.5303 16.9356C23.0157 17.2321 23.5232 17.4863 24.0307 17.7617C24.0307 17.677 24.0528 17.5711 24.0528 17.4651C24.0528 13.038 24.0528 8.5896 24.0528 4.16241C24.0528 2.53134 22.8392 1.38748 21.1181 1.38748C17.5656 1.36629 14.0351 1.38748 10.4826 1.38748C9.44554 1.38748 9.04836 1.76877 9.04836 2.74317C9.04836 7.31863 9.04836 11.8941 9.04836 16.4696C9.04836 16.639 9.04836 16.8085 9.04836 16.8932Z" fill="black"/>
</svg>
