<svg width="63" height="42" viewBox="0 0 63 42" fill="none" xmlns="http://www.w3.org/2000/svg">
<g clip-path="url(#clip0_1003_828)">
<path d="M19.861 11.5358L19.0068 6.43849H11.5322C9.61017 6.43849 8.11525 6.88173 7.26102 7.76822C6.40678 8.43308 5.97966 9.98444 5.97966 11.979V30.5952C5.97966 32.5898 6.40678 34.1412 7.26102 35.0277C8.11525 35.9142 9.61017 36.3574 11.5322 36.3574H24.3458V41.898H10.4644C7.04746 41.898 4.48475 41.0115 2.56271 39.0169C0.854237 37.2439 0 34.5844 0 31.0385V11.7574C0 8.21146 0.854237 5.552 2.77627 3.55741C4.48475 1.78444 7.04746 0.897949 10.4644 0.897949H24.3458V11.5358H19.861Z" fill="white"/>
<path d="M29.6846 0.897949H62.9998V5.33038L59.1558 5.99525V36.8007L62.9998 37.2439V41.898H53.3897V6.43849H39.2947V36.8007L42.9253 37.2439V41.898H29.6846V37.2439L33.3151 36.8007V5.99525L29.6846 5.33038V0.897949Z" fill="white"/>
</g>
<defs>
<clipPath id="clip0_1003_828">
<rect width="63" height="41" fill="white" transform="translate(0 0.897949)"/>
</clipPath>
</defs>
</svg>
