<svg width="33" height="33" viewBox="0 0 33 33" fill="none" xmlns="http://www.w3.org/2000/svg">
<path d="M30.1166 2.48002C27.9013 0.243652 24.209 0.243652 16.9884 0.243652H15.6756C8.45511 0.243652 4.84485 0.243652 2.54742 2.48002C0.332031 4.79921 0.332031 8.44365 0.332031 15.7325V17.0578C0.332031 24.3467 0.332031 28.074 2.54742 30.3103C4.7628 32.5467 8.45511 32.5467 15.6756 32.5467H16.9884C24.209 32.5467 27.9013 32.5467 30.1166 30.3103C32.332 28.074 32.332 24.3467 32.332 17.0578V15.7325C32.4141 8.44365 32.4141 4.79921 30.1166 2.48002ZM23.3064 23.5184C22.4859 20.9507 20.4346 18.9628 17.809 18.7144V23.5184H17.3987C10.0961 23.5184 5.91152 18.4659 5.74742 10.0174H9.35767C9.43972 16.2295 12.1474 18.7972 14.2807 19.377V10.1002H17.7269V15.4012C19.8602 15.1527 22.0756 12.7507 22.8141 10.1002H26.2602C25.7679 13.4134 23.3064 15.8154 21.6654 16.8093C23.3884 17.6376 26.0961 19.7083 27.1628 23.6012H23.3064V23.5184Z" fill="white"/>
</svg>
