<?xml version="1.0" encoding="utf-8"?>
<!-- Generator: Adobe Illustrator 23.0.6, SVG Export Plug-In . SVG Version: 6.00 Build 0)  -->
<svg version="1.1" id="Layer_1" xmlns="http://www.w3.org/2000/svg" xmlns:xlink="http://www.w3.org/1999/xlink" x="0px" y="0px"
	 viewBox="0 0 721 63" style="enable-background:new 0 0 721 63;" xml:space="preserve">
<style type="text/css">
	.st0{fill-rule:evenodd;clip-rule:evenodd;fill:#6BA5DB;}
</style>
<path class="st0" d="M0,54.7c11.6,0,22.8-1.4,33.7-3.3c11.2-2,21.9-4.6,33.6-5.7c13.1-1.3,26.1-1.3,39.3-0.3
	c20.5,1.5,39.1,5.6,57.6,10c14,3.3,28.8,5.6,44.4,6.2c0.4,0,0.7,0.1,1.1,0.3c-4.5,0.3-9.1,0.6-13.6,0.7c-13.9,0.5-27.6,0.2-41.3-0.7
	c-25.3-1.7-50.7-2.3-76.2-1.4c-10.4,0.3-20.7,1.1-30.9,1.8C31.9,63.3,12,63,0,61.7V54.7z"/>
<path class="st0" d="M0,10.8c19.1-2.2,27.1-3.5,48-2.6c22.3,0.9,43.1,4.8,64,8.1c14.7,2.3,29.2,5.1,44,7.2c15.2,2.2,30.8,4,46.3,5.8
	c2.4,0.3,5.1,0.3,7.6,0.5c-3.7,0-7.3,0.1-11.1,0c-10.8-0.5-21.6-1.1-32.4-1.9c-13.6-1-27.1-2.3-40.5-3.4
	c-23.2-2.1-46.7-2.7-70.2-1.6c-18,0.8-36.9,3.7-55.8,4.8V10.8z"/>
<path class="st0" d="M720.9,27.7c-4.9,0.2-9.9,0.5-14.8,0.5c-19.2,0.2-38-1.1-56.4-3.6c-31.9-4.4-62.4-10.4-92.6-17.2
	c-3.6-0.8-25.1-5.5-26.1-6.5c6.3,1,12.5,2,18.8,3c40.5,6.3,65.5,10.7,108.6,10.5c20.7-0.1,42.5-1.4,62.7-3.7v17H720.9z"/>
<path class="st0" d="M720.9,49.4c-18.1,0.5-35.5-1-53.1-3.4c-32.3-4.4-56.4-11.6-94-16.2c-0.9-0.1-1.9-0.3-2.7-0.6
	c37.6,1.5,74.7,6.8,111.9,7.4c14.3,0.2,24.7-0.5,38-2.1v15H720.9z"/>
<path class="st0" d="M-0.1,34.4c22.7-2.9,37.6-4.1,56.3-5.6c20.5-1.7,41.2-2.1,61.8-0.3c0.7,0.1,1.1,0.1,0.4,0.2
	c-9.3,0.8-18.9,1.3-28,2.5c-8.1,1.1-16.1,2.9-23.7,4.7c-10.7,2.5-20.9,5.6-31.6,8.2C23.9,46.8,15.9,49,0,49.5V34.4H-0.1z"/>
<path class="st0" d="M721,61.7c-21.1-2.1-58-7-85-16.2c30.7,6.3,50,9.2,85,9.2V61.7z"/>
<path class="st0" d="M290.2,59c10.4-1.5,21.1-2.7,31.3-4.6c17.5-3,33.7-7.4,49.5-12.2c32-9.9,52.8-18.5,90.2-23.4
	c22.9-3,46.3-3.3,69.8-2.4c23.9,0.9,47.2,3.1,70.2,6.4c5.3,0.7,10.5,1.5,15.7,2.3c0,0.1-0.1,0.2-0.1,0.3
	c-20.7-1.7-39.7-2.6-60.8-2.1c-14.9,0.4-29.6,1.7-44.1,3.5c-24.5,3-53.9,10-77.6,15c-30,6.3-50.2,10.9-83.2,13.9
	C343.5,56.5,293,58.8,290.2,59z"/>
<path class="st0" d="M75,39.1c4.4-0.6,8.8-1.2,13.2-1.9c23.7-3.5,47.9-3.3,72.2-2.2c12.7,0.6,25.2,1.5,37.7,2.6
	c17.1,1.5,33.9,3.5,50.8,5c13.5,1.2,27.2,1.1,40.8,0.9c20.1-0.5,39.9-1.9,59.4-4.7c5.1-0.7,10.1-1.6,15.2-2.4c1.1-0.1,2-0.3,3.2-0.2
	c-8.3,1.9-16.4,4-24.8,5.6c-19.1,3.7-38.3,7.3-57.6,10.7c-14,2.4-28.7,3.7-43.5,4.4c-26.3,1.1-50.8-1.9-73.9-8.1
	c-15.5-4.2-31.6-7.4-49.1-8.8C105,39,91.2,38.8,77.5,39.3c-0.8,0-1.6,0.1-2.4,0.1L75,39.1z"/>
<path class="st0" d="M231.2,31.3c6.8,0,13.7,0,20.5,0c22.8,0,44.6-2.3,65.4-7c16.4-3.7,33.1-7.2,49.9-10.4
	c8.4-1.6,17.3-2.5,26.1-3.3c10.8-1,21.7-1.7,32.8-2.3c18.9-1.1,38.1-1.4,57.2-0.9c6.4,0.1,42,1,45.4,2.1c-3.5,0-6.9,0-10.5,0
	c-18.8,0.1-37.2,1.2-55.6,3.2c-19.5,2.1-38.1,5.4-56.8,8.9c-20.1,3.8-40.3,7.8-60.7,11.4c-18.7,3.3-38.3,4.2-58,3.9
	c-17.5-0.3-34.3-2.2-51-4.5c-1.6-0.2-3.2-0.4-4.9-0.6C231.2,31.6,231.2,31.5,231.2,31.3z"/>
</svg>
