<svg width="19" height="26" viewBox="0 0 19 26" fill="none" xmlns="http://www.w3.org/2000/svg">
<path d="M3.94111 2.24119H13.8335H16.6596C17.0107 2.24119 17.5324 2.32278 17.7994 2.03844C18.0986 1.71949 17.8415 1.30906 17.4582 1.26455C16.4396 1.15082 15.3492 1.25713 14.3231 1.25713H5.3529H2.71228C2.36366 1.25713 1.87411 1.1706 1.54774 1.30164C1.07302 1.49449 1.24857 2.07306 1.66889 2.19421C2.33894 2.39201 3.2414 2.24119 3.94111 2.24119Z" stroke="#333333" stroke-miterlimit="10"/>
<path d="M16.7585 17.0346C17.1937 16.0184 17.3989 15.0022 17.3989 13.8995H1.79004C1.79004 14.8564 1.92603 15.7712 2.28206 16.6638C4.33671 21.8189 10.8369 23.201 14.9412 19.5961C15.7201 18.9137 16.3505 17.9865 16.7585 17.0346Z" stroke="#333333" stroke-miterlimit="10"/>
<path d="M7.01465 25.4235H12.1772V21.2647C12.1772 21.2647 9.3833 22.0337 7.01465 21.2647V25.4235Z" stroke="#333333" stroke-miterlimit="10"/>
<path d="M14.6317 12.3814H4.8629C3.74286 12.3814 1.80195 11.8893 1.35938 13.9019H17.8286C17.4108 11.9957 15.7023 12.3814 14.6317 12.3814Z" stroke="#333333" stroke-miterlimit="10"/>
<path d="M16.907 2.26382H2.28223L2.40091 10.9942C2.40338 11.2217 2.58882 11.4046 2.81628 11.4071L16.3309 11.4541C16.5584 11.4541 16.7463 11.2711 16.7512 11.0436L16.907 2.26382ZM4.37148 4.77093C3.7855 4.79813 3.72863 3.89072 4.31214 3.85364C4.91048 3.81408 4.98219 4.74373 4.37148 4.77093Z" stroke="#333333" stroke-miterlimit="10"/>
</svg>
