<svg width="30" height="19" viewBox="0 0 30 19" fill="none" xmlns="http://www.w3.org/2000/svg">
<path d="M15.3096 14.5914C16.3375 14.5914 17.1685 15.4195 17.1685 16.4655C17.1685 17.4897 16.3375 18.3396 15.3096 18.3396C14.2817 18.3396 13.4287 17.5115 13.4287 16.4655C13.4287 15.4195 14.2598 14.5914 15.3096 14.5914Z" fill="black"/>
<path d="M24.7576 11.6495C22.9642 7.96667 19.29 5.67853 15.2002 5.67853C11.1324 5.67853 7.48004 7.92308 5.68667 11.5623L4.57129 11.0175C6.58336 6.96424 10.6731 4.45819 15.2002 4.45819C19.793 4.45819 23.8827 7.00783 25.8729 11.1265L24.7576 11.6495Z" fill="black"/>
<path d="M20.4266 13.8504C19.4206 11.8674 17.4304 10.647 15.1996 10.647C13.0126 10.647 11.0224 11.8456 10.0164 13.7851L8.92285 13.2185C10.1476 10.8867 12.5533 9.4267 15.1996 9.4267C17.8897 9.4267 20.3173 10.9085 21.5201 13.3274L20.4266 13.8504Z" fill="black"/>
<path d="M28.6063 9.75358C26.0256 4.69789 20.8861 1.55988 15.1998 1.55988C9.5354 1.55988 4.41776 4.6761 1.81519 9.68821L0.72168 9.12162C3.52108 3.69547 9.07613 0.317749 15.1998 0.317749C21.3672 0.317749 26.9223 3.71726 29.7217 9.187L28.6063 9.75358Z" fill="black"/>
</svg>
